<svg xmlns="http://www.w3.org/2000/svg" viewBox="0 0 395 180"><defs><style>.cls-1{fill:#ff2291;}.cls-2{opacity:0.5;}</style></defs><g id="Layer_2" data-name="Layer 2"><g id="文字要素_スクロール_" data-name="文字要素（スクロール）"><path class="cls-1" d="M66.83,54.62a1.09,1.09,0,0,1-1-.76c-.06-.17-.33-.84-.39-.93l-2.88.49c0,1,0,5.55,0,6.48,0,.2.16,6,.16,6.16,0,1.13-1.25,1.19-1.32,1.19-.69,0-.69-.53-.69-.82,0-.08.16-5.37.16-6.36V53.69c-.09,0-4.25.64-4.35.64-.3.63-.4.78-.73.78a.53.53,0,0,1-.49-.32l-.93-2.41c.76.2,1.65.46,5.25.32a55.59,55.59,0,0,0,3.6-5.11c.62-1,1.45-2.35,1.35-3.11l2.48,1.19a.42.42,0,0,1,.29.38.39.39,0,0,1-.33.38c-.16,0-.52.2-1,.35a59.77,59.77,0,0,1-5.75,5.92c.57,0,4.1-.18,5-.2a24.8,24.8,0,0,0-1.42-2l0-.11c1.85.78,4.09,1.71,4.09,3.19A1.13,1.13,0,0,1,66.83,54.62Zm-7.92,3c-1.78,4.74-2.71,6.16-4.29,7.55l-.1-.08a24.06,24.06,0,0,0,2.41-8.22,10.43,10.43,0,0,0-.1-1.16l2.61.75c.23.06.43.15.43.38S59.67,57.23,58.91,57.66Zm3.92-14.72-2,2a13,13,0,0,1-1.45,1.22c1.32.92,1.45,1.8,1.45,2.06a.94.94,0,0,1-1,.93c-.66,0-.7-.09-1.59-1.66a7.38,7.38,0,0,0-2.08-2.41V45A12.79,12.79,0,0,1,59,46c.76-1.1,2.64-4.21,2.48-5.37L64,42a.43.43,0,0,1,.23.35C64.25,42.65,63.83,42.74,62.83,42.94Zm3.44,18.44c-.73,0-.83-.29-1.19-2.21a10.9,10.9,0,0,0-.92-3l.13-.14c2.6,2.12,3.07,3.1,3.07,4C67.36,60.86,67,61.38,66.27,61.38Zm16.4,4.36a20.58,20.58,0,0,1-4.52.32c-2.64,0-6.9,0-7.52-.18-1.26-.26-1.39-1-1.46-1.48,0-.26,0-1,0-7.23V54.62c0-.85.07-4.8,0-5.2a13.78,13.78,0,0,1-2,1.86L67,51.16c2.84-3.8,5.12-8,5-10.45l2.58.87c.3.09.43.26.43.43,0,.32-.4.47-1.12.7-.07.09-.27.49-.3.55H78l.56-.4c.17-.12.33-.27.46-.27a.93.93,0,0,1,.5.24l1.39,1.1c.19.15.29.23.29.44s-.36.46-1.68.72c-.53.52-2.61,2.91-3,3.4l-1.15,1.22H79.8l.53-.61a.62.62,0,0,1,.43-.29,1.77,1.77,0,0,1,.56.23l1.05.58c.17.09.33.2.33.35s-.06.41-1,.7c0,1.88,0,3.39,0,4.58,0,.41.1,2.12.1,2.47a.8.8,0,0,1-.36.79,1.75,1.75,0,0,1-.93.26c-.56,0-.59-.5-.59-1H70.82v5.43c0,1.31.73,1.4,2,1.4,2.7,0,5.31,0,6.5-.12,2.14-.15,2.31-.55,2.67-1.42a22.12,22.12,0,0,0,.93-2.91h.16c0,.29.4,3.14.83,3.4s.52.35.52.76C84.45,65.16,83,65.65,82.67,65.74ZM73.13,44a29.65,29.65,0,0,1-3.46,4.91l1.58.84h3.4A37.94,37.94,0,0,0,77.75,44Zm1.55,6.45H70.86v6.64h3.82Zm5.32,0H76.24v6.64H80Z" transform="translate(-4.5 -4.5)"/><path class="cls-1" d="M105.44,48.29h-5L103,49.65c.3.17.47.32.47.52s-.3.41-1.59.55a47.1,47.1,0,0,1-2.31,5.64c3.47,3.51,4,5.54,4,6.07a1.1,1.1,0,0,1-1.13,1.19c-.72,0-1.05-.47-1.42-1.57a15.69,15.69,0,0,0-2.24-4.21,20.73,20.73,0,0,1-8.45,8.91l-.1-.2a35.24,35.24,0,0,0,7.46-10,24.48,24.48,0,0,0-5.21-4.47l.16-.23a25.88,25.88,0,0,1,5.64,3.37,23.81,23.81,0,0,0,2-6.91H95.64a27.16,27.16,0,0,0-4.23.34l-.79-1.24c2.48.17,4.88.2,5.48.2H97c0-4.59,0-4.68-.62-6.45l3,.79c.17,0,.53.17.53.46a.31.31,0,0,1-.16.29l-1,.58v4.33H102l1.15-1.11c.33-.31.37-.34.5-.34a1.42,1.42,0,0,1,.62.29l1.32,1.1c.23.17.33.26.33.47S105.67,48.29,105.44,48.29Zm14.88,1.33h-5.51V57.4c0,.76.13,4.1.13,4.79,0,1.92,0,2.73-1,3.72a5.27,5.27,0,0,1-3.27,1.28,2.15,2.15,0,0,0-.79-1.37,5.71,5.71,0,0,0-2-1.1v-.14c1,0,1.42.08,2.28.08,2.51,0,2.67-.2,2.8-.78s.07-13,0-14.26h-3.07a31.28,31.28,0,0,0-4.23.32l-.79-1.25c2.48.18,4.89.23,5.48.23H113c-.1-5.43-.1-6-.13-6.38a3,3,0,0,0-.47-1.8l2.81.78c.59.17.69.29.69.44,0,.31-.56.63-1.09.95v6h1.65l1.26-1.16c.36-.32.39-.35.53-.35s.56.29.59.29l1.65,1.17c.13.08.33.23.33.43S120.52,49.62,120.32,49.62Zm-12.21,9.06c-1.09,0-1.22-1.13-1.25-1.77a9.21,9.21,0,0,0-1.39-4.21l.23-.18a11.87,11.87,0,0,1,2.71,2.5,3.51,3.51,0,0,1,1.06,2.24A1.39,1.39,0,0,1,108.11,58.68Z" transform="translate(-4.5 -4.5)"/><path class="cls-1" d="M141.77,52.41c-.46.81-4,7.14-4.09,7.43a3.22,3.22,0,0,0-.23,1.08c0,.2.23,1.13.23,1.33s-.23.64-.83.64-4.12-.23-5.77-6.33c-.3-1-.3-1.54-.66-6-.2-2.35-.3-3.08-1.59-4.85,1.75.06,3.67,1.72,3.67,3a4.18,4.18,0,0,1-.2,1.25,12,12,0,0,0-.23,2.47c0,1.63.43,5.72,2.47,7.14a1.56,1.56,0,0,0,.73.32,1,1,0,0,0,.79-.43c2.44-3.37,2.71-3.69,5.09-6.74a3.67,3.67,0,0,1,.29-.41ZM149.26,56l3-.41c.26,0,.86-.14.86-.72a9.45,9.45,0,0,0-6.11-6.88,3.42,3.42,0,0,1,1-.18,6,6,0,0,1,3.76,1.8c2.51,2.5,3.56,5.49,3.56,6.86,0,.87-.43,1.74-.92,1.74-.23,0-.33-.06-1.16-.67-1.12-.84-1.84-1-4.06-1.34Z" transform="translate(-4.5 -4.5)"/><path class="cls-1" d="M180.71,54.5a15,15,0,0,0,2.08.14c3,0,7.3-1.16,7.3-4.09,0-2.64-3.17-2.9-3.9-2.9-3.63,0-10,3.31-12.08,4.41.46.64,5.41,7.9,5.65,8.28A11.54,11.54,0,0,1,181.47,65c0,1.14-.82,1.22-1,1.22-.73,0-.93-.64-1.26-1.65-1.68-5.08-3.66-7.87-6.43-11.73a34.51,34.51,0,0,0-3.9,2.58,1.77,1.77,0,0,1-1.18.49c-1,0-2.81-1-2.81-2.32a2.32,2.32,0,0,1,.07-.52,3.12,3.12,0,0,0,1.88,1,4.92,4.92,0,0,0,1.88-.69c.49-.26,2.8-1.4,3.27-1.66-.23-.32-1.39-1.83-1.62-2.15a2.7,2.7,0,0,1-.63-1.53,1.39,1.39,0,0,1,1-1.31,51.8,51.8,0,0,1,5.58-.47c.59,0,1.05,0,1.05-.43s-.62-.93-.72-1A9.78,9.78,0,0,0,174,43.29a3.48,3.48,0,0,1,.92-.12c1.78,0,5.35,1.51,5.35,3.49a.65.65,0,0,1-.73.73,3.47,3.47,0,0,1-1.29-.27,15.09,15.09,0,0,0-3.1-.29c-1.95,0-3.56.18-3.56,1.31a3.3,3.3,0,0,0,.79,1.57c.59.72.82,1.07,1,1.31a50.29,50.29,0,0,1,6.17-2.65,23.86,23.86,0,0,1,7-1.51c2,0,5.38,1.11,5.38,4.13,0,2.29-2.07,4.67-6.66,4.67a10.55,10.55,0,0,1-4.59-1Z" transform="translate(-4.5 -4.5)"/><path class="cls-1" d="M215.3,46.19c.59-.31.62-.34,1.09-.34s1.25.26,1.25.69-.26.47-.53.61a35.77,35.77,0,0,1-5.84,2c-3.1,7.49-5,12.05-6.67,14.89-.36.61-.52,1-1,1a1.06,1.06,0,0,1-.93-1.1c0-.38,0-.41,1-2a69.82,69.82,0,0,0,6.07-12.4,20.85,20.85,0,0,1-4.29.5c-2.35,0-3-.87-3.34-1.48a9.86,9.86,0,0,0,2.88.37,25.09,25.09,0,0,0,5.24-.72,22.73,22.73,0,0,0,1.26-4.36c0-.81-.66-1.16-1.68-1.71a4.27,4.27,0,0,1,1.38-.2,2.35,2.35,0,0,1,2.54,1.88c0,.18,0,.29-.39,1a27.51,27.51,0,0,0-1.42,2.93A24.43,24.43,0,0,0,215.3,46.19Zm5.51,17.25a34.91,34.91,0,0,0,4.78-.35c.57-.05.63-.08.76-.08.56,0,1.52.61,1.52,1,0,.93-3.86,1-5.77,1-2.64,0-5.19-.35-6.9-1.6a3.14,3.14,0,0,1-1.29-2.55,3.37,3.37,0,0,1,.53-1.86C214.6,61.44,215.26,63.44,220.81,63.44Zm.2-10c.76-.52,2.67-1.91,2.67-2.44s-1.22-.61-5.45-.69c1.52-1.08,4.43-1.08,4.62-1.08,2.08,0,4.86.73,4.86,2.09,0,.73-.56.73-1.52.73-1.29,0-2.18.2-5.12,1.51Zm5.57-7.2c0,.18-.06.73-.62.73-.37,0-.46-.06-1.72-1.16a19.09,19.09,0,0,0-3.5-2.3C222.92,43.55,226.58,44.31,226.58,46.28Zm-2.11-5a9.22,9.22,0,0,1,4.39,1.13,1.56,1.56,0,0,1,.69,1.28.59.59,0,0,1-.62.67,1.55,1.55,0,0,1-1-.53,11.73,11.73,0,0,0-4.65-2.44A5.29,5.29,0,0,1,224.47,41.26Z" transform="translate(-4.5 -4.5)"/><path class="cls-1" d="M244.86,64.11a1.7,1.7,0,0,1,3.37,0,1.7,1.7,0,0,1-3.37,0Zm1.19-7.49c0-1.51-.69-9.87-.89-11.41a4,4,0,0,1-.07-.58,1.46,1.46,0,0,1,2.91,0,2.49,2.49,0,0,1-.07.58c-.23,1.54-.89,9.84-.89,11.41v4.76h-1Z" transform="translate(-4.5 -4.5)"/><path class="cls-1" d="M61.71,86.23c-1,1.89-1.48,2.7-1.94,3.43l.56.35c.23.14.36.26.36.38s-.23.43-1,.81c-.13,3.77,0,13.68.2,17.07a4.24,4.24,0,0,1,0,.5c0,1.16-1.26,1.42-1.62,1.42-.53,0-.59-.26-.59-.64,0,0,0-.73,0-.81.23-7.52.26-8.54.3-16.32a23,23,0,0,1-4,4.73L53.89,97C56,93.55,60,87,60.26,83.94l2.61,1.28a.32.32,0,0,1,.2.32C63.07,85.86,62.87,85.91,61.71,86.23Zm12.71,4H68.18V92.8h2.71l.39-.5c.17-.2.3-.29.47-.29a1.09,1.09,0,0,1,.59.26l1,.7c.2.14.4.29.4.41,0,.32-.73.75-1.09.93,0,.75.06,4.44.06,5.28a1,1,0,0,1-1.09,1.07c-.62,0-.59-.31-.56-.84H68.18v2.73h2.38l.53-.75c.16-.26.26-.38.46-.38a1.53,1.53,0,0,1,.66.29l1.19.78a.6.6,0,0,1,.33.44c0,.32-.37.32-.53.32h-5v2.58a39.36,39.36,0,0,0,5.08-.81l.07.2a45,45,0,0,1-10,2.5c-.39.49-.49.61-.76.61s-.29-.14-.42-.52l-.6-1.69a15.29,15.29,0,0,0,1.65.09c.63,0,1.78-.06,3.47-.2v-2.76h-.46a32.27,32.27,0,0,0-4.26.35l-.76-1.25c2,.14,3.83.2,5.48.2V99.82h-3c0,1-1,1-1.19,1-.6,0-.6-.32-.6-.49s.07-.7.07-.82c.1-1.68.13-3.28.13-4.47A20.92,20.92,0,0,0,62,92.13l1.82.67H66.7V90.24H66a32.15,32.15,0,0,0-4.25.35L61,89.34c3,.2,5.44.2,5.71.2V87.19a24.83,24.83,0,0,1-4.46.47l0-.21A47.66,47.66,0,0,0,71,84.67a2.86,2.86,0,0,0,.92-.73l1.88,1.54c.1.08.23.23.23.32s-.29.23-.76.23a7,7,0,0,1-.82-.06c-.76.2-2,.52-4.26,1v2.61h3.34l.79-.9c.16-.17.29-.35.53-.35s.13,0,.59.35l1.15.84c.1.09.34.27.34.44S74.55,90.24,74.42,90.24ZM66.7,93.49h-3V95.9h3Zm0,3.11h-3v2.53h3Zm4.39-3.11H68.18V95.9h2.91Zm0,3.11H68.18v2.53h2.91Zm12-4.7a3.52,3.52,0,0,0,0,.52c-.2,9.9-.2,10.68-.76,13.44a5.25,5.25,0,0,1-1.59,2.88,4.94,4.94,0,0,1-2.64,1.13c.07-.47-.36-.87-1.18-1.39a8.49,8.49,0,0,0-1.89-.93l0-.21a28,28,0,0,0,2.9.24,2.22,2.22,0,0,0,2.25-1c.76-1.22,1.35-7.15,1.35-12.72,0-.9,0-1.37-.1-2.38l-2.9.09c-.14,5.86-.37,15.33-9.18,18.43l-.13-.17c6.24-3.72,7.46-9.23,7.59-18.15a22.63,22.63,0,0,0-3,.41L73,90.85c1.52.06,1.71.06,3.89.06,0-2.12-.1-4.82-.13-5.35a4.9,4.9,0,0,0-.36-1.45l2.7.61c.17,0,.33.12.33.24s-.36.46-.85.84c.06,2.78,0,4.27,0,5.08l2.31-.06.69-.75c.13-.15.23-.27.43-.27a.69.69,0,0,1,.43.18l1.19.84c.16.12.39.29.39.41C84,91.55,83.43,91.75,83.1,91.9Z" transform="translate(-4.5 -4.5)"/><path class="cls-1" d="M114,103.89a13.33,13.33,0,0,1-2.28-1.11,25.19,25.19,0,0,0-8.54-1.59c-2.78,0-5.12.87-5.12,3.22,0,3.4,6.37,3.43,7.75,3.43.53,0,3-.15,3.47-.15.73,0,1.72.23,1.72.93,0,.44,0,.87-3.34.87a26.28,26.28,0,0,1-6.37-.75c-1.78-.47-4.42-1.48-4.42-4.13,0-4.24,5.55-4.24,6.93-4.24a42.17,42.17,0,0,1,6.93.7c.2,0,1.06.2,1.19.2s.27,0,.27-.2a1,1,0,0,0-.27-.52c-.92-1.16-2.44-3.11-3.79-5A29.1,29.1,0,0,1,100.36,97c-1.55,0-3.4-.9-3.86-2.06a7.8,7.8,0,0,0,3.56.85,29.25,29.25,0,0,0,7.33-1.34c-.56-.87-1.26-2-2.35-4.09a25.85,25.85,0,0,1-4.65.9,5.61,5.61,0,0,1-3.6-1.69,9.51,9.51,0,0,0,2.87.52,19.35,19.35,0,0,0,4.79-.87c-.26-.52-1.32-2.9-1.62-3.34-.43-.66-1.48-.87-3.17-.81a3.1,3.1,0,0,1,2.55-1.1c1,0,2.54.37,2.64,1.07.06.41.19,1.69.26,2a13.32,13.32,0,0,0,.63,1.8,20,20,0,0,0,2-.93A5.62,5.62,0,0,1,110,87c.5,0,1.16.29,1.16.72s-.27.53-1,.84A31.32,31.32,0,0,1,106.26,90a24.12,24.12,0,0,0,2.32,4,22,22,0,0,0,3.06-1.42c.9-.49,1-.52,1.56-.52.82,0,1.35.35,1.35.64s-.53.64-1,.81-2.54,1-4.19,1.6a36.79,36.79,0,0,0,4.09,4.64c.43.41,1.48,1.51,1.48,2S114.68,103.89,114,103.89Z" transform="translate(-4.5 -4.5)"/><path class="cls-1" d="M138.7,86.93c0-1.05-.79-1.37-1.75-1.8a2.16,2.16,0,0,1,1-.23c2.58,0,3.11,1.65,3.11,2.2a2.6,2.6,0,0,1-.53.9,17.39,17.39,0,0,0-1.42,2.76,19.87,19.87,0,0,0,3-1.22,5,5,0,0,1,1.81-.66c.4,0,1.09.23,1.09.75,0,.17,0,.35-.69.67a28.3,28.3,0,0,1-5.81,1.89c-.06.17-.13.31-.33.78a151.35,151.35,0,0,1-6.73,14.46.92.92,0,0,1-.89.52c-.6,0-.86-.75-.86-1.25s.07-.58,1.06-1.85c1.38-1.78,1.91-3,6-11.85a3.42,3.42,0,0,1,.2-.47,27.28,27.28,0,0,1-4.49.53,4.08,4.08,0,0,1-3.2-1.54,14.44,14.44,0,0,0,3.37.38,21.36,21.36,0,0,0,4.85-.64A20.76,20.76,0,0,0,138.7,86.93Zm9.8,19.51a27.25,27.25,0,0,0,3.7-.23,8.62,8.62,0,0,1,1.09-.12c1,0,1.59.61,1.59,1.14,0,.35-.34.52-.67.58a23.71,23.71,0,0,1-3.69.23c-2,0-5.38-.12-7.23-1a3.69,3.69,0,0,1-2.38-3.1,3.73,3.73,0,0,1,.63-2C141.74,104.56,142.14,106.44,148.5,106.44Zm-.39-9.78c2.08-1.54,2.77-2,2.77-2.41,0-.58-1.52-.84-3-.84-1,0-1.85.08-2.47.11A8.85,8.85,0,0,1,150,92.36c3.34,0,5,1.36,5,2.32,0,.41-.3.55-.76.55l-1.06,0a15.66,15.66,0,0,0-4.88,1.62Z" transform="translate(-4.5 -4.5)"/><path class="cls-1" d="M172.26,99.07a3,3,0,0,1-1.09-1.83c0-.67.3-1,1.16-1.89,5.71-5.46,7.69-7.35,8.32-8.3a1.37,1.37,0,0,0,.29-.82c0-.46-.13-.61-1.28-2a5.81,5.81,0,0,1,2,.49,3.09,3.09,0,0,1,1.55,2.38c0,.44-.13.53-.82,1-1.45,1-6.8,5.75-9,7.84-.59.61-.62,1-.62,1.19,0,.7.56,1.16,2.27,2.61,1.36,1.14,2.71,2.27,4.1,3.4s4.92,4.21,4.92,5.4c0,.47-.43,1.51-1.16,1.51-.56,0-.76-.35-1.19-1.16a26.8,26.8,0,0,0-4.85-5.78Z" transform="translate(-4.5 -4.5)"/><path class="cls-1" d="M211.93,86.55c0-.35-.46-1-2-1.3a1.52,1.52,0,0,1,1.25-.47A4.77,4.77,0,0,1,214.11,86c.3.26.39.41.39.7s-.09.29-.75,1.07a13.34,13.34,0,0,0-1.56,2.15,24.14,24.14,0,0,0,2.94-1,4.28,4.28,0,0,1,1.62-.49c.33,0,1.75.29,1.75.75s-.63.59-.7.61a57,57,0,0,1-6.5,1.51c-.72,1.19-4.06,7.35-4.39,7.84s-2.31,3.58-2.5,3.72a.8.8,0,0,1-.57.23c-.19,0-.62-.11-.62-.9s.26-1.1.95-1.85a39.82,39.82,0,0,0,3.9-5.87c.56-1,1.22-2.18,1.58-2.82a14.79,14.79,0,0,1-3.36.47c-2.94,0-3.24-1.83-3.3-2.3a4,4,0,0,0,2.9,1.08,26.51,26.51,0,0,0,4.46-.55A30,30,0,0,0,211.93,86.55Zm8.55,5.69c3.76,0,6.6,2.85,6.6,4.13a.61.61,0,0,1-.66.58,3.07,3.07,0,0,1-.83-.23,4.33,4.33,0,0,0-2.54-.64,6.73,6.73,0,0,0-4,1.07,2.35,2.35,0,0,0-.66,1.89c0,.78.4,3.66.53,4.47,3.17.64,6.24,1.95,6.24,3.43a.74.74,0,0,1-.73.81,1.69,1.69,0,0,1-.72-.26c-2.78-1.74-3.21-2-4.69-2.44-.1,3.8-4.46,4-5.25,4-2.47,0-4.72-1.19-4.72-2.85,0-1.94,2.87-3.08,6-3.08a18.37,18.37,0,0,1,2,.12c-.16-2.35-.16-2.61-.16-3.22,0-3,2.08-3.9,5.67-4.77.27-.05.66-.14.66-.55s-.79-.81-1.25-1.07a14.87,14.87,0,0,0-3.3-1.19A6.79,6.79,0,0,1,220.48,92.24Zm-5.58,12.08c-1.25,0-4.55.35-4.55,1.92,0,1.19,2,1.42,3,1.42s4.06-.35,3.92-3A9.37,9.37,0,0,0,214.9,104.32Z" transform="translate(-4.5 -4.5)"/><path class="cls-1" d="M250.77,95.41c-.46.81-4,7.14-4.09,7.43a3.22,3.22,0,0,0-.23,1.08c0,.2.23,1.13.23,1.33s-.23.64-.83.64-4.12-.23-5.77-6.33c-.3-1-.3-1.54-.66-6-.2-2.35-.3-3.08-1.59-4.85,1.75.06,3.67,1.72,3.67,3a4.18,4.18,0,0,1-.2,1.25,12,12,0,0,0-.23,2.47c0,1.63.43,5.72,2.47,7.14a1.56,1.56,0,0,0,.73.32,1,1,0,0,0,.79-.43c2.44-3.37,2.71-3.69,5.08-6.74,0-.06.2-.29.3-.41ZM258.26,99l3-.41c.26,0,.86-.14.86-.72a9.45,9.45,0,0,0-6.11-6.88,3.42,3.42,0,0,1,1-.18,6,6,0,0,1,3.76,1.8c2.51,2.5,3.56,5.49,3.56,6.86,0,.87-.43,1.74-.92,1.74-.23,0-.33-.06-1.16-.67-1.12-.84-1.85-1-4.06-1.34Z" transform="translate(-4.5 -4.5)"/><path class="cls-1" d="M277.9,107.11a1.54,1.54,0,0,1,1.68-1.45,1.48,1.48,0,1,1-1.68,1.45Zm1.18-7.49c0-1.51-.69-9.87-.89-11.41a3.94,3.94,0,0,1-.06-.58,1.37,1.37,0,0,1,1.45-1.31A1.39,1.39,0,0,1,281,87.63a3.23,3.23,0,0,1-.06.58c-.23,1.54-.89,9.84-.89,11.41v4.76h-1Z" transform="translate(-4.5 -4.5)"/><path class="cls-1" d="M293.11,107.11a1.55,1.55,0,0,1,1.68-1.45,1.48,1.48,0,1,1-1.68,1.45Zm1.19-7.49c0-1.51-.69-9.87-.89-11.41a3,3,0,0,1-.07-.58,1.37,1.37,0,0,1,1.45-1.31,1.39,1.39,0,0,1,1.46,1.31,3.18,3.18,0,0,1-.07.58c-.23,1.54-.89,9.84-.89,11.41v4.76h-1Z" transform="translate(-4.5 -4.5)"/><path class="cls-1" d="M51.35,139.57a.88.88,0,0,1-1-.81c0-.44.17-.64.86-1.51a7.83,7.83,0,0,0,1.75-4h.3a15.86,15.86,0,0,1,.2,2.56C53.5,139,52,139.57,51.35,139.57ZM58,128.62c0,1.11,0,1.8,0,3.69,0,1,.13,14.17.33,18,0,.44.07,1.19.07,1.31a1.38,1.38,0,0,1-1.45,1.54c-.8,0-.83-.58-.83-1s.17-2.79.2-3.31c.16-4.18.2-9.14.2-9.35,0-.69-.17-10.39-.23-11.18s-.17-1.42-.27-2l2.64.72c.46.12.6.24.6.41C59.21,127.84,58.64,128.22,58,128.62Zm3.7,8.22a1.19,1.19,0,0,1-1-.93c-.57-1.68-.67-2.06-1.66-2.93l.2-.18c1.82.67,3.44,2,3.44,3.11A.88.88,0,0,1,61.68,136.84ZM80.2,132H68.28a39.11,39.11,0,0,1-2.84,5.14l.53.35h4a22.9,22.9,0,0,0-.3-4.47l2.51.49c.3.06.53.12.53.38s-.16.38-.92.78a25.35,25.35,0,0,0-.17,2.82h4.33l.82-.61c.3-.2.36-.23.46-.23s.14,0,.37.17l1.25.79c.17.08.36.2.36.37,0,.32-.39.5-1.15.88,0,1,.16,7.2.16,8.47,0,.9,0,2.36-2.47,2.88-.07-1.37-2-1.92-2.91-2.12v-.35a24.05,24.05,0,0,0,2.74.18c.76,0,.89-.35.89-1,0-2.35,0-6.56-.13-8.74H71.58c0,1.19,0,2.67.2,8.94,0,.76.17,4.15.17,4.82a1.27,1.27,0,0,1-1.32,1.31c-.8,0-.8-.5-.8-.76s0-.84,0-1c.13-4.44.09-5.95.06-13.35H65.74c0,1.42.1,8.42.1,9.06,0,.35.07,1.83.07,2.12s0,.58-.6.81a2.44,2.44,0,0,1-.79.17c-.56,0-.56-.49-.56-.72s.23-5.08.26-6.07c0-.76,0-4.1,0-4.76A27,27,0,0,1,60,143.17l-.19-.17a38.11,38.11,0,0,0,6.63-11h-.79a27.28,27.28,0,0,0-4.26.35l-.79-1.25c2.47.18,4.88.21,5.51.21h.6c1.28-3.55,1.25-3.84,1.15-4.88l2.87.9c.17.06.46.14.46.43s-.13.41-1.35.7c-.3.75-.5,1.28-1.19,2.85h8.12l.89-1.17c.3-.37.43-.37.53-.37s.2.05.59.32l1.62,1.16c.17.11.36.26.36.46S80.43,132,80.2,132Z" transform="translate(-4.5 -4.5)"/><path class="cls-1" d="M101.48,138.41c-.46.81-4,7.14-4.09,7.43a3,3,0,0,0-.23,1.08c0,.2.23,1.13.23,1.33s-.23.64-.83.64-4.12-.23-5.77-6.33c-.3-1-.3-1.54-.66-6-.2-2.35-.3-3.08-1.59-4.85,1.75.06,3.67,1.72,3.67,3a4.18,4.18,0,0,1-.2,1.25,12,12,0,0,0-.23,2.47c0,1.63.43,5.72,2.47,7.14a1.56,1.56,0,0,0,.73.32,1,1,0,0,0,.79-.43c2.44-3.37,2.71-3.69,5.08-6.74,0-.06.2-.29.3-.41ZM109,142l3-.41c.26,0,.86-.14.86-.72a9.48,9.48,0,0,0-6.11-6.88,3.28,3.28,0,0,1,1-.18,6,6,0,0,1,3.77,1.8c2.5,2.5,3.56,5.49,3.56,6.86,0,.87-.43,1.74-.92,1.74-.23,0-.33-.06-1.16-.67-1.12-.84-1.85-1-4.06-1.34Z" transform="translate(-4.5 -4.5)"/><path class="cls-1" d="M126.63,150.11a1.54,1.54,0,0,1,1.68-1.45,1.48,1.48,0,1,1-1.68,1.45Zm1.18-7.49c0-1.51-.69-9.87-.89-11.41a3.94,3.94,0,0,1-.06-.58,1.37,1.37,0,0,1,1.45-1.31,1.39,1.39,0,0,1,1.45,1.31,2.49,2.49,0,0,1-.07.58c-.23,1.54-.89,9.84-.89,11.41v4.76h-1Z" transform="translate(-4.5 -4.5)"/><path class="cls-1" d="M163.35,142.62c-.56,0-.59,0-1.78-1.68a13.64,13.64,0,0,0-2.51-2.88v6c0,1.19.17,6.45.17,7.52a1.16,1.16,0,0,1-1.32,1.31c-.73,0-.79-.38-.79-.84,0-1.22.09-3.17.13-4.36,0-2.15.06-4.35.13-8.1a24,24,0,0,1-6.63,4.76l-.14-.23a51.58,51.58,0,0,0,10-11.27h-4.29a29.52,29.52,0,0,0-4.22.35l-.79-1.28c1.85.15,3.66.24,5.48.24h.59c-.23-3.61-.26-4-.73-5.46l3.3.81a.38.38,0,0,1,.33.32c0,.38-.42.61-1.05.9,0,.12,0,.46,0,3.43H161l.82-.67c.4-.32.43-.35.56-.35s.33.12.56.29l1.16.93a.38.38,0,0,1,.17.35c0,.4-.27.49-1.72.67a31.2,31.2,0,0,1-3.47,4.44,21.21,21.21,0,0,1,3.07,1.22c1,.46,2.18,1,2.18,2.41C164.31,141.72,164.21,142.62,163.35,142.62ZM181,151.19H167.31a29,29,0,0,0-4.22.31l-.79-1.24c1.81.14,3.66.23,5.48.23H171c0-1.42,0-7.67,0-8.92v-1.8c0-.11,0-2.46,0-2.67h-1.85a30.16,30.16,0,0,0-4.26.35l-.76-1.25c1.82.12,3.67.21,5.48.21H171c0-1,0-5.58-.07-6.51a7.33,7.33,0,0,0-.72-3.16l3.36.72c.2,0,.63.15.63.41,0,.43-.76.72-1.32,1,0,.32,0,6.5,0,7.58h4l1-1.17c.17-.2.3-.37.47-.37a1.75,1.75,0,0,1,.62.32l1.59,1.16c.19.14.33.26.33.46s-.27.29-.5.29h-7.52c0,4.47,0,8.92,0,13.39h4.22l1.32-1.34c.3-.32.37-.38.5-.38a1.57,1.57,0,0,1,.59.32l1.69,1.34s.29.23.29.44S181.21,151.19,181,151.19Z" transform="translate(-4.5 -4.5)"/><path class="cls-1" d="M215.3,138.61a24.13,24.13,0,0,1-12-10.22c-.23,0-.3,0-.56,0-4.46,5.89-10.83,10.22-15.12,11.73l-.1-.23A42.2,42.2,0,0,0,200,128.65a5,5,0,0,0,1.13-2.15l3.07.82c.23.05.56.2.56.52s-.3.41-.83.46c2,3,7,7.18,14.39,8.37v.23A7.19,7.19,0,0,0,215.3,138.61Zm.16,4.36H202a16.75,16.75,0,0,1-.85,1.45,49.25,49.25,0,0,1-4.49,5.63c3.66-.17,4.19-.23,13.46-1.1a13.18,13.18,0,0,0-3.73-4.12l.2-.18c7.3,3.25,7.76,6.68,7.76,7.14a1.21,1.21,0,0,1-1.26,1.22,1.49,1.49,0,0,1-1.42-1,21,21,0,0,0-1.32-2.64c-11.84,2.23-13.53,2.55-17.09,3-.36.58-.46.66-.66.66s-.3-.11-.43-.4L190.84,150a15.65,15.65,0,0,0,2.44.17c.89,0,2.18,0,2.88-.06a65,65,0,0,0,2.9-7.11h-4.52a30.56,30.56,0,0,0-4.23.32l-.79-1.25c1.72.14,3.76.23,5.48.23h16l1.55-1.39c.36-.32.4-.35.49-.35a1.65,1.65,0,0,1,.63.29l1.95,1.39c.13.09.33.23.33.44S215.63,143,215.46,143Zm-7.19-5h-8.12a31.72,31.72,0,0,0-4.26.32l-.76-1.25c2.48.18,4.85.24,5.48.24h3.83l1.35-1.25c.33-.32.4-.35.53-.35a1.59,1.59,0,0,1,.6.29l1.55,1.25c.13.11.29.26.29.43S208.5,138,208.27,138Z" transform="translate(-4.5 -4.5)"/><path class="cls-1" d="M232.88,146.86c3.11,1.86,3.44,2.09,4.29,2.09a1.55,1.55,0,0,0,1.33-.9,18.75,18.75,0,0,0,2.34-9.06c0-1.34,0-3.25-2.25-3.25a11.3,11.3,0,0,0-2.87.46c-2.74,5.93-5.41,11.82-7.59,14.49a.81.81,0,0,1-.69.38c-.46,0-.76-.84-.76-1.25s0-.49,1.15-2.06A61.66,61.66,0,0,0,234,136.67a22.86,22.86,0,0,0-4.85,1.83,2.85,2.85,0,0,1-1.26.49c-.62,0-2.67-.93-2.67-2.73a1.43,1.43,0,0,1,.2-.7c.76,1.16,1.29,1.51,2.14,1.51a5.52,5.52,0,0,0,1.52-.29c1.52-.4,3.7-.9,5.45-1.33.53-1.19,1.68-3.78,1.68-4.82,0-1.34-2.21-1.89-2.54-2a1.91,1.91,0,0,1,1.29-.38c1.25,0,3.69.79,3.69,1.86a1.68,1.68,0,0,1-.36.93,27.33,27.33,0,0,0-2.08,4,9.9,9.9,0,0,1,2.41-.32c3.89,0,3.89,3,3.89,4.59,0,2.81-1,9.49-4.48,11.79a4,4,0,0,1-1.69.61c-.46,0-.49-.12-.79-1.19a14,14,0,0,0-2.74-3.58Zm13.77-5.72a13.73,13.73,0,0,0,3.46-.52c.43-.15.83-.44.83-.88S249,136.52,244.5,134c2.91-.06,9,3.86,9,7.49,0,.49-.07,1.27-.66,1.27a11.9,11.9,0,0,1-1.42-.61c-.73-.23-4.09-.69-4.75-.81Zm0-10.14c1.56,0,5.35.93,5.35,2.59a.7.7,0,0,1-.69.72c-.33,0-1.32-.9-1.55-1a17.77,17.77,0,0,0-4.29-2.09A3.18,3.18,0,0,1,246.61,131Zm3.37-2.23c1.49,0,5.12.43,5.12,2.5,0,.31-.14.63-.5.63s-1.52-1-1.78-1.19a16.81,16.81,0,0,0-4.59-1.77A9.43,9.43,0,0,1,250,128.77Z" transform="translate(-4.5 -4.5)"/><path class="cls-1" d="M261.43,139.57a.88.88,0,0,1-1-.81c0-.44.17-.64.86-1.51a7.83,7.83,0,0,0,1.75-4h.3a17.34,17.34,0,0,1,.19,2.56C263.57,139,262.09,139.57,261.43,139.57Zm6.63-10.95c0,1.11,0,1.8,0,3.69,0,1,.13,14.17.33,18,0,.44.07,1.19.07,1.31a1.38,1.38,0,0,1-1.46,1.54c-.79,0-.82-.58-.82-1s.16-2.79.2-3.31c.16-4.18.19-9.14.19-9.35,0-.69-.16-10.39-.23-11.18s-.16-1.42-.26-2l2.64.72c.46.12.59.24.59.41C269.28,127.84,268.72,128.22,268.06,128.62Zm3.7,8.22a1.2,1.2,0,0,1-1.06-.93c-.56-1.68-.66-2.06-1.65-2.93l.2-.18c1.82.67,3.43,2,3.43,3.11A.87.87,0,0,1,271.76,136.84ZM290.27,132H278.36a39.11,39.11,0,0,1-2.84,5.14l.53.35h4a23.74,23.74,0,0,0-.3-4.47l2.51.49c.3.06.53.12.53.38s-.17.38-.92.78a23,23,0,0,0-.17,2.82H286l.83-.61c.3-.2.36-.23.46-.23s.13,0,.36.17l1.26.79c.16.08.36.2.36.37,0,.32-.39.5-1.15.88,0,1,.16,7.2.16,8.47,0,.9,0,2.36-2.47,2.88-.07-1.37-2-1.92-2.91-2.12v-.35a23.89,23.89,0,0,0,2.74.18c.76,0,.89-.35.89-1,0-2.35,0-6.56-.13-8.74h-4.72c0,1.19,0,2.67.2,8.94,0,.76.16,4.15.16,4.82a1.26,1.26,0,0,1-1.32,1.31c-.79,0-.79-.5-.79-.76s0-.84,0-1c.14-4.44.1-5.95.07-13.35h-4.19c0,1.42.1,8.42.1,9.06,0,.35.06,1.83.06,2.12s0,.58-.59.81a2.44,2.44,0,0,1-.79.17c-.56,0-.56-.49-.56-.72s.23-5.08.26-6.07c0-.76,0-4.1,0-4.76a27,27,0,0,1-4.29,4.41l-.2-.17a37.92,37.92,0,0,0,6.64-11h-.79a27.19,27.19,0,0,0-4.26.35l-.79-1.25c2.47.18,4.88.21,5.51.21h.59c1.29-3.55,1.26-3.84,1.16-4.88l2.87.9c.16.06.46.14.46.43s-.13.41-1.35.7c-.3.75-.5,1.28-1.19,2.85h8.12l.89-1.17c.3-.37.43-.37.53-.37s.2.05.59.32l1.62,1.16c.16.11.36.26.36.46S290.51,132,290.27,132Z" transform="translate(-4.5 -4.5)"/><path class="cls-1" d="M311.56,138.41c-.46.81-4,7.14-4.1,7.43a3.22,3.22,0,0,0-.23,1.08c0,.2.23,1.13.23,1.33s-.23.64-.82.64-4.13-.23-5.78-6.33c-.29-1-.29-1.54-.66-6-.19-2.35-.29-3.08-1.58-4.85,1.75.06,3.66,1.72,3.66,3a4.18,4.18,0,0,1-.2,1.25,12.76,12.76,0,0,0-.23,2.47c0,1.63.43,5.72,2.48,7.14a1.56,1.56,0,0,0,.73.32,1,1,0,0,0,.79-.43c2.44-3.37,2.7-3.69,5.08-6.74a4,4,0,0,1,.3-.41Zm7.49,3.54,3-.41c.26,0,.85-.14.85-.72a9.46,9.46,0,0,0-6.1-6.88,3.28,3.28,0,0,1,1-.18,6,6,0,0,1,3.76,1.8c2.51,2.5,3.57,5.49,3.57,6.86,0,.87-.43,1.74-.93,1.74-.23,0-.33-.06-1.15-.67-1.12-.84-1.85-1-4.06-1.34Z" transform="translate(-4.5 -4.5)"/><path class="cls-1" d="M333.4,150.11a1.7,1.7,0,0,1,3.37,0,1.7,1.7,0,0,1-3.37,0Zm1.19-7.49c0-1.51-.69-9.87-.89-11.41a4,4,0,0,1-.07-.58,1.46,1.46,0,0,1,2.91,0,2.49,2.49,0,0,1-.07.58c-.23,1.54-.89,9.84-.89,11.41v4.76h-1Z" transform="translate(-4.5 -4.5)"/><path class="cls-1" d="M346.64,150.11a1.54,1.54,0,0,1,1.68-1.45,1.48,1.48,0,1,1-1.68,1.45Zm1.18-7.49c0-1.51-.69-9.87-.89-11.41a3.94,3.94,0,0,1-.06-.58,1.37,1.37,0,0,1,1.45-1.31,1.39,1.39,0,0,1,1.45,1.31,3.23,3.23,0,0,1-.06.58c-.24,1.54-.9,9.84-.9,11.41v4.76h-1Z" transform="translate(-4.5 -4.5)"/><g class="cls-2"><polygon class="cls-1" points="0 49 0 0 49 0 49 2 2 2 2 49 0 49"/></g><g class="cls-2"><polygon class="cls-1" points="346 180 346 178 393 178 393 131 395 131 395 180 346 180"/></g></g></g></svg>