<svg xmlns="http://www.w3.org/2000/svg" viewBox="0 0 175.02 34.7"><g id="Layer_2" data-name="Layer 2"><g id="文字要素_スクロール_" data-name="文字要素（スクロール）"><path d="M8.57,23.43v11H3.35V22.06a17.28,17.28,0,0,1-1.8,1.52L0,17A23.23,23.23,0,0,0,7,8.53l4.57,2.05c-.47,1-.9,1.91-1.69,3.28,1.72,0,4.6,0,5.43,0,.76-.75,1-1,1.3-1.36a38.15,38.15,0,0,0-6.44-4.61L13,3.82c.68.35.9.46,1.55.86a27.87,27.87,0,0,0,3-4.68l5.08,1.91a52.44,52.44,0,0,1-4.29,5.58c.79.64,1.15,1,1.55,1.36a84.07,84.07,0,0,0,5.69-7.23l5.11,2.16a105.63,105.63,0,0,1-8.78,10c1.9-.11,4.17-.22,5.57-.33-.43-.75-.61-1-1.58-2.52l4.21-2.16a38.73,38.73,0,0,1,5,8.79l-4,2.12v4.07a21.81,21.81,0,0,1-4.76,4.82,49.76,49.76,0,0,0,8.54,1L33.08,34.7a44.19,44.19,0,0,1-12.13-3,36.34,36.34,0,0,1-10.33,2.77l-1.94-5a33.5,33.5,0,0,0,6.91-1,13.92,13.92,0,0,1-2.52-2.45c-.76.5-1.41.86-2.24,1.37ZM0,6.33A19,19,0,0,0,5.79.18l5,1.48A30.75,30.75,0,0,1,2.09,11.77ZM8.57,22.89a16,16,0,0,0,6.37-4.46c-1.8.07-3.42.07-5,.07l-.36-4.17c-.25.39-.47.75-1,1.51Zm8.2.79a26.19,26.19,0,0,0,4.11,2.88,19.31,19.31,0,0,0,4.39-2.88Zm13.43-4.1c-.47-1.33-.61-1.69-.75-2.09-1.12.08-8.18.62-8.75.65a16,16,0,0,1-.9,1.44Z"/><path d="M57.89,31.86C57.42,32.07,55.26,33,53,34L51.7,29.7A42.84,42.84,0,0,0,58,26.92c-1.26-1.26-1.65-1.65-2.37-2.3-.72.65-1.12,1-2,1.73L51.48,23v7.52c0,.9,0,4-2.81,4h-3L44.57,30A15.28,15.28,0,0,1,43.1,34.7L39.17,31c.61-1.15,1.69-3.28,1.69-8.32V8H51.48V22.1A15.72,15.72,0,0,0,55,19.54H52.06V15.69h5.72c.15-.28.29-.64.72-1.69H52.56V10.44H54.4a15.34,15.34,0,0,0-.9-2.2l4.32-.79a23.76,23.76,0,0,1,1.08,3h.54c.21-1,.29-1.59.47-3h1V6.05H52.74V7.38H47.49V6.05H39.86V1.94h7.63V.32h5.25V1.94H61V.32h5.18V1.94h7.63V6.05H66.13V7.74H64.66c-.22,1.19-.4,1.94-.58,2.7H66a18.55,18.55,0,0,0,1.19-3.06l4.61,1c-.15.28-.83,1.76-1,2H73V14H67.14c.29.58.47,1,.83,1.69h5.79v3.85H71a26.56,26.56,0,0,0,3.42,2.52L71.86,26.2c-.72-.54-1-.79-1.62-1.29-.4.43-1.23,1.29-1.88,1.87a23.19,23.19,0,0,0,5.91,3.64l-2.49,4.06A24.09,24.09,0,0,1,65.38,29v2.74c0,1.62-.58,2.77-2.42,2.77H58.43Zm-11-2.24c.61,0,.65-.36.65-.79V25.88H45.08c-.11,1.76-.37,3.17-.44,3.74Zm-1.66-17V15.3h2.31V12.63Zm0,6.59V22h2.31V19.22ZM61,20.3h4.43V24a12.85,12.85,0,0,0,2.08-2.09,25.32,25.32,0,0,1-1.58-2.38H60.23a25,25,0,0,1-1.73,2.2c.65.61,1,.94,2.45,2.34Zm0,4.5-1.66,1.55,1.08,3.53c.26,0,.58,0,.58-.65Zm3.45-9A10.57,10.57,0,0,1,63.87,14h-1c-.14.36-.28.76-.75,1.84Z"/><path d="M91.79,3.53V8.64c-5.87,4.57-6.08,9.93-6.08,11.81,0,5.14,3,6.62,6.55,6.62,4.93,0,7-2.63,7-7.67a36.74,36.74,0,0,0-3.7-15.87l5.14-2c2,5.11,3.93,8.38,10.33,11.12l-2.23,5.87a13.5,13.5,0,0,1-5.11-4,16.62,16.62,0,0,1,.79,5.61c0,6.88-2.52,12.56-11.84,12.56-11.34,0-12.38-8.24-12.38-11.41A18.68,18.68,0,0,1,85,9l-5.08.08V3.53Z"/><path d="M141.78,15.59c-6.3.57-19.8,2.87-19.8,8.17,0,3.09,3.93,3.24,9.22,3.24a104.09,104.09,0,0,0,11.63-.62l0,5.87c-1.94.15-5.15.4-10.08.4-5.72,0-17,0-17-8.57,0-5,4.61-8.28,8.67-10.22a6.55,6.55,0,0,1-1.18-3.21A67.91,67.91,0,0,1,123,2.09h6.16c0,1.29-.07,2.3-.07,4.79,0,3,0,3.92.64,5a67.11,67.11,0,0,1,11.34-2.31Z"/><path d="M158.42,2.66a49.16,49.16,0,0,0-1.54,11c1.15-1.77,1.54-2.41,2-3.06L162.24,13c-.9,1.12-4.75,5.8-5.11,9.61l-5.33.29a61.17,61.17,0,0,1-.61-8.56,57.43,57.43,0,0,1,1.26-12.28Zm16-.36c.4,4.18.65,8.39.65,12.6,0,8.82-1.48,15.41-14.26,18.47L156.44,29c12.1-2.85,12.42-8,12.42-14.11,0-5-.39-9.62-.65-12.57Z"/></g></g></svg>