<?xml version="1.0" encoding="utf-8"?>
<!-- Generator: Adobe Illustrator 26.5.0, SVG Export Plug-In . SVG Version: 6.00 Build 0)  -->
<svg version="1.1" id="レイヤー_1" xmlns="http://www.w3.org/2000/svg" xmlns:xlink="http://www.w3.org/1999/xlink" x="0px"
	 y="0px" viewBox="0 0 144 21.5" style="enable-background:new 0 0 144 21.5;" xml:space="preserve">
<style type="text/css">
	.st0{fill:#FF4637;}
</style>
<g id="Layer_2">
	<g id="文字要素_スクロール_">
		<path class="st0" d="M0.1,21.1C0,21.1,0,21,0,20.9V0.6c0-0.1,0-0.2,0.1-0.3c0.1-0.1,0.2-0.1,0.3-0.1h3.5c0.1,0,0.2,0,0.3,0.1
			c0.1,0.1,0.1,0.2,0.1,0.3v7.6c0,0.1,0,0.1,0.1,0.1s0.1,0,0.1-0.1l3.9-7.7c0.1-0.2,0.2-0.3,0.4-0.3h3.7c0.1,0,0.2,0,0.3,0.1
			c0,0.1,0,0.2,0,0.3L8.2,9.3c0,0.1,0,0.1,0,0.2L13,20.8c0,0.1,0,0.1,0,0.2c0,0.2-0.1,0.2-0.3,0.2H8.9c-0.2,0-0.4-0.1-0.4-0.2
			l-3.1-7.9c0-0.1,0-0.1-0.1-0.1c0,0-0.1,0-0.1,0.1l-0.9,1.6c0,0.1-0.1,0.1-0.1,0.2v6c0,0.1,0,0.2-0.1,0.2c-0.1,0.1-0.2,0.1-0.3,0.1
			H0.4C0.3,21.2,0.2,21.2,0.1,21.1z"/>
		<path class="st0" d="M16.4,21.1c-0.1-0.1-0.1-0.2-0.1-0.2V0.6c0-0.1,0-0.2,0.1-0.3c0.1-0.1,0.2-0.1,0.3-0.1h3.5
			c0.1,0,0.2,0,0.2,0.1c0.1,0.1,0.1,0.2,0.1,0.3v20.3c0,0.1,0,0.2-0.1,0.2c-0.1,0.1-0.2,0.1-0.2,0.1h-3.5
			C16.6,21.2,16.5,21.2,16.4,21.1z"/>
		<path class="st0" d="M36.7,0.3c0.1,0.1,0.1,0.2,0.1,0.3v2.9c0,0.1,0,0.2-0.1,0.2c-0.1,0.1-0.2,0.1-0.2,0.1h-3.8
			c-0.1,0-0.1,0-0.2,0.1c0,0,0,0,0,0v16.9c0,0.1,0,0.2-0.1,0.2c-0.1,0.1-0.2,0.1-0.2,0.1h-3.5c-0.1,0-0.2,0-0.3-0.1
			c-0.1-0.1-0.1-0.2-0.1-0.2V4c0-0.1,0-0.1-0.1-0.2c0,0,0,0,0,0h-3.6c-0.1,0-0.2,0-0.3-0.1c-0.1-0.1-0.1-0.2-0.1-0.2V0.6
			c0-0.1,0-0.2,0.1-0.3c0.1-0.1,0.2-0.1,0.3-0.1h11.9C36.5,0.2,36.6,0.3,36.7,0.3z"/>
		<path class="st0" d="M48.9,20.9L48.4,18c0-0.1-0.1-0.1-0.2-0.1h-3.8c-0.1,0-0.2,0-0.2,0.1l-0.5,2.9c0,0.2-0.2,0.3-0.3,0.3
			c0,0,0,0,0,0h-3.5c-0.3,0-0.4-0.1-0.3-0.4L44,0.6c0-0.2,0.2-0.3,0.4-0.3c0,0,0,0,0,0h4c0.2,0,0.4,0.1,0.4,0.3c0,0,0,0,0,0
			l4.4,20.3V21c0,0.2-0.1,0.3-0.3,0.3h-3.6C49,21.3,48.9,21.1,48.9,20.9C48.9,20.9,48.9,20.9,48.9,20.9z M44.9,14.6h2.7
			c0.1,0,0.1,0,0.1-0.1l-1.4-8.2c0-0.1,0-0.1-0.1-0.1c-0.1,0-0.1,0-0.1,0.1l-1.3,8.2C44.8,14.6,44.9,14.6,44.9,14.6z"/>
		<path class="st0" d="M64.2,21.1c-0.1-0.1-0.1-0.2-0.1-0.2V0.6c0-0.1,0-0.2,0.1-0.3c0.1-0.1,0.2-0.1,0.3-0.1H68
			c0.1,0,0.2,0,0.2,0.1c0.1,0.1,0.1,0.2,0.1,0.3v20.3c0,0.1,0,0.2-0.1,0.2c-0.1,0.1-0.2,0.1-0.2,0.1h-3.6
			C64.3,21.2,64.2,21.2,64.2,21.1z"/>
		<path class="st0" d="M72.7,21.1c-0.1-0.1-0.1-0.2-0.1-0.2V0.6c0-0.1,0-0.2,0.1-0.3c0.1-0.1,0.2-0.1,0.3-0.1h3.5
			c0.1,0,0.2,0,0.2,0.1c0.1,0.1,0.1,0.2,0.1,0.3v7.6c0,0.1,0,0.1,0.1,0.1s0.1,0,0.1-0.1l3.9-7.7c0.1-0.2,0.2-0.3,0.4-0.3H85
			c0.1,0,0.2,0,0.3,0.1c0.1,0.1,0.1,0.2,0,0.3l-4.5,8.6c0,0.1,0,0.1,0,0.2l4.7,11.3c0,0.1,0,0.1,0,0.2c0,0.2-0.1,0.2-0.3,0.2h-3.7
			c-0.2,0-0.4-0.1-0.4-0.3l-3.1-7.9c0-0.1,0-0.1-0.1-0.1c0,0-0.1,0-0.1,0.1l-0.9,1.6c0,0.1-0.1,0.1-0.1,0.2v6c0,0.1,0,0.2-0.1,0.2
			c-0.1,0.1-0.2,0.1-0.2,0.1h-3.5C72.8,21.2,72.7,21.2,72.7,21.1z"/>
		<path class="st0" d="M90.4,19.8c-1.1-1.2-1.7-2.9-1.6-4.5V0.6c0-0.1,0-0.2,0.1-0.3c0.1-0.1,0.2-0.1,0.3-0.1h3.5
			c0.1,0,0.2,0,0.2,0.1C93,0.4,93,0.5,93,0.6v15.1c0,0.6,0.1,1.1,0.5,1.6c0.3,0.4,0.8,0.6,1.3,0.6c0.5,0,0.9-0.2,1.2-0.6
			c0.3-0.5,0.5-1,0.5-1.6V0.6c0-0.1,0-0.2,0.1-0.3c0.1-0.1,0.2-0.1,0.3-0.1h3.5c0.1,0,0.2,0,0.2,0.1c0.1,0.1,0.1,0.2,0.1,0.3v14.7
			c0.1,1.7-0.5,3.3-1.6,4.5c-1.1,1.1-2.7,1.8-4.3,1.7C93.1,21.5,91.6,20.9,90.4,19.8z"/>
		<path class="st0" d="M108.6,21.1c-0.1-0.1-0.1-0.2-0.1-0.3v-7.8v-0.2l-4.2-12.2c0,0,0-0.1,0-0.2c0-0.2,0.1-0.3,0.3-0.3h3.7
			c0.2,0,0.4,0.1,0.4,0.3l1.9,7.2c0,0.1,0,0.1,0.1,0.1c0.1,0,0.1,0,0.1-0.1l1.8-7.2c0-0.2,0.2-0.3,0.4-0.3h3.7c0.1,0,0.2,0,0.3,0.1
			c0.1,0.1,0.1,0.2,0,0.3l-4.2,12.2v0.2v7.8c0,0.1,0,0.2-0.1,0.3c-0.1,0.1-0.2,0.1-0.2,0.1h-3.5C108.8,21.2,108.7,21.2,108.6,21.1z"
			/>
		<path class="st0" d="M122,19.9c-1.1-1.1-1.7-2.7-1.7-4.3V5.9c-0.1-1.6,0.5-3.2,1.7-4.3c2.5-2.2,6.3-2.2,8.8,0
			c1.1,1.1,1.7,2.7,1.7,4.3v9.6c0.1,1.6-0.5,3.2-1.7,4.3C128.3,22,124.5,22,122,19.9z M127.8,17.3c0.4-0.4,0.5-1,0.5-1.5v-10
			c0-0.6-0.2-1.1-0.5-1.6c-0.3-0.4-0.8-0.6-1.3-0.6c-0.5,0-1,0.2-1.3,0.6c-0.3,0.4-0.5,1-0.5,1.6v10c0,0.6,0.1,1.1,0.5,1.5
			c0.3,0.4,0.8,0.6,1.3,0.6C126.9,17.9,127.4,17.7,127.8,17.3L127.8,17.3z"/>
	</g>
</g>
</svg>
