<svg xmlns="http://www.w3.org/2000/svg" viewBox="0 0 316.06 60.56"><defs><style>.cls-1{fill:#f1f1f1;}.cls-2{fill:none;stroke:#f1f1f1;stroke-miterlimit:10;stroke-width:0.8px;}.cls-3{fill:#ff4637;}</style></defs><g id="Layer_2" data-name="Layer 2"><g id="文字要素_スクロール_" data-name="文字要素（スクロール）"><path class="cls-1" d="M15.72,20.08a3.79,3.79,0,0,1-.69.43,3.6,3.6,0,0,1-.82.28,5.06,5.06,0,0,1-1,.09,3.85,3.85,0,0,1-1.56-.31,3.68,3.68,0,0,1-1.24-.84,3.76,3.76,0,0,1-.82-1.26,4.31,4.31,0,0,1,0-3.11,3.7,3.7,0,0,1,.82-1.27,3.93,3.93,0,0,1,1.25-.86,4,4,0,0,1,1.61-.31,4.75,4.75,0,0,1,1,.09,4.68,4.68,0,0,1,.8.24,4.84,4.84,0,0,1,.67.38,5.37,5.37,0,0,1,.58.49l-.87,1a4,4,0,0,0-1-.69,2.46,2.46,0,0,0-1.17-.27,2.31,2.31,0,0,0-1,.22,2.46,2.46,0,0,0-.81.58,2.59,2.59,0,0,0-.53.86,3.11,3.11,0,0,0,0,2.14,2.69,2.69,0,0,0,.53.88,2.46,2.46,0,0,0,.81.58,2.31,2.31,0,0,0,1,.22,2.57,2.57,0,0,0,1.21-.27,4.88,4.88,0,0,0,1-.73l.87.88A4.68,4.68,0,0,1,15.72,20.08Z"/><path class="cls-1" d="M23.78,13.05h1.46L22,20.81H20.86l-3.21-7.76h1.5L21.47,19Z"/><path class="cls-1" d="M46.54,24.81c.21,0,2.73-.21,3.2-.26v-7h-3.2V15.22h3.2V3.91H68.93V6.3H52.65V7.91H68v2H52.65v1.61H68v2H52.65v1.64H70.77v2.31H68l1.43,1.25A38,38,0,0,1,64,22.32a23.77,23.77,0,0,0,7.36,2.44L70.1,27.62C66,26.45,58.63,23.9,55.64,17.53h-3v6.81a50,50,0,0,0,6.94-.91v2.45a105.73,105.73,0,0,1-12.4,1.48Zm11.83-7.28a8.67,8.67,0,0,0,3.28,3.36,42.48,42.48,0,0,0,4.81-3.36Z"/><path class="cls-1" d="M76.41,15.24a22.65,22.65,0,0,0,10.9-7.33h2.91c3.33,3.95,6.22,5.46,11,7.13l-1.46,2.52c-1.07-.39-1.46-.55-2.13-.83v10.4H80V16.88a18.82,18.82,0,0,1-1.9.86Zm.11-7.12A19.14,19.14,0,0,0,84,3.23L85.9,5a23.57,23.57,0,0,1-7.8,5.52Zm20.1,8.14a19.53,19.53,0,0,1-7.83-6.14,26.59,26.59,0,0,1-7.64,6.14ZM95,18.7H82.68v5.93H95ZM93.34,3.1A21,21,0,0,0,101,7.76l-1.35,2.49a20.29,20.29,0,0,1-8.35-5.46Z"/><path class="cls-1" d="M109.38,3.15h2.81V13.32a31.64,31.64,0,0,1-.57,7.77,14,14,0,0,1-3.1,6.63l-2.08-2.18c2.6-4.06,2.94-6.86,2.94-12.25Zm8.53.86h2.84V25.75h-2.84Zm9-.86h2.81V27.67h-2.81Z"/><path class="cls-1" d="M158.21,13.06a16.54,16.54,0,0,0-2.42-2c-4.23.42-13.23,1-17.94,1l-.21-2.44,5.18,0c.68-1,1.14-1.8,1.38-2.21h-7.28V5h11V3.15h2.63V5h10.86v2.4h-6.52a31,31,0,0,1,5.48,3.82ZM158.32,25a2.38,2.38,0,0,1-2.6,2.66h-4.4l-.6-2.66h4.16c.65,0,.78,0,.78-.65V22.91h-13v4.74H140V13.27h18.34Zm-2.66-9.62h-13V17h13Zm0,3.72h-13v1.72h13ZM153.58,7.42h-6.24c-.75,1.17-.83,1.3-1.45,2.13.91,0,6.08-.21,7-.26-.31-.21-.44-.26-1.4-.81Z"/><path class="cls-1" d="M177.48,18.05a7.79,7.79,0,0,0,.36-2H167.31V13.68h10.61V11.94H169V9.68h8.92V8.09H168V5.75h5.72c-.21-.52-.73-1.53-1.07-2.18L175.45,3a14.25,14.25,0,0,1,1.12,2.73h5.64A21,21,0,0,0,183.3,3l3,.37a18.94,18.94,0,0,1-1.09,2.36h5.36V8.09h-10V9.68h9v2.26h-9v1.74h10.74V16H180.49a7.7,7.7,0,0,1-.36,2h10.68v2.37h-8.73c1.61,2,3.95,3.46,9.51,4.34l-1.4,2.6c-5.07-.91-9.18-3.25-10.87-6.94h-.1c-.89,1.69-3.62,5.95-10.64,6.91l-1.35-2.52c4.94-.49,7.8-2.44,9.13-4.39h-8.63V18.05Z"/><circle class="cls-2" cx="16.66" cy="16.4" r="16"/><path class="cls-1" d="M1.71,48.5v9.8H0V48.5Z"/><path class="cls-1" d="M11.78,58.29h-2L7.59,55.1l-1,1.08v2.11H4.85V48.07H6.55v6.11L9.62,50.9h2.06l-2.94,3Z"/><path class="cls-1" d="M18.54,50.89h1.71v7.39H18.54V57.12a3.61,3.61,0,0,1-.9.93,2.36,2.36,0,0,1-1.4.39,2.43,2.43,0,0,1-1.94-.77,3,3,0,0,1-.69-2.07V50.9h1.71v4.2a2,2,0,0,0,.41,1.33,1.46,1.46,0,0,0,1.16.47,1.57,1.57,0,0,0,1.19-.49,1.86,1.86,0,0,0,.46-1.35Z"/><path class="cls-1" d="M27,58.49a6.15,6.15,0,0,1-.47,1,2.13,2.13,0,0,1-.53.64,1.85,1.85,0,0,1-.64.36,2.76,2.76,0,0,1-.8.11,3.35,3.35,0,0,1-.94-.12,4.05,4.05,0,0,1-.81-.33l.57-1.27a3,3,0,0,0,.49.2,1.7,1.7,0,0,0,.51.08,1,1,0,0,0,.6-.18,1.68,1.68,0,0,0,.45-.67l-3.09-7.38h1.81l2.1,5.48,1.92-5.49H30Z"/><path class="cls-1" d="M39.29,56.07a4,4,0,0,1-.82,1.23,4,4,0,0,1-1.25.83,3.94,3.94,0,0,1-1.58.31,4.1,4.1,0,0,1-1.57-.3,3.8,3.8,0,0,1-1.24-.83A3.87,3.87,0,0,1,32,56.1a3.74,3.74,0,0,1-.3-1.49A3.8,3.8,0,0,1,32,53.1a3.87,3.87,0,0,1,.83-1.23A4,4,0,0,1,34.08,51a4.08,4.08,0,0,1,1.58-.3,3.85,3.85,0,0,1,1.57.29,4,4,0,0,1,1.25.83,3.91,3.91,0,0,1,.82,1.22,3.78,3.78,0,0,1,.29,1.5A3.62,3.62,0,0,1,39.29,56.07Zm-1.57-2.39a2.27,2.27,0,0,0-.47-.76,2,2,0,0,0-.71-.52,2.27,2.27,0,0,0-1.82,0,2,2,0,0,0-.7.51,2.12,2.12,0,0,0-.45.75,2.73,2.73,0,0,0-.15.92,2.69,2.69,0,0,0,.17.93,2.2,2.2,0,0,0,1.17,1.27,2.11,2.11,0,0,0,.9.19,2.15,2.15,0,0,0,.93-.19,2.26,2.26,0,0,0,.7-.51,2.35,2.35,0,0,0,.44-.75,2.65,2.65,0,0,0,0-1.84Z"/><path class="cls-1" d="M55.78,58.26H53.7l-3.35-4.41-1.53,1.57v2.84h-1.7v-9.8h1.71v4.93l4.66-4.93h2.11l-4.07,4.21Z"/><path class="cls-1" d="M57.79,49.73V48.12h1.83v1.61Zm.08,8.52V50.86h1.71v7.39Z"/><path class="cls-1" d="M64.53,55.94a.94.94,0,0,0,.24.71,1,1,0,0,0,.67.21,2.32,2.32,0,0,0,1-.25V58a3.14,3.14,0,0,1-.68.28,3.63,3.63,0,0,1-.85.09,2.91,2.91,0,0,1-.85-.11,1.69,1.69,0,0,1-.69-.36,1.6,1.6,0,0,1-.44-.67,2.79,2.79,0,0,1-.16-1V52.3h-.94V50.86h.94v-2h1.7v2h2V52.3h-2Z"/><path class="cls-1" d="M73.44,58.24v-.91a3.2,3.2,0,0,1-1,.76A3.11,3.11,0,0,1,71,58.4a3.38,3.38,0,0,1-1-.15,2.62,2.62,0,0,1-.83-.43,2.08,2.08,0,0,1-.57-.71,2.12,2.12,0,0,1-.22-1v0A2.32,2.32,0,0,1,68.63,55a2,2,0,0,1,.62-.74,2.65,2.65,0,0,1,1-.44,4.46,4.46,0,0,1,1.19-.15,6.21,6.21,0,0,1,1.14.08,8.07,8.07,0,0,1,.91.22v-.18A1.47,1.47,0,0,0,73,52.66a2,2,0,0,0-1.35-.41,4.33,4.33,0,0,0-1.13.13,6.12,6.12,0,0,0-1,.34l-.46-1.36a7.29,7.29,0,0,1,1.26-.45,6.27,6.27,0,0,1,1.55-.17,3.27,3.27,0,0,1,2.45.82,3.15,3.15,0,0,1,.8,2.3v4.38Zm0-3.13a3.56,3.56,0,0,0-.77-.21,4.59,4.59,0,0,0-.93-.09,2.18,2.18,0,0,0-1.24.31,1,1,0,0,0-.45.88v0a.91.91,0,0,0,.41.81,1.77,1.77,0,0,0,1,.28,2.35,2.35,0,0,0,.77-.11,1.87,1.87,0,0,0,.63-.32,1.4,1.4,0,0,0,.41-.49,1.33,1.33,0,0,0,.15-.63Z"/><path class="cls-1" d="M89.11,47.06,82.79,60H81.32l6.32-13Z"/><path class="cls-1" d="M103.56,57.37a6.27,6.27,0,0,1-.89.55,4.89,4.89,0,0,1-1,.35,6.13,6.13,0,0,1-1.26.12,5,5,0,0,1-2-.39,4.92,4.92,0,0,1-1.57-1.07,5,5,0,0,1-1-1.6,5.26,5.26,0,0,1-.38-2,5.44,5.44,0,0,1,.37-2,5.13,5.13,0,0,1,1-1.61,4.86,4.86,0,0,1,1.6-1.1,5.23,5.23,0,0,1,2-.4,6.62,6.62,0,0,1,1.23.11,4.79,4.79,0,0,1,1,.32,4.23,4.23,0,0,1,.86.48,6.23,6.23,0,0,1,.74.62l-1.1,1.27a5.69,5.69,0,0,0-1.25-.88,3.18,3.18,0,0,0-1.5-.33,3,3,0,0,0-1.29.27,3.19,3.19,0,0,0-1,.74,3.25,3.25,0,0,0-.67,1.1,3.78,3.78,0,0,0-.24,1.36,3.91,3.91,0,0,0,.24,1.37,3.47,3.47,0,0,0,.67,1.11,3.19,3.19,0,0,0,1,.74,3,3,0,0,0,1.3.28,3.24,3.24,0,0,0,1.54-.35,6.41,6.41,0,0,0,1.27-.93l1.11,1.12A7.46,7.46,0,0,1,103.56,57.37Z"/><path class="cls-1" d="M113.8,48.41h1.87l-4.07,9.87h-1.51L106,48.42h1.9l3,7.52Z"/><path class="cls-1" d="M124.75,48.4v9.8h-1.71V48.4Z"/><path class="cls-1" d="M134.83,58.19h-2L130.64,55l-1,1.08V58.2h-1.7V48h1.71v6.1l3.06-3.28h2.06l-2.93,3Z"/><path class="cls-1" d="M141.58,50.8h1.71v7.39h-1.7V57a3.83,3.83,0,0,1-.91.93,2.41,2.41,0,0,1-1.4.39,2.49,2.49,0,0,1-1.94-.77,3.05,3.05,0,0,1-.68-2.07V50.8h1.71V55a2,2,0,0,0,.42,1.33,1.41,1.41,0,0,0,1.15.47,1.6,1.6,0,0,0,1.2-.48,1.9,1.9,0,0,0,.45-1.35Z"/><path class="cls-1" d="M153.33,51a2.72,2.72,0,0,1,1.45-.37,2.5,2.5,0,0,1,1.91.74,3,3,0,0,1,.69,2.09v4.72h-1.71V54a2,2,0,0,0-.39-1.34,1.36,1.36,0,0,0-1.11-.46,1.49,1.49,0,0,0-1.13.47A1.92,1.92,0,0,0,152.6,54v4.16h-1.7V54a2,2,0,0,0-.39-1.33,1.36,1.36,0,0,0-1.1-.46,1.47,1.47,0,0,0-1.14.49,2,2,0,0,0-.43,1.36v4.15h-1.71v-7.4h1.71v1.13q.18-.24.39-.48a3.23,3.23,0,0,1,.48-.41,2.45,2.45,0,0,1,.61-.29,2.66,2.66,0,0,1,.77-.1,2.43,2.43,0,0,1,1.35.36,2.36,2.36,0,0,1,.85,1A3.51,3.51,0,0,1,153.33,51Z"/><path class="cls-1" d="M160.14,49.65V48H162v1.61Zm.08,8.53v-7.4h1.71v7.39Z"/><path class="cls-1" d="M171.63,54v4.13h-1.71v-9.8h1.7v4.07h4.7V48.36H178v9.8h-1.71V54Z"/><path class="cls-1" d="M185.59,58.16v-.91a3.35,3.35,0,0,1-1,.75,3,3,0,0,1-1.43.31,3.61,3.61,0,0,1-1-.14,2.59,2.59,0,0,1-.84-.44,2.12,2.12,0,0,1-.79-1.7v0a2.32,2.32,0,0,1,.22-1,2,2,0,0,1,.63-.74,2.88,2.88,0,0,1,1-.44,4.56,4.56,0,0,1,1.19-.15,7.48,7.48,0,0,1,1.15.08,6.59,6.59,0,0,1,.9.23v-.18a1.48,1.48,0,0,0-.47-1.18,2,2,0,0,0-1.35-.4,4.69,4.69,0,0,0-1.12.12,8.43,8.43,0,0,0-1,.34l-.46-1.36a7.29,7.29,0,0,1,1.26-.45,6.33,6.33,0,0,1,1.55-.17,3.25,3.25,0,0,1,2.45.82,3.13,3.13,0,0,1,.8,2.3v4.38Zm0-3.14a5.25,5.25,0,0,0-.77-.21,4.6,4.6,0,0,0-.93-.08,2.13,2.13,0,0,0-1.24.31,1,1,0,0,0-.45.88v0a.94.94,0,0,0,.41.81,1.85,1.85,0,0,0,1,.28,2.45,2.45,0,0,0,.78-.12,2.12,2.12,0,0,0,.62-.31,1.47,1.47,0,0,0,.41-.49,1.34,1.34,0,0,0,.15-.64Z"/><path class="cls-1" d="M195.05,57a2,2,0,0,1-.58.72,2.72,2.72,0,0,1-.87.43,3.81,3.81,0,0,1-1.08.15A4.93,4.93,0,0,1,190.9,58a5.1,5.1,0,0,1-1.52-.82l.76-1.15a5.13,5.13,0,0,0,1.22.68,3.58,3.58,0,0,0,1.2.23,1.48,1.48,0,0,0,.85-.22.69.69,0,0,0,.3-.58v0a.52.52,0,0,0-.14-.36,1.15,1.15,0,0,0-.36-.28,3.25,3.25,0,0,0-.53-.21l-.63-.19-.82-.27a3.49,3.49,0,0,1-.74-.4,2.2,2.2,0,0,1-.54-.6,1.75,1.75,0,0,1-.21-.89v0a2.05,2.05,0,0,1,.76-1.65,2.43,2.43,0,0,1,.84-.45,3.22,3.22,0,0,1,1-.16,4.74,4.74,0,0,1,1.42.23,4.85,4.85,0,0,1,1.3.61l-.67,1.21a5.92,5.92,0,0,0-1.08-.52,3.27,3.27,0,0,0-1-.18,1.21,1.21,0,0,0-.76.21.65.65,0,0,0-.27.53v0a.45.45,0,0,0,.14.34,1.22,1.22,0,0,0,.37.27,3.86,3.86,0,0,0,.53.22l.62.2c.27.09.54.18.82.3a3.06,3.06,0,0,1,.73.41,2,2,0,0,1,.54.59,1.66,1.66,0,0,1,.21.86v0A2.34,2.34,0,0,1,195.05,57Z"/><path class="cls-1" d="M199.7,56.44a2.06,2.06,0,0,0,1.4.49,2.47,2.47,0,0,0,1.09-.23,3.55,3.55,0,0,0,.91-.66l1,.88a4,4,0,0,1-1.26,1,3.72,3.72,0,0,1-1.76.38,3.87,3.87,0,0,1-1.49-.28,3.46,3.46,0,0,1-1.2-.78,3.78,3.78,0,0,1-.81-1.21,4,4,0,0,1-.29-1.58,4.06,4.06,0,0,1,.26-1.49,3.83,3.83,0,0,1,.75-1.23,3.49,3.49,0,0,1,1.14-.83,3.31,3.31,0,0,1,1.45-.31,3.44,3.44,0,0,1,1.55.32,3.16,3.16,0,0,1,1.11.87,3.74,3.74,0,0,1,.66,1.27,5.1,5.1,0,0,1,.23,1.53,1.7,1.7,0,0,1,0,.22,2.32,2.32,0,0,1,0,.24H199A2.21,2.21,0,0,0,199.7,56.44Zm3.05-2.51a3,3,0,0,0-.18-.76,2,2,0,0,0-.38-.62,1.81,1.81,0,0,0-.57-.41,1.65,1.65,0,0,0-.75-.16,1.7,1.7,0,0,0-1.29.54,2.41,2.41,0,0,0-.62,1.41Z"/><path class="cls-1" d="M213.07,59.49a4.3,4.3,0,0,1-2.94.91,6.13,6.13,0,0,1-3.3-.88l.63-1.27a5.72,5.72,0,0,0,1.23.57,4.47,4.47,0,0,0,1.4.21,2.37,2.37,0,0,0,1.73-.58,2.21,2.21,0,0,0,.61-1.7v-.57a4,4,0,0,1-1.07,1,2.89,2.89,0,0,1-1.53.38,3.56,3.56,0,0,1-1.26-.23,3.1,3.1,0,0,1-1.07-.68,3.41,3.41,0,0,1-.75-1.09,4,4,0,0,1,0-2.94,3.12,3.12,0,0,1,.75-1.09,3.28,3.28,0,0,1,1.07-.69,3.44,3.44,0,0,1,1.26-.24,3,3,0,0,1,1.54.37,4.17,4.17,0,0,1,1,.9V50.74h1.69v5.88A3.63,3.63,0,0,1,213.07,59.49Zm-.81-6.26a1.9,1.9,0,0,0-.47-.64,1.92,1.92,0,0,0-.69-.41,2.39,2.39,0,0,0-.83-.15,2.23,2.23,0,0,0-.83.15,2,2,0,0,0-.66.41,1.69,1.69,0,0,0-.45.64,2.26,2.26,0,0,0,0,1.67,2.3,2.3,0,0,0,.45.64,1.86,1.86,0,0,0,.67.42,2.25,2.25,0,0,0,.82.15,2.34,2.34,0,0,0,.83-.15,2,2,0,0,0,.69-.42,1.87,1.87,0,0,0,.47-.64,1.84,1.84,0,0,0,.18-.83A2,2,0,0,0,212.26,53.23Z"/><path class="cls-1" d="M221.44,58.13v-.91a3.2,3.2,0,0,1-1,.76,3.15,3.15,0,0,1-1.43.3,3.33,3.33,0,0,1-1-.14,2.36,2.36,0,0,1-.83-.44,2.13,2.13,0,0,1-.58-.71,2.33,2.33,0,0,1-.22-1v0a2.26,2.26,0,0,1,.23-1,2,2,0,0,1,.62-.75,3,3,0,0,1,1-.44,4.59,4.59,0,0,1,1.2-.15,6.12,6.12,0,0,1,1.14.09,6.57,6.57,0,0,1,.9.22v-.18a1.45,1.45,0,0,0-.47-1.18,2,2,0,0,0-1.35-.4,4.75,4.75,0,0,0-1.12.12,7.73,7.73,0,0,0-1,.34l-.46-1.36a8.84,8.84,0,0,1,1.25-.45,6.4,6.4,0,0,1,1.56-.16,3.26,3.26,0,0,1,2.45.81,3.19,3.19,0,0,1,.8,2.31v4.38Zm0-3.14a5.09,5.09,0,0,0-.76-.21,5.64,5.64,0,0,0-.93-.08,2.16,2.16,0,0,0-1.25.31,1,1,0,0,0-.45.88v0a.94.94,0,0,0,.42.81,1.72,1.72,0,0,0,1,.28,2.77,2.77,0,0,0,.78-.11,1.91,1.91,0,0,0,.62-.32,1.41,1.41,0,0,0,.42-.49,1.47,1.47,0,0,0,.14-.64Z"/><path class="cls-1" d="M233.17,55.79l1.51-5.06h1.69L234,58.17h-1.51l-1.66-5.06-1.66,5.06h-1.51l-2.4-7.45H227l1.49,5.07,1.63-5.1h1.45Z"/><path class="cls-1" d="M243.11,58.11V57.2a3.2,3.2,0,0,1-1,.76,3.14,3.14,0,0,1-1.43.31,3.33,3.33,0,0,1-1-.15,2.52,2.52,0,0,1-.83-.43,2.17,2.17,0,0,1-.58-.72,2.32,2.32,0,0,1-.22-1v0a2.32,2.32,0,0,1,.23-1.05,2,2,0,0,1,.62-.74,2.79,2.79,0,0,1,.95-.45,5.06,5.06,0,0,1,1.2-.14,7.25,7.25,0,0,1,1.14.08,8.45,8.45,0,0,1,.9.22V53.7a1.44,1.44,0,0,0-.47-1.17,2,2,0,0,0-1.35-.41,4.25,4.25,0,0,0-1.12.13,7.18,7.18,0,0,0-1,.33l-.46-1.35a7.29,7.29,0,0,1,1.26-.45,6.27,6.27,0,0,1,1.55-.17,3.27,3.27,0,0,1,2.45.82,3.15,3.15,0,0,1,.8,2.3v4.38Zm0-3.13a3.46,3.46,0,0,0-.76-.21,4.59,4.59,0,0,0-.93-.09,2.24,2.24,0,0,0-1.25.31,1,1,0,0,0-.44.88v0a.89.89,0,0,0,.41.81,1.72,1.72,0,0,0,1,.28,2.77,2.77,0,0,0,.78-.11,1.9,1.9,0,0,0,.62-.31,1.37,1.37,0,0,0,.56-1.13Z"/><path class="cls-3" d="M247.87,14.3a8.71,8.71,0,0,1-1.36.7,8.44,8.44,0,0,1-1.57.47,9.14,9.14,0,0,1-1.76.17,7.68,7.68,0,0,1-3-.55,6.65,6.65,0,0,1-3.76-3.81,7.65,7.65,0,0,1-.52-2.86,7.3,7.3,0,0,1,.53-2.8,7,7,0,0,1,1.49-2.31,7.15,7.15,0,0,1,5.2-2.15,9.52,9.52,0,0,1,1.67.13,8.06,8.06,0,0,1,1.39.37,7.52,7.52,0,0,1,1.21.59,8.25,8.25,0,0,1,1.11.81L247,4.92a9.29,9.29,0,0,0-.82-.62,5.33,5.33,0,0,0-.88-.47,5.17,5.17,0,0,0-1-.3A6.47,6.47,0,0,0,243,3.42a4.15,4.15,0,0,0-1.79.39,4.37,4.37,0,0,0-1.44,1.07,5,5,0,0,0-1,1.59,5.12,5.12,0,0,0-.35,1.92,5.64,5.64,0,0,0,.34,2A4.49,4.49,0,0,0,241.31,13a4.88,4.88,0,0,0,1.95.38,6,6,0,0,0,1.87-.29,5.25,5.25,0,0,0,1.51-.78V9.72h-3.58V7.58h6v5.88A11.77,11.77,0,0,1,247.87,14.3Z"/><path class="cls-3" d="M259.86,4.84h2.44V15.4h-2.44V13.74a5.47,5.47,0,0,1-1.3,1.33,3.34,3.34,0,0,1-2,.55,3.55,3.55,0,0,1-2.78-1.1,4.29,4.29,0,0,1-1-3V4.84h2.44v6a2.79,2.79,0,0,0,.58,1.9,2.07,2.07,0,0,0,1.66.67,2.22,2.22,0,0,0,1.7-.69,2.66,2.66,0,0,0,.66-1.92Z"/><path class="cls-3" d="M266.38,3.22V.92H269v2.3Zm.1,12.18V4.84h2.44V15.4Z"/><path class="cls-3" d="M276,12.1a1.31,1.31,0,0,0,.34,1,1.34,1.34,0,0,0,1,.31,3.31,3.31,0,0,0,1.5-.36v2a4.39,4.39,0,0,1-1,.4,4.82,4.82,0,0,1-1.2.14,4.41,4.41,0,0,1-1.23-.16,2.64,2.64,0,0,1-1-.52,2.4,2.4,0,0,1-.63-1,4.24,4.24,0,0,1-.22-1.48V6.9h-1.34V4.84h1.34V1.94H276v2.9h2.84V6.9H276Z"/><path class="cls-3" d="M288.72,15.4V14.1a4.29,4.29,0,0,1-3.42,1.52,4.82,4.82,0,0,1-1.44-.21,3.54,3.54,0,0,1-1.19-.62,2.94,2.94,0,0,1-.82-1,3,3,0,0,1-.31-1.41v0a3.25,3.25,0,0,1,.32-1.5,2.86,2.86,0,0,1,.89-1.06,4,4,0,0,1,1.36-.63,6.57,6.57,0,0,1,1.71-.21,9.45,9.45,0,0,1,1.63.12,11,11,0,0,1,1.29.32V9.1a2.13,2.13,0,0,0-.67-1.68,2.85,2.85,0,0,0-1.93-.58,6.41,6.41,0,0,0-1.6.18,10.33,10.33,0,0,0-1.42.48l-.66-1.94a10.42,10.42,0,0,1,1.8-.64,8.86,8.86,0,0,1,2.22-.24A4.7,4.7,0,0,1,290,5.85a4.52,4.52,0,0,1,1.14,3.29V15.4Zm.06-4.48a6.28,6.28,0,0,0-1.09-.3,7.15,7.15,0,0,0-1.33-.12,3.12,3.12,0,0,0-1.78.44,1.42,1.42,0,0,0-.64,1.26v0a1.3,1.3,0,0,0,.59,1.16,2.48,2.48,0,0,0,1.45.4,3.59,3.59,0,0,0,1.11-.16,3.1,3.1,0,0,0,.89-.45,2.08,2.08,0,0,0,.59-.7,2,2,0,0,0,.21-.91Z"/><path class="cls-3" d="M297.44,15.4H295V4.84h2.44V7.22a4.57,4.57,0,0,1,1.42-1.92,3.39,3.39,0,0,1,2.32-.66V7.2H301a4,4,0,0,0-1.46.26,3,3,0,0,0-1.14.78,3.48,3.48,0,0,0-.74,1.31,5.7,5.7,0,0,0-.26,1.83Z"/><path class="cls-3" d="M314.24,15.68l-1.86-1.9a7.63,7.63,0,0,1-2,1.33,5.9,5.9,0,0,1-4.15.21,4.21,4.21,0,0,1-1.44-.81,3.77,3.77,0,0,1-1.31-2.93,3.63,3.63,0,0,1,.77-2.35,5.46,5.46,0,0,1,2.21-1.59,6.19,6.19,0,0,1-.88-1.47,3.81,3.81,0,0,1-.28-1.47,3.31,3.31,0,0,1,.28-1.36,3.16,3.16,0,0,1,.8-1.12,3.77,3.77,0,0,1,1.26-.77,4.62,4.62,0,0,1,1.68-.29,4.33,4.33,0,0,1,1.52.26,3.49,3.49,0,0,1,1.17.72,3.41,3.41,0,0,1,.76,1.08,3.31,3.31,0,0,1,.27,1.34,3.14,3.14,0,0,1-.84,2.27A6,6,0,0,1,310,8.22l2.4,2.44c.26-.4.52-.83.78-1.28s.49-.93.72-1.42l1.86,1c-.28.56-.58,1.11-.89,1.65s-.65,1.06-1,1.55l2.2,2.24Zm-6.38-6.54a3.21,3.21,0,0,0-1.42,1,2.15,2.15,0,0,0-.44,1.31,1.89,1.89,0,0,0,.66,1.48,2.44,2.44,0,0,0,1.68.58,3.17,3.17,0,0,0,1.38-.32,4.74,4.74,0,0,0,1.26-.9Zm2.59-5.61a1.77,1.77,0,0,0-2.36,0,1.69,1.69,0,0,0-.45,1.23,2.14,2.14,0,0,0,.24,1,5.5,5.5,0,0,0,.82,1.1A5.17,5.17,0,0,0,310.34,6a1.68,1.68,0,0,0,.56-1.29A1.55,1.55,0,0,0,310.45,3.53Z"/><path class="cls-3" d="M267.38,19.4H270l-5.82,14.1h-2.16l-5.82-14.1H259l4.22,10.76Z"/><path class="cls-3" d="M283.41,30.26a5.49,5.49,0,0,1-3,2.94,5.84,5.84,0,0,1-2.26.44,5.65,5.65,0,0,1-2.23-.43A5.41,5.41,0,0,1,273,30.29a5.55,5.55,0,0,1,1.19-6A5.51,5.51,0,0,1,276,23.06a5.68,5.68,0,0,1,2.25-.44,5.75,5.75,0,0,1,2.25.43,5.59,5.59,0,0,1,1.78,1.18A5.38,5.38,0,0,1,283.42,26a5.6,5.6,0,0,1,0,4.28Zm-2.25-3.42a3.38,3.38,0,0,0-.67-1.09,3,3,0,0,0-2.31-1,3.05,3.05,0,0,0-1.3.27,3,3,0,0,0-1,.73,3,3,0,0,0-.63,1.07,3.75,3.75,0,0,0-.22,1.31,3.91,3.91,0,0,0,.23,1.33,3.44,3.44,0,0,0,.67,1.09,3.19,3.19,0,0,0,1,.73,3.07,3.07,0,0,0,1.29.27,3.11,3.11,0,0,0,1.32-.27,3,3,0,0,0,1-.73,3.21,3.21,0,0,0,.64-1.07,4,4,0,0,0,.22-1.31A3.6,3.6,0,0,0,281.16,26.84Z"/><path class="cls-3" d="M294.74,33.09a5.22,5.22,0,0,1-2.54.55A5.43,5.43,0,0,1,288.28,32a5.55,5.55,0,0,1-1.15-1.74,5.39,5.39,0,0,1-.41-2.13,5.47,5.47,0,0,1,.41-2.14,5.64,5.64,0,0,1,1.15-1.76,5.25,5.25,0,0,1,1.75-1.2,5.46,5.46,0,0,1,2.19-.44,5.55,5.55,0,0,1,2.49.5,5.85,5.85,0,0,1,1.73,1.32l-1.5,1.62a5.77,5.77,0,0,0-1.19-.95,3,3,0,0,0-1.55-.37,2.86,2.86,0,0,0-2.18,1,3.36,3.36,0,0,0-.63,1.07,3.54,3.54,0,0,0-.23,1.31,3.66,3.66,0,0,0,.23,1.34,3.28,3.28,0,0,0,.65,1.08,3,3,0,0,0,1,.73,3.22,3.22,0,0,0,2.79-.1,6,6,0,0,0,1.23-1l1.46,1.44A6.75,6.75,0,0,1,294.74,33.09Z"/><path class="cls-3" d="M306.18,33.4V32.1a4.29,4.29,0,0,1-3.42,1.52,4.82,4.82,0,0,1-1.44-.21,3.54,3.54,0,0,1-1.19-.62,2.94,2.94,0,0,1-.82-1,3,3,0,0,1-.31-1.41v0a3.25,3.25,0,0,1,.32-1.5,2.86,2.86,0,0,1,.89-1.06,4,4,0,0,1,1.36-.63,6.57,6.57,0,0,1,1.71-.21,9.45,9.45,0,0,1,1.63.12,11,11,0,0,1,1.29.32V27.1a2.13,2.13,0,0,0-.67-1.68,2.85,2.85,0,0,0-1.93-.58A6.41,6.41,0,0,0,302,25a10.33,10.33,0,0,0-1.42.48l-.66-1.94a10.42,10.42,0,0,1,1.8-.64,8.86,8.86,0,0,1,2.22-.24,4.7,4.7,0,0,1,3.5,1.17,4.52,4.52,0,0,1,1.14,3.29V33.4Zm.06-4.48a6.28,6.28,0,0,0-1.09-.3,7.15,7.15,0,0,0-1.33-.12,3.12,3.12,0,0,0-1.78.44,1.42,1.42,0,0,0-.64,1.26v0A1.3,1.3,0,0,0,302,31.4a2.48,2.48,0,0,0,1.45.4,3.59,3.59,0,0,0,1.11-.16,3.1,3.1,0,0,0,.89-.45,2.08,2.08,0,0,0,.59-.7,2,2,0,0,0,.21-.91Z"/><path class="cls-3" d="M312.6,33.4V18.8H315V33.4Z"/></g></g></svg>