<svg xmlns="http://www.w3.org/2000/svg" viewBox="0 0 150.79 34.48"><g id="Layer_2" data-name="Layer 2"><g id="文字要素_スクロール_" data-name="文字要素（スクロール）"><path d="M34.12,5.4H19.94V6.7H32V10H2.12V6.7H14.25V5.4H0V1.55H14.25V.14h5.69V1.55H34.12ZM31,18.57H27c-.18.62-.18.69-.5,1.66h7.66v3.92H0V20.23H7.81a17.4,17.4,0,0,0-.57-1.66H3.17V11.12H31Zm.25,15.23H2.84V25.27h28.4Zm-5.47-5.54H8.35v2.26H25.77ZM25.67,14H8.5v1.51H25.67Zm-4.94,6.19a8.62,8.62,0,0,0,.51-1.66H13c.29.65.36.94.62,1.66Z"/><path d="M38.83,6.55C45.46,4.57,47.9,2.7,50.28,0l6.34.4a16.37,16.37,0,0,1-1.08,1.54H66.59V6.37a29.32,29.32,0,0,1-6.3,5.69l4.68.61a13.75,13.75,0,0,1-1.77,2.52h9v4.72c-3.1,5.07-9.44,13.49-30,14.57l-2-5.36A50.49,50.49,0,0,0,54.82,27a22.73,22.73,0,0,0-3.35-3.31,44.49,44.49,0,0,1-7.56,2.56l-2.12-4.65c6.22-1.4,11.33-3.42,16.34-8.13A56.19,56.19,0,0,1,40,19.69L37.9,14.9A42,42,0,0,0,49,12.45a41.34,41.34,0,0,0-3.31-3.16A28.77,28.77,0,0,1,41.25,11Zm11.88-.18a6.66,6.66,0,0,1-.86.58,38.27,38.27,0,0,1,4.07,3.42,18.84,18.84,0,0,0,5.68-4Zm7.52,13.39c-1,.72-1.51,1-2.41,1.59a40.55,40.55,0,0,1,4,3.56A20.75,20.75,0,0,0,66,19.76Z"/><path d="M76.83,16.38a20.77,20.77,0,0,0,4.72-8.1H77.44V3.35h5.37A30,30,0,0,0,83.28.22l5.47.21c-.11.83-.22,1.59-.47,2.92h9V8.28H87.05c-.14.5-.32,1-.72,2.19h9.44V31.21c0,1.19-.11,3.24-2.88,3.24H88.53l-.79-4.83h2.45c.54,0,.68-.1.68-.72V27.07H85.15v7.38H80.32V20.73c-.64.69-.82.87-1.51,1.55ZM85.15,15v2h5.72V15Zm0,6v2.05h5.72V21.06Zm26.2-19.84V6.37a52.41,52.41,0,0,1-2.81,8.06,15.67,15.67,0,0,1,3.39,9.94c0,2.95-1,6.73-4.14,6.73h-3.67l-.8-5.22h1.52c1.58,0,1.62-1.62,1.62-2.34a13,13,0,0,0-3.21-8.35,43.15,43.15,0,0,0,2.88-9H103V34.45H98.14V1.22Z"/><path d="M119.33,18.72a16.72,16.72,0,0,1-2.06,2.12l-1.83-7.27A26,26,0,0,0,121.38.25l5.5.36a56.88,56.88,0,0,1-2.19,8.06V34.38h-5.36ZM133,9.43a86.14,86.14,0,0,1-.43-9.18h5.65c0,1.69.11,4.54.5,8.79L145,8.6a38.89,38.89,0,0,0-5.43-5.25L142.9.11a31,31,0,0,1,6,5.33L145.6,8.53l4.32-.29.29,5L139.38,14c1.79,12.56,4.67,13.78,5.11,13.78.72,0,1.18-1.29,1.36-1.87.15-.43.72-2.37.87-2.91l4.07,3.71c-2.09,7.37-4.65,7.73-6.12,7.73-7.81,0-10.23-14.11-11-20l-7.38.58-.36-5.12Z"/></g></g></svg>