<svg xmlns="http://www.w3.org/2000/svg" viewBox="0 0 395 153"><defs><style>.cls-1{fill:#ff4637;}.cls-2{opacity:0.5;}</style></defs><g id="Layer_2" data-name="Layer 2"><g id="文字要素_スクロール_" data-name="文字要素（スクロール）"><path class="cls-1" d="M44.15,41.17a4.64,4.64,0,0,0,4.09,4.49A18.87,18.87,0,0,0,52,46a24.26,24.26,0,0,0,7.11-.79,4.57,4.57,0,0,1,1-.12c.64,0,1.62.38,1.62.91s-.55.64-1.1.8a34.2,34.2,0,0,1-6.73.53c-6.29,0-10.58-.89-10.58-5a2.82,2.82,0,0,1,1.1-2.63A2.4,2.4,0,0,0,44.15,41.17Zm5.31-6.1c.43-.28,2.46-1.4,2.87-1.65s1-.59,1-.77-.27-.2-.38-.2c-3.89-.51-6.79-1.05-7-3.22,2.44,1.81,6.21,1.89,6.73,1.89,4.47.05,4.52,0,5.54.56.64.33.9.61.9,1,0,.56-.44.56-1.83.58a11.48,11.48,0,0,0-3.45.46c-.67.23-3.57,1.35-4.18,1.58Z" transform="translate(-4.5 -4.5)"/><path class="cls-1" d="M91.66,40.25A13,13,0,0,1,89,45.76,6.79,6.79,0,0,1,84.14,48c-3.1,0-3.39-2.12-3.74-4.62-.26-1.89-.46-3.21-2.17-3.21s-3.31.81-5,2.83c-1.1,1.3-1.34,1.68-2.76,4.69-.26.54-.46,1-1,1-.73,0-.84-1.41-.84-1.56,0-.33.2-.74.81-1.45,1.36-1.61,5.83-9,7.39-11.74a12.93,12.93,0,0,0,1.45-3.21c0-.31-.23-.82-1.19-1.48a2.67,2.67,0,0,1,.64-.1c1.22,0,2.76,1.09,2.76,2.11,0,.51-.23.74-.76,1.25a6.72,6.72,0,0,0-.78,1c-4,5.63-4.41,6.14-5.37,8,2-1.51,3.51-2.12,5-2.12,2.61,0,2.9,1.76,3.33,3.88s.7,3.26,2.58,3.26A5.26,5.26,0,0,0,88,44.92a15.26,15.26,0,0,0,3.4-4.67Z" transform="translate(-4.5 -4.5)"/><path class="cls-1" d="M103.6,29.64c0-.31-.4-.87-1.74-1.15a1.36,1.36,0,0,1,1.1-.41,4.18,4.18,0,0,1,2.56,1.08c.26.23.34.35.34.61s-.08.25-.66.94a11.82,11.82,0,0,0-1.37,1.89,21.19,21.19,0,0,0,2.59-.87,3.75,3.75,0,0,1,1.42-.43c.29,0,1.53.25,1.53.66s-.55.51-.61.54a51.7,51.7,0,0,1-5.71,1.32c-.64,1-3.57,6.46-3.86,6.89s-2,3.14-2.2,3.27a.71.71,0,0,1-.5.2c-.17,0-.55-.1-.55-.79s.24-1,.84-1.63a35.09,35.09,0,0,0,3.43-5.15c.49-.85,1.07-1.92,1.39-2.48a12.72,12.72,0,0,1-3,.41c-2.58,0-2.84-1.61-2.9-2a3.55,3.55,0,0,0,2.55.95,23.21,23.21,0,0,0,3.92-.49A25.65,25.65,0,0,0,103.6,29.64Zm7.51,5c3.31,0,5.81,2.5,5.81,3.62a.54.54,0,0,1-.59.51,2.39,2.39,0,0,1-.72-.2,3.84,3.84,0,0,0-2.23-.56,5.89,5.89,0,0,0-3.48.94,2,2,0,0,0-.58,1.66c0,.69.34,3.22.46,3.93,2.78.56,5.48,1.71,5.48,3a.64.64,0,0,1-.64.71A1.44,1.44,0,0,1,114,48c-2.44-1.54-2.82-1.79-4.12-2.15-.09,3.34-3.92,3.52-4.62,3.52-2.17,0-4.14-1-4.14-2.5,0-1.71,2.52-2.7,5.25-2.7a17.31,17.31,0,0,1,1.8.1C108,42.24,108,42,108,41.48c0-2.63,1.83-3.42,5-4.19.23,0,.58-.12.58-.48s-.7-.71-1.1-.94a13.17,13.17,0,0,0-2.9-1A6.22,6.22,0,0,1,111.11,34.64Zm-4.9,10.61c-1.1,0-4,.31-4,1.69,0,1,1.77,1.25,2.61,1.25s3.57-.31,3.45-2.68A8,8,0,0,0,106.21,45.25Z" transform="translate(-4.5 -4.5)"/><path class="cls-1" d="M128.16,38.85c-.2.77-1.19,4.16-1.39,4.85a11.63,11.63,0,0,0-.61,2.93c0,.28.15,1.76.15,1.79,0,.3-.06.66-.56.66a1.85,1.85,0,0,1-1.21-.87c-1.31-2-1.6-3.9-1.6-6.53a16,16,0,0,1,.2-2.42l.93-5.59a10.36,10.36,0,0,0,.18-1.86,3,3,0,0,0-.9-2.32,3,3,0,0,1,2.9,2.32,8.85,8.85,0,0,1-.47,1.4,28.83,28.83,0,0,0-1.65,8.45c0,2.11.49,3.7.84,3.7.18,0,.32-.39.32-.41.9-2.45,1.36-3.45,2.64-6.23Zm5.57,5.82a15.34,15.34,0,0,0,4.82.71,21.91,21.91,0,0,0,3.07-.23c.23,0,.38,0,.5,0,.49,0,2,.33,2,1s-1,.71-2.79.71c-1.33,0-6.09-.18-7.89-1.07a3.35,3.35,0,0,1-2-3,1.87,1.87,0,0,1,.15-.76C132.14,43.29,132.49,44.16,133.73,44.67ZM135.65,35a22.27,22.27,0,0,0,3-2.35c0-.2-.84-.2-.89-.2a23,23,0,0,0-5.63,1.09,10.72,10.72,0,0,1,6.47-2.24c1.77,0,4.14.43,4.14,1.22,0,.44-.4.51-1.47.69a15.85,15.85,0,0,0-5.46,2Z" transform="translate(-4.5 -4.5)"/><path class="cls-1" d="M157.48,50.84c3.6-2.7,6.73-6,6.73-10.92a6.09,6.09,0,0,0-1.16-4,2.94,2.94,0,0,0-2-.87,7.4,7.4,0,0,0-4.61,2.3c-1,.94-1.57,1.55-2.29,1.55-1.8,0-3-1.55-2.85-2.57.82.56,1.22.86,1.86.86.38,0,.58-.1,2.38-1,2.64-1.33,3.71-1.86,5.6-1.86,4,0,4.78,3.26,4.78,5.33a11.1,11.1,0,0,1-3.71,8.34,17.73,17.73,0,0,1-4.61,3Zm.18-19c1.42-1.23,1.59-1.36,1.59-1.66s-.06-.31-1.48-.95a9,9,0,0,1-2.11-1.45c-.61-.56-.61-.84-.64-1.15a11.78,11.78,0,0,0,5.1,2c1.42.31,3.11,1.07,3.11,2,0,.46-.41.46-.58.46-.32,0-1.63-.18-1.92-.18a7.75,7.75,0,0,0-3,1Z" transform="translate(-4.5 -4.5)"/><path class="cls-1" d="M186.92,30c0-1.07-.23-1.18-2.15-2a2.37,2.37,0,0,1,1.45-.38c1.51,0,2.73.92,2.73,1.53,0,.05-.15.59-.29,1.12a17.6,17.6,0,0,0-.35,1.89A34.56,34.56,0,0,0,192.84,31a3.28,3.28,0,0,1,.72-.15c.52,0,1.57.45,1.57.81s-.38.46-.52.51a35.59,35.59,0,0,1-6.44,1.28c-.09,1.07-.12,2.65-.09,4.08a27.74,27.74,0,0,0,3.83-1,2,2,0,0,1,.52-.12c.52,0,1.51.3,1.51.74s-.35.53-.64.63c-.52.16-3.16.64-5.19,1,.06,1.05.32,4.57.4,5.85,3.31.68,6.18,1.91,6.18,3.16a.67.67,0,0,1-.64.71c-.23,0-.34-.07-1.33-.66a17.91,17.91,0,0,0-4.09-1.68,2.63,2.63,0,0,1-1.13,2.34,7,7,0,0,1-3.54.87c-3,0-4.9-1.27-4.9-2.52,0-.8.61-1.33,1.45-1.76a13.28,13.28,0,0,1,5-.8c.67,0,1.1,0,1.54.06,0-.85-.27-4.6-.29-5.36a36.22,36.22,0,0,1-4.38.3c-1.75,0-2.82-.28-2.82-1.17a1.62,1.62,0,0,1,1.42-1.25,1.26,1.26,0,0,0-.46.79c0,.49.61.56,2.09.56a26.26,26.26,0,0,0,4.12-.36c0-1.4,0-2.14.11-4.18-1.16.1-5,.46-5.86.46s-3-.18-3.83-1.71a10.25,10.25,0,0,0,3.75.64,54.19,54.19,0,0,0,6-.56C186.83,32.06,186.92,30.36,186.92,30Zm-3,15.38c-1.91,0-3.83.44-3.83,1.46,0,.74,1.28,1.32,3.48,1.32,1.22,0,3.8-.3,3.49-2.52A14.3,14.3,0,0,0,183.87,45.38Z" transform="translate(-4.5 -4.5)"/><path class="cls-1" d="M213.11,37.42c-.41.72-3.48,6.28-3.6,6.53a2.74,2.74,0,0,0-.2.95c0,.18.2,1,.2,1.17s-.2.56-.73.56-3.62-.2-5.07-5.56c-.26-.92-.26-1.35-.58-5.31-.18-2.06-.26-2.7-1.4-4.26,1.54.05,3.23,1.51,3.23,2.63a3.61,3.61,0,0,1-.18,1.1,10.94,10.94,0,0,0-.2,2.17c0,1.43.38,5,2.17,6.27a1.42,1.42,0,0,0,.64.28.88.88,0,0,0,.7-.38c2.14-3,2.38-3.24,4.46-5.92,0,0,.18-.25.27-.36Zm6.58,3.12,2.67-.36c.23,0,.75-.13.75-.64a8.31,8.31,0,0,0-5.36-6,3,3,0,0,1,.9-.15,5.22,5.22,0,0,1,3.3,1.58,10.11,10.11,0,0,1,3.14,6c0,.77-.38,1.53-.82,1.53-.2,0-.29,0-1-.58-1-.74-1.63-.85-3.57-1.18Z" transform="translate(-4.5 -4.5)"/><path class="cls-1" d="M235.32,34.23a34.31,34.31,0,0,1-2.58,3.09c.49.18.78.28.78.51s-.52.56-.73.66c0,.74,0,1.89,0,2.27s0,2.91,0,3.45c0,.13.17,5,.17,5.41,0,.84-1,1-1.3,1-.61,0-.64-.41-.64-.56,0-.41.14-3.57.17-4.26,0-1.07.06-1.66.09-7a29.55,29.55,0,0,1-4,3.24l-.15-.17a46.79,46.79,0,0,0,5.74-6.71,7.76,7.76,0,0,0,1.51-3l1.89,1.3a.44.44,0,0,1,.23.33C236.42,34,236.33,34,235.32,34.23Zm.64-5.15c-.09,0-.55.08-.67.08a26.93,26.93,0,0,1-7.63,4.56l-.09-.18a20,20,0,0,0,4.09-3.18c2.44-2.25,2.53-2.63,2.64-3.27l2,1.28c.14.07.29.2.29.35S236.13,29.05,236,29.08ZM251.79,49.8A17.55,17.55,0,0,1,244.63,46a16.57,16.57,0,0,1-9.57,4.26v-.2a20.37,20.37,0,0,0,8.67-4.9,13,13,0,0,1-2.64-3.8,19.33,19.33,0,0,1-5.89,5.18l-.14-.16a28.24,28.24,0,0,0,3.83-4.13,8.82,8.82,0,0,0,2.06-3.9l1.68.81c.38.18.38.31.38.38,0,.31-.38.41-1.16.64l-.32.51h5.13l.67-.58c.2-.18.32-.34.49-.34a1.43,1.43,0,0,1,.58.26l1,.61c.2.13.37.21.37.41,0,.38-.63.56-1.45.82a26,26,0,0,1-3,3.47,15.1,15.1,0,0,0,8.87,2.45V48A3.78,3.78,0,0,0,251.79,49.8Zm0-10.11c-.52,0-.72-.35-1-.94s-.72-1.35-1-1.74c-.72.08-12.21,1.59-12.33,1.59s-.26,0-.37,0-.52.53-.76.53-.23-.15-.29-.35l-.55-1.71a18.92,18.92,0,0,0,2.61.15c1.66,0,2.87-.08,3.43-.1a59.7,59.7,0,0,0,4.87-5,4.28,4.28,0,0,0,1.25-2.27l2.11,1.3c.18.1.29.21.29.38s-.34.34-1.3.41c-.52.38-2.76,2.2-3.22,2.55s-2.9,2.25-3.39,2.63l7.36-.56A7.77,7.77,0,0,0,247.85,35l.12-.18c1.1.48,4.67,2.24,4.67,4A.85.85,0,0,1,251.79,39.69Zm-7.07-10.92-1.8,1.59c-1,.81-1.54,1.3-2.09,1.73a9.54,9.54,0,0,1,1,.66A2,2,0,0,1,242.6,34a.84.84,0,0,1-.9.82c-.44,0-.52-.13-1.16-1.1a9.27,9.27,0,0,0-2.61-2.66l.14-.17a12.9,12.9,0,0,1,2.5,1,25.14,25.14,0,0,0,2-3.19,3.37,3.37,0,0,0,.55-1.91L245.56,28c.17.08.32.18.32.36S245.76,28.65,244.72,28.77Zm-3.25,12.56a12.13,12.13,0,0,0,2.84,3.29,14.45,14.45,0,0,0,2.47-3.29Z" transform="translate(-4.5 -4.5)"/><path class="cls-1" d="M263,34.51a4.89,4.89,0,0,1-.64.46c0,1-.08,6.56-.08,6.61,0,.94.11,5.05.11,5.89,0,1.36-.2,2.12-2.29,2.71-.23-.54-.55-1.2-2.17-2.07l0-.13c.89.08,1.94.18,2.2.18.75,0,.75-.28.75-.46,0-1.71,0-3.41,0-5.12h-3.07c-.23,1.86-.64,5.56-4.21,7.7l-.14-.15a8.51,8.51,0,0,0,2.46-4.7,27.13,27.13,0,0,0,.64-6.5,36.18,36.18,0,0,0-.41-6l2,.79h2.34l.56-.43c.14-.1.26-.23.4-.23s.29.15.44.23l1,.64a.37.37,0,0,1,.2.25C263.27,34.36,263.13,34.44,263,34.51Zm15.87-3.93H270.7c0,1.18,0,1.25-.06,1.41-.17.33-.9.41-1.13.41s-.43-.11-.43-.39.08-1.22.08-1.43h-5.07c0,.21.08,1.05.08,1.23s0,.94-1.13.94c-.52,0-.55-.23-.55-.48,0-.46.06-1.23.09-1.69h-3.74a26.48,26.48,0,0,0-3.75.31l-.66-1.1c1.59.11,3.19.18,4.81.18h3.34a9,9,0,0,0-.38-2.78l2.44.61c.08,0,.35.11.35.33s-.35.39-.9.57V30h5.1a9.63,9.63,0,0,0-.32-2.73l2.35.59c.18.05.29.15.29.3s-.23.34-.87.59c0,.21,0,.31,0,1.25H276l.72-1a.66.66,0,0,1,.47-.33,1.3,1.3,0,0,1,.52.25l1.36,1c.15.13.26.23.26.41S279.11,30.58,278.91,30.58ZM261,38.34h-2.93c0,1.15-.06,2.48-.11,3.62h3Zm0-4h-2.93v3.34H261Zm16.85,10.35a15.18,15.18,0,0,1-5.94-4.54h-3.83a12.53,12.53,0,0,1-5.37,4.7l-.08-.16a15.49,15.49,0,0,0,4.17-4.51,28.07,28.07,0,0,0-2.93.28l-.69-1.1c1.16.08,2.2.1,4,.18a18.44,18.44,0,0,0,1-2.47,21.83,21.83,0,0,0-3.51.3l-.7-1.12c.76.05,2.12.15,4.41.2a14.58,14.58,0,0,0,.64-3,1.63,1.63,0,0,0-.09-.64l2.18.82c.23.07.34.17.34.3s-.34.38-.92.67c-.21.56-.41,1.19-.7,1.88h2.67c1.42-1.91,1.54-2.75,1.62-3.49l2,1c.17.08.26.18.26.33s-.29.31-1.08.36c-.37.3-2.14,1.53-2.49,1.78h2.7l.66-.69c.18-.17.29-.33.44-.33a1.1,1.1,0,0,1,.58.31l.93.66c.14.1.29.21.29.38s-.24.29-.44.29h-7.19a10.33,10.33,0,0,0,1.62,2.47h4.06l.55-.74c.18-.23.32-.33.47-.33a1.05,1.05,0,0,1,.46.25l1.05.77c.14.13.29.23.29.41s-.26.25-.44.25H273a14.52,14.52,0,0,0,7.28,3.17v.17A3.87,3.87,0,0,0,277.86,44.74Zm-12.76,3.7c-.09.41-.23.49-.38.49a.51.51,0,0,1-.31-.18l-1.05-1.48c.84,0,1.74,0,5.54-1.28l.12.16C267.71,47,267.39,47.17,265.1,48.44Zm1.28-12.37c-.44,0-.5-.2-.73-.87a5.61,5.61,0,0,0-1-1.94l.09-.1c.55.23,2.49,1,2.49,2A.84.84,0,0,1,266.38,36.07Zm1.1,9.69c-.52,0-.9-.68-1-.81a4.88,4.88,0,0,0-.9-1.41l.06-.1c.64.16,2.53.64,2.53,1.71C268.21,45.56,267.86,45.76,267.48,45.76Zm3.25-3c0,.41,0,.69,0,1.28v4.29c0,.79-.52,1.66-2.41,2a2.79,2.79,0,0,0-1.57-1.74l0-.13c.26,0,1.48,0,1.74,0,.67-.08.67-.41.7-1.51,0-.86,0-2.11,0-3.75a3.63,3.63,0,0,0-.38-1.83l2.18.53c.23.05.49.16.49.36S271.34,42.58,270.73,42.8Zm-.35-5.68h-.81a24.42,24.42,0,0,1-1.13,2.47h3A9.6,9.6,0,0,1,270.38,37.12Zm3.39,7.24c-.26.1-1.5.69-1.56.72-.58.2-1,.4-1.22.48l-.06-.13c.35-.33,1.31-1.17,1.74-1.66a2.1,2.1,0,0,0,.52-.94L274.64,44c.06,0,.15.1.15.18C274.79,44.49,274,44.39,273.77,44.36Zm2.64,5.41c-.55,0-.72-.15-1.48-.84A18.54,18.54,0,0,0,271,46.28l.06-.13c2.14.07,6.15,1.73,6.15,2.93C277.2,49.21,277.17,49.77,276.41,49.77Z" transform="translate(-4.5 -4.5)"/><path class="cls-1" d="M297.12,30.36a17.62,17.62,0,0,0,1.77.28c.29,0,1.42-.31,1.65-.31.47,0,.9.23.9.64a1,1,0,0,1-.49.76,16.74,16.74,0,0,1-5,2.43,73.49,73.49,0,0,1,5.71,5.33c.79.84,1.22,1.3,1.22,1.86s-.43,1.66-1,1.66c-.18,0-.26,0-1-.38a17.5,17.5,0,0,0-7-1.56c-3.66,0-6.12,1.3-6.12,3.19,0,2.22,2.84,3.11,4.2,3.32a26,26,0,0,0,3.25.23c.21,0,1.19-.08,1.4-.08.4,0,2.32,0,2.32,1,0,.67-1.22.67-1.4.67a23.81,23.81,0,0,1-6-.59c-3.92-.89-4.64-2.52-4.64-4.18,0-4.39,6.21-4.39,7.42-4.39a36.25,36.25,0,0,1,4.53.38c.26,0,1.65.31,1.71.31s.2-.05.2-.18c0-.54-2.9-4-5.83-6.25a26.53,26.53,0,0,1-6.61,1.3,4,4,0,0,1-3.57-1.91,7,7,0,0,0,3.11.79,21.75,21.75,0,0,0,5.88-1.05c-2.32-1.61-2.46-1.71-3.16-2.14-1.13-.72-1.13-1.25-1.13-1.51a1.62,1.62,0,0,1,1.63-1.45,3.35,3.35,0,0,1,1.82.56c-.9.1-1,.1-1.16.2a.65.65,0,0,0-.32.62c0,.66,2.56,2.67,3.46,3.36a15,15,0,0,0,2.9-1.25c.37-.2.37-.4.37-.51,0-.43-.4-.69-1.07-1Z" transform="translate(-4.5 -4.5)"/><path class="cls-1" d="M333.08,40.25a13,13,0,0,1-2.64,5.51,6.76,6.76,0,0,1-4.87,2.2c-3.11,0-3.4-2.12-3.74-4.62-.26-1.89-.47-3.21-2.18-3.21s-3.31.81-5,2.83c-1.1,1.3-1.33,1.68-2.75,4.69-.26.54-.47,1-1,1-.72,0-.84-1.41-.84-1.56,0-.33.2-.74.81-1.45,1.37-1.61,5.83-9,7.4-11.74a12.93,12.93,0,0,0,1.45-3.21c0-.31-.23-.82-1.19-1.48a2.6,2.6,0,0,1,.64-.1c1.22,0,2.75,1.09,2.75,2.11,0,.51-.23.74-.75,1.25a6.1,6.1,0,0,0-.78,1c-4,5.63-4.41,6.14-5.37,8,2-1.51,3.51-2.12,5-2.12,2.61,0,2.9,1.76,3.34,3.88s.69,3.26,2.58,3.26a5.28,5.28,0,0,0,3.54-1.53,15.38,15.38,0,0,0,3.39-4.67Z" transform="translate(-4.5 -4.5)"/><path class="cls-1" d="M342,44.85c2.73,1.63,3,1.83,3.77,1.83a1.35,1.35,0,0,0,1.16-.79,16.38,16.38,0,0,0,2.06-8c0-1.17,0-2.86-2-2.86a9.91,9.91,0,0,0-2.52.41c-2.41,5.21-4.76,10.39-6.68,12.73a.7.7,0,0,1-.6.33c-.41,0-.67-.73-.67-1.09s0-.44,1-1.81A54.55,54.55,0,0,0,343,35.89a20.24,20.24,0,0,0-4.27,1.61,2.54,2.54,0,0,1-1.1.43,2.72,2.72,0,0,1-2.35-2.4,1.28,1.28,0,0,1,.17-.61c.67,1,1.14,1.33,1.89,1.33a5,5,0,0,0,1.33-.26c1.34-.35,3.25-.79,4.79-1.17a17.21,17.21,0,0,0,1.48-4.24c0-1.17-1.94-1.65-2.23-1.73a1.64,1.64,0,0,1,1.13-.33c1.1,0,3.25.69,3.25,1.63a1.58,1.58,0,0,1-.32.82,23.08,23.08,0,0,0-1.83,3.54,9.4,9.4,0,0,1,2.12-.28c3.42,0,3.42,2.66,3.42,4,0,2.48-.87,8.35-3.94,10.36a3.49,3.49,0,0,1-1.48.54c-.41,0-.44-.1-.7-1A12.1,12.1,0,0,0,341.92,45Zm12.1-5a11.72,11.72,0,0,0,3-.46c.38-.13.73-.38.73-.76s-1.68-2.84-5.66-5.06c2.55,0,7.89,3.4,7.89,6.59,0,.43-.06,1.12-.58,1.12a11.49,11.49,0,0,1-1.25-.54c-.63-.2-3.59-.61-4.17-.71Zm0-8.9c1.36,0,4.7.81,4.7,2.27a.63.63,0,0,1-.61.63c-.29,0-1.16-.79-1.36-.91A15.83,15.83,0,0,0,353,31.07,3,3,0,0,1,354,30.92Zm3-2c1.3,0,4.49.38,4.49,2.2,0,.28-.11.56-.43.56s-1.34-.9-1.57-1.05a14.59,14.59,0,0,0-4-1.55A7.32,7.32,0,0,1,357,29Z" transform="translate(-4.5 -4.5)"/><path class="cls-1" d="M52.36,73.58a57.61,57.61,0,0,1-3.6,4.72h1.77l.58-.61c.26-.28.35-.36.52-.36s.18.06.53.31l.81.61c.17.13.29.23.29.39s-.26.28-.47.28H48.21a29.12,29.12,0,0,1-2.52,2.55h3.36l.84-.46a1.66,1.66,0,0,1,.41-.15c.09,0,.35.23.38.25l1,1.15a.39.39,0,0,1,.12.28c0,.23-.26.36-.53.36-.11,0-.66-.11-.78-.11-.49.23-2.58,1.41-3,1.64.58.18.64.2.64.36s-.11.28-.61.63c0,.54,0,.54,0,.84,2-.4,3.49-.71,4.94-1.09v.15a5.16,5.16,0,0,1-1.08.46c-1.85.61-3.28,1.07-3.86,1.25,0,.64,0,4,0,4.08,0,1.53-1.79,1.94-2.78,2.14,0-.25-.12-.4-.67-.91a7.16,7.16,0,0,0-1.8-1l0-.15,3,.1c.7,0,.7-.2.73-.69,0-.76,0-2.6,0-3.09l-3.63,1.1-1,.31c-.21.58-.29.76-.58.76-.12,0-.21,0-.47-.41l-1.16-1.76A39.42,39.42,0,0,0,46,86.54a15.65,15.65,0,0,0-.24-2.67l1.34.43A21.18,21.18,0,0,0,49,82.08H45a28.42,28.42,0,0,1-6.44,4.24l-.11-.13a41.75,41.75,0,0,0,5-4,15.47,15.47,0,0,0-2.24.23l-.67-1.1c1.8.13,3.31.15,3.63.18.9-.87,1.6-1.64,2.41-2.55H43.86a24.15,24.15,0,0,0-3.74.3l-.7-1.12c2.18.15,4.29.2,4.85.2h.52c0-.56.06-3,.06-3.47a26.09,26.09,0,0,0-3.72.31L40.47,74c.75,0,2,.13,4.38.18,0-.35,0-2,0-2.32a4.31,4.31,0,0,0-.32-1.53l2.35.56c.08,0,.37.1.37.31s-.46.48-.81.69c0,.35-.09,2-.09,2.29h1.08l.49-.61c.17-.18.29-.33.46-.33a1.17,1.17,0,0,1,.61.3l.73.59.23.21a8.23,8.23,0,0,0,1.22-2.63l1.91,1c.12.08.32.18.32.39S53.05,73.51,52.36,73.58ZM49.6,74.83H46.35c-.05,1.25-.08,2.28-.08,3.47h.81a29.06,29.06,0,0,0,2.61-3.47Zm14.1,18a18.6,18.6,0,0,1-5.57-5.34,15.31,15.31,0,0,1-8.7,5.62V93c5.13-2.88,7.34-5.92,7.92-6.81a25.71,25.71,0,0,1-2.18-7.32,14.2,14.2,0,0,1-2.81,3.32h-.2c1.71-2.58,4.49-9,4.32-11.76l2.43,1.12c.15.07.26.15.26.33,0,.33-.87.54-1,.56a41.14,41.14,0,0,1-1.86,4.39H62l.78-.87c.15-.18.29-.3.44-.3s.26.07.55.25l1.33.87c.15.1.32.2.32.38s-.26.28-.43.28H61.32l1.31.82c.23.15.34.25.34.43s-.55.46-1.24.56a26.67,26.67,0,0,1-2.85,7.1,11.63,11.63,0,0,0,7.6,4.94v.18A4,4,0,0,0,63.7,92.85ZM56,77.41a7.19,7.19,0,0,1-.49.89A23.51,23.51,0,0,0,58.07,85a18.47,18.47,0,0,0,2.15-7.6Z" transform="translate(-4.5 -4.5)"/><path class="cls-1" d="M74,79.66a32.66,32.66,0,0,0,6.79-1.56,3.47,3.47,0,0,1,1.07-.33c.76,0,2.29.87,2.29,1.5,0,.28-.08.34-.75.74-1.07.62-2.73,1.64-7.25,5.9a8.65,8.65,0,0,1,1.3-.11c2.35,0,2.73,1.1,3,2.2.61,2.17,1,2.91,3.48,2.91a17.32,17.32,0,0,0,3-.31c.29,0,1.57-.43,1.83-.43.47,0,1.34.46,1.34.87s-.18.45-.5.58a13.72,13.72,0,0,1-3.91.49c-5,0-5.83-1-6.59-3.52-.4-1.3-.66-2.2-2.26-2.2-1.31,0-1.8.59-4,3.14-2.38,2.81-2.5,2.86-3,2.86-.73,0-.76-.87-.76-1,0-.82.44-1.1,1.25-1.64,1-.66,1.51-1.14,6.35-5.69a59,59,0,0,0,4.27-4.26.47.47,0,0,0,.06-.2c0-.28-.32-.36-.58-.36a16.32,16.32,0,0,0-5.17,1.64,2.49,2.49,0,0,1-1.24.45,3,3,0,0,1-2.35-1.91c0-.05.2-.66.2-.71A2.63,2.63,0,0,0,74,79.66Zm2.73-4.57c1-.51,1.1-.56,2.17-1.17.12-.08.26-.18.26-.34,0-.33-.49-.63-1-.89-2.09-1.22-2.38-2.29-2.59-3.09a12.27,12.27,0,0,0,4.62,2.76c.66.26,2.4.89,2.4,1.86,0,.59-.6.59-.84.59s-1.51-.2-1.74-.2a13,13,0,0,0-2.43.43c-.35.08-.58.1-.9.18Z" transform="translate(-4.5 -4.5)"/><path class="cls-1" d="M106.56,74.61c.81-.18,7-1.25,7.31-1.31a7.34,7.34,0,0,1,1.39-.23c1.07,0,2.15.67,2.15,1.2s-.64.69-1,.69-2.23-.1-2.61-.1c-5.65,0-9.71,5.2-9.71,9.11,0,3.72,4.06,5.23,7.28,5.79.78.13,2,.33,2,1.33,0,.43-.49.56-.93.56a17,17,0,0,1-4.9-1.3A7.34,7.34,0,0,1,102.76,84c0-2.37,1.51-5.84,6.79-9.13-2.18,0-9.69,2.24-11.49,3-.9.38-1,.43-1.16.43A2.26,2.26,0,0,1,95,76.06a1.61,1.61,0,0,1,.23-.94,2.33,2.33,0,0,0,2.2,1.32,7,7,0,0,0,1.28-.15Z" transform="translate(-4.5 -4.5)"/><path class="cls-1" d="M127.5,83.64a2.64,2.64,0,0,1-1-1.61c0-.59.26-.92,1-1.66,5-4.8,6.76-6.45,7.31-7.3a1.14,1.14,0,0,0,.27-.71c0-.41-.12-.54-1.14-1.73a4.87,4.87,0,0,1,1.8.43,2.74,2.74,0,0,1,1.37,2.09c0,.38-.12.46-.73.89-1.28.87-6,5.06-7.86,6.89-.52.54-.55.84-.55,1,0,.61.49,1,2,2.29,1.19,1,2.38,2,3.6,3s4.32,3.7,4.32,4.74c0,.41-.38,1.33-1,1.33-.49,0-.66-.3-1-1a23.66,23.66,0,0,0-4.26-5.08Z" transform="translate(-4.5 -4.5)"/><path class="cls-1" d="M173.78,86.57a13.31,13.31,0,0,1-3.1,2.63,7,7,0,0,1-3.31,1,3.66,3.66,0,0,1-2.9-1.46,4.75,4.75,0,0,1-.66-2.78c0-.66.23-2.42.46-4.18s.46-3.52.46-4.11-.26-1.58-1.36-1.58c-2,0-5.89,3.39-8.53,6.68a33.39,33.39,0,0,0,.26,5.31,14.22,14.22,0,0,1,.12,1.71,6.12,6.12,0,0,1-.41,2.22.51.51,0,0,1-.46.31c-.52,0-.7-.62-.84-1.08a12.87,12.87,0,0,0-1.19-2.57l.14-.08a5.23,5.23,0,0,0,1.28,1c.2,0,.23-.2.23-.31,0-.81-.23-4.33-.23-5.07-.55.74-3.57,5-3.89,5.53-.14.21-.34.54-.69.54s-.61-.38-.61-1a1.61,1.61,0,0,1,.7-1.4,27.16,27.16,0,0,0,4.52-7c.06-.82.09-1.07.2-2.14L151.16,80c-.81.39-.93.41-1.16.41-1,0-1.68-1.35-1.68-2.14a.72.72,0,0,1,.06-.36,2.38,2.38,0,0,0,1.68.87,24.29,24.29,0,0,0,4.06-1.28c.06-.58.38-3.29.38-3.67,0-1.33-.79-1.56-2.33-1.94a4.71,4.71,0,0,1,1.69-.33,2.44,2.44,0,0,1,2.55,1.71A3.67,3.67,0,0,1,156,74.5a23.46,23.46,0,0,0-.58,2.43c.32,0,1.05.61,1.05.92s0,.17-.64,1a8.26,8.26,0,0,0-.87,1.56c0,.43-.09,1.12-.09,1.4,2.58-3.21,6.53-6.63,8.91-6.63a2.39,2.39,0,0,1,2.49,2.55,12.14,12.14,0,0,1-.2,1.91,46,46,0,0,0-.84,6.48c0,1.81.37,2.48,2.06,2.48a14.06,14.06,0,0,0,6.29-2.17Z" transform="translate(-4.5 -4.5)"/><path class="cls-1" d="M182,73.53a39.65,39.65,0,0,0,5.31-1,10.64,10.64,0,0,1,1.51-.33,2.26,2.26,0,0,1,1.91,1.63c0,.3-.06.33-.67.71a5.16,5.16,0,0,0-1.27,1c-.85.92-4.59,5-5.34,5.82-.38.43-.81.91-1.51,1.78a15.24,15.24,0,0,1,7.4-2.09c4.2,0,6.32,2.17,6.32,4.85,0,3.39-3.51,5.79-8,5.79-2.5,0-5.57-.84-5.57-2.78,0-1.71,1.85-2.09,2.95-2.09,2.38,0,3.75,1.35,4.5,3.49a4.84,4.84,0,0,0,4.41-4.59c0-2.6-2.15-4-5-4-5.48,0-9.69,4.62-10,5-.72,1.07-1.07,1.58-1.71,1.58-.38,0-.64-.25-.64-.84,0-.84.26-1.07.93-1.63,4.52-3.83,10.53-11.1,10.53-12.17,0-.33-.26-.36-.41-.36a17.67,17.67,0,0,0-4.38,1.3,4.29,4.29,0,0,1-1.13.51c-.81,0-2.38-1.1-2.38-2.27a.59.59,0,0,1,.29-.51A1.92,1.92,0,0,0,182,73.53Zm2.49,14.26c-.72,0-1.42.36-1.42,1,0,1.3,3.11,1.86,3.92,1.86a2.9,2.9,0,0,0,1-.15A4,4,0,0,0,184.45,87.79Z" transform="translate(-4.5 -4.5)"/><path class="cls-1" d="M210.9,72.64c0-.31-.4-.87-1.74-1.15a1.36,1.36,0,0,1,1.1-.41,4.18,4.18,0,0,1,2.56,1.08c.26.23.34.35.34.61s-.08.25-.66.94a11.82,11.82,0,0,0-1.37,1.89,20.58,20.58,0,0,0,2.58-.87,3.83,3.83,0,0,1,1.43-.43c.29,0,1.53.25,1.53.66s-.55.51-.61.54a51.7,51.7,0,0,1-5.71,1.32c-.64,1.05-3.57,6.46-3.86,6.89s-2,3.14-2.2,3.27a.71.71,0,0,1-.5.2c-.17,0-.55-.1-.55-.79s.24-1,.84-1.63a35.09,35.09,0,0,0,3.43-5.15c.49-.85,1.07-1.92,1.39-2.48a12.72,12.72,0,0,1-3,.41c-2.58,0-2.84-1.61-2.9-2a3.55,3.55,0,0,0,2.55,1,23.21,23.21,0,0,0,3.92-.49A25.65,25.65,0,0,0,210.9,72.64Zm7.51,5c3.31,0,5.8,2.5,5.8,3.62a.53.53,0,0,1-.58.51,2.39,2.39,0,0,1-.72-.2,3.84,3.84,0,0,0-2.23-.56,5.89,5.89,0,0,0-3.48.94,2,2,0,0,0-.58,1.66c0,.69.34,3.22.46,3.93,2.78.56,5.48,1.71,5.48,3a.64.64,0,0,1-.64.71,1.44,1.44,0,0,1-.63-.22c-2.44-1.54-2.82-1.79-4.12-2.15-.09,3.34-3.92,3.52-4.62,3.52-2.17,0-4.14-1-4.14-2.5,0-1.71,2.52-2.7,5.25-2.7a17.31,17.31,0,0,1,1.8.1c-.15-2.07-.15-2.3-.15-2.83,0-2.63,1.83-3.42,5-4.19.23-.05.58-.12.58-.48s-.7-.71-1.1-.94a13.17,13.17,0,0,0-2.9-1.05A6.22,6.22,0,0,1,218.41,77.64Zm-4.9,10.61c-1.1,0-4,.31-4,1.69,0,1,1.77,1.25,2.61,1.25s3.57-.31,3.45-2.68A8,8,0,0,0,213.51,88.25Z" transform="translate(-4.5 -4.5)"/><path class="cls-1" d="M237.38,91.88a25,25,0,0,0,5.28-1.33c3-1.1,5.34-2.6,5.34-5.1,0-2-1.72-3.45-3.95-3.45-4.35,0-8.7,3.29-9.86,5-.26.36-.35.51-.61.51-.76,0-1.31-1.38-1.31-2a13.07,13.07,0,0,1,.29-1.4,31.48,31.48,0,0,0,.64-5.64c0-2,0-2.2.47-2.81.69-.92,1.1-1,4.66-1.63.12,0,.27,0,.27-.2s-.15-.18-.53-.36c-.61-.31-2.35-1.35-2.29-2.58A15.23,15.23,0,0,0,240,73c1.71.66,1.91,1.73,1.91,2.06,0,.51-.29.54-.55.54a2.87,2.87,0,0,1-1.25-.36,10.78,10.78,0,0,0-2.58-.25c-1.13,0-3.48.05-3.48,1.66a3.54,3.54,0,0,0,.29,1.25,5.2,5.2,0,0,1,.32,1.17c0,.1-.2.94-.23,1.12a19.77,19.77,0,0,0-.58,4c0,.31.12.59.38.59.05,0,.14,0,.34-.15a17,17,0,0,1,9.61-3.45c3.62,0,5.48,2.38,5.48,4.44,0,2.6-2.58,4.31-4,4.9a22.57,22.57,0,0,1-8.27,1.51Z" transform="translate(-4.5 -4.5)"/><path class="cls-1" d="M47.14,132.89c-.09.79-.09.86-.41.86s-.35-.17-.49-.38l-1.07-1.43a4.55,4.55,0,0,0,1.53-.58v-9.9H43.89l1.13.46c.15,0,.44.23.44.41s-.41.48-.61.61c-.09,2.5-.18,5.18-1.25,7.55a9,9,0,0,1-4.44,4.8l-.2-.16c4.2-3,4.23-9.59,4.23-12.4a10.87,10.87,0,0,0-.06-1.27,27.14,27.14,0,0,0-3,.28l-.7-1.1c2.18.15,4.29.21,4.82.21h4.32l.75-.87c.21-.26.29-.36.47-.36a.9.9,0,0,1,.49.26l1.19.91c.14.11.29.23.29.39s-.26.28-.46.28H48.12v9c1.19-.79,2.38-1.55,3.48-2.39l.21.12A28.44,28.44,0,0,1,47.14,132.89Zm2.49-17.27H44.88a24.57,24.57,0,0,0-3.75.3l-.66-1.12c2.17.18,4.26.2,4.81.2h2l.64-.71c.23-.26.29-.31.44-.31s.23,0,.52.28l.93.69c.14.13.29.23.29.38S49.81,115.62,49.63,115.62Zm7.31,18a6,6,0,0,1-.9-.1,31.66,31.66,0,0,1-9.8,2.88v-.2a23.64,23.64,0,0,0,6.61-2.73c1.92-1.15,2.12-1.56,2.32-2l2,1.35c.09.05.32.2.32.43S57.06,133.65,56.94,133.65Zm8-18H59.17c-1.65,2.39-1.82,2.65-2.29,3.24h4.64l.58-.52c.24-.2.29-.25.41-.25s.12,0,.44.23l.66.46c.23.18.35.28.35.41s-.49.48-.81.69c0,1.81,0,5.74.11,8.85,0,.25.12,1.53.12,1.81a1.06,1.06,0,0,1-1.13,1.1c-.61,0-.61-.41-.58-.72H54a1,1,0,0,1-1.07.82c-.61,0-.64-.33-.64-.66,0-.13,0-.85,0-1,.23-5.33.23-5.92.23-7.42,0-1.2,0-3.8-.14-4.77l2.17,1h1.89a28.66,28.66,0,0,0,.61-3.24H55.64a24.38,24.38,0,0,0-3.72.3l-.69-1.12c1.51.13,3.3.2,4.81.2h6.35l.5-.81c.17-.28.26-.39.46-.39s.23,0,.52.26l1.22.89c.12.1.29.23.29.38S65.06,115.62,65,115.62Zm-3.28,3.85H54v3.11h7.72Zm0,3.72H54v3.19h7.72Zm0,3.8H54v3.32h7.72Zm2.87,9.21c-.64,0-.78-.15-1.94-1.45a12.27,12.27,0,0,0-3.08-2.5l.06-.21c1.74.46,5.8,1.51,5.8,3.3A.8.8,0,0,1,64.54,136.2Z" transform="translate(-4.5 -4.5)"/><path class="cls-1" d="M74.66,115.82c0,1.33,0,2,.06,2.73,0,.38.14,2.32.14,2.35,0,.56-.64.81-1.07.81-.61,0-.61-.18-.55-1.22H69.18c-.06.38-.09.53-.18,1.3,0,.15-.2,2.75-.26,3.49H72.8l.47-.48c.26-.28.37-.33.55-.33a.86.86,0,0,1,.43.2l1,.82c.14.13.26.23.26.36,0,.28-.52.51-.9.71-.14.74-.69,4.11-.87,4.77-1,4-2,4.8-4.76,5.18a2.86,2.86,0,0,0-1.77-2.09l.06-.16a18,18,0,0,0,2.7.31c.61,0,1.19,0,2.06-2.6a22.86,22.86,0,0,0,1-6.07h-4.3a17.81,17.81,0,0,1-.2,2,1.48,1.48,0,0,1-1.25.48c-.35,0-.49-.1-.49-.38,0-.08.32-2.35.38-2.78.2-1.41.4-3.45.52-4.88a6.76,6.76,0,0,0,0-1.07l1.77.62h3.86V115H70.77a26,26,0,0,0-3.74.28l-.67-1.1c1.6.13,3.19.21,4.82.21h2.09l.29-.31a.7.7,0,0,1,.46-.23.86.86,0,0,1,.46.18l.87.61a.39.39,0,0,1,.21.33C75.56,115.26,75.18,115.49,74.66,115.82Zm16.39,19.67c-4-1.33-7.92-5.59-8.65-9.85H80.26v7.83c1.8-.35,3.07-.61,5.19-1.17l.12.15a25.75,25.75,0,0,1-4.33,1.64c-.81.28-1,.33-4.2,1.48-.21.58-.38.84-.7.84-.09,0-.17,0-.43-.36l-1.34-1.86a21.44,21.44,0,0,0,4.09-.44v-8.06a18,18,0,0,0-2.35.26l-.69-1.12c1,.07,1.42.1,3,.17,0-2.11,0-8.29-.11-10a11.57,11.57,0,0,0-.15-1.38l1.89.87h7.13l1-.89c.14-.13.35-.33.46-.33a1.35,1.35,0,0,1,.53.28l1.33.89c.14.1.29.23.29.38s-.26.28-.44.28H80.26v2.78H86.7l.58-.66c.11-.15.29-.33.46-.33a1.8,1.8,0,0,1,.55.25l1.16.69c.12.08.29.23.29.39s-.26.28-.43.28h-9v3h6.18l.66-1c.12-.18.26-.39.5-.39a.86.86,0,0,1,.49.26l1.48,1.1c.14.1.26.2.26.38s-.23.28-.44.28H80.26v3h8.5l1-1.17c.15-.18.29-.31.47-.31a1.14,1.14,0,0,1,.52.25L92.29,125c.18.13.29.23.29.41s-.23.25-.43.25H82.84a10.85,10.85,0,0,0,2.38,4.06,18,18,0,0,0,2.52-2.15,3.43,3.43,0,0,0,1-1.37l1.85,1.37c.21.16.29.26.29.41s-.23.23-.34.23-.5-.05-.67-.07c-.73.28-1.71.66-3.22,1.3-.41.18-.81.33-1.19.48a13,13,0,0,0,8,3.88v.13A3.31,3.31,0,0,0,91.05,135.49Z" transform="translate(-4.5 -4.5)"/><path class="cls-1" d="M120.13,129.57a13.31,13.31,0,0,1-3.1,2.63,7,7,0,0,1-3.31,1,3.66,3.66,0,0,1-2.9-1.46,4.75,4.75,0,0,1-.66-2.78c0-.66.23-2.42.46-4.18s.46-3.52.46-4.11-.26-1.58-1.36-1.58c-2,0-5.89,3.39-8.53,6.68a34.84,34.84,0,0,0,.27,5.31,15.5,15.5,0,0,1,.11,1.71,6.1,6.1,0,0,1-.4,2.22.54.54,0,0,1-.47.31c-.52,0-.7-.62-.84-1.08a12.87,12.87,0,0,0-1.19-2.57l.15-.08a5,5,0,0,0,1.27,1c.2,0,.23-.2.23-.31,0-.81-.23-4.33-.23-5.07-.55.74-3.57,5-3.89,5.53-.14.21-.34.54-.69.54s-.61-.38-.61-1a1.61,1.61,0,0,1,.7-1.4,27.16,27.16,0,0,0,4.52-7c.06-.82.09-1.07.2-2.14L97.51,123c-.81.39-.93.41-1.16.41-1,0-1.68-1.35-1.68-2.14a.72.72,0,0,1,.06-.36,2.38,2.38,0,0,0,1.68.87,24.29,24.29,0,0,0,4.06-1.28c.06-.58.38-3.29.38-3.67,0-1.33-.79-1.56-2.32-1.94a4.59,4.59,0,0,1,1.68-.33,2.44,2.44,0,0,1,2.55,1.71,3.67,3.67,0,0,1-.38,1.22,23.46,23.46,0,0,0-.58,2.43c.32,0,1,.61,1,.92s0,.17-.64,1a8.26,8.26,0,0,0-.87,1.56c0,.43-.09,1.12-.09,1.4,2.58-3.21,6.53-6.63,8.91-6.63a2.39,2.39,0,0,1,2.49,2.55,12.14,12.14,0,0,1-.2,1.91,46,46,0,0,0-.84,6.48c0,1.81.37,2.48,2.06,2.48a14.06,14.06,0,0,0,6.29-2.17Z" transform="translate(-4.5 -4.5)"/><path class="cls-1" d="M128.31,116.53a39.65,39.65,0,0,0,5.31-1,10.64,10.64,0,0,1,1.51-.33,2.26,2.26,0,0,1,1.91,1.63c0,.3-.06.33-.67.71a5.16,5.16,0,0,0-1.27,1c-.85.92-4.59,5-5.34,5.82-.38.43-.81.91-1.51,1.78a15.24,15.24,0,0,1,7.4-2.09c4.2,0,6.32,2.17,6.32,4.85,0,3.39-3.51,5.79-8,5.79-2.5,0-5.57-.84-5.57-2.78,0-1.71,1.85-2.09,2.95-2.09,2.38,0,3.75,1.35,4.5,3.49a4.84,4.84,0,0,0,4.41-4.59c0-2.6-2.15-4-5-4-5.48,0-9.69,4.62-10,5.05-.72,1.07-1.07,1.58-1.71,1.58-.38,0-.64-.25-.64-.84,0-.84.26-1.07.93-1.63,4.52-3.83,10.53-11.1,10.53-12.17,0-.33-.26-.36-.41-.36a17.67,17.67,0,0,0-4.38,1.3,4.29,4.29,0,0,1-1.13.51c-.81,0-2.38-1.1-2.38-2.27a.59.59,0,0,1,.29-.51A1.92,1.92,0,0,0,128.31,116.53Zm2.49,14.26c-.72,0-1.42.36-1.42,1.05,0,1.3,3.11,1.86,3.92,1.86a2.9,2.9,0,0,0,1-.15A4,4,0,0,0,130.8,130.79Z" transform="translate(-4.5 -4.5)"/><path class="cls-1" d="M171,117.4h-18a17.43,17.43,0,0,1-6.82,6.46l-.2-.18c3.28-2.38,6.44-8.12,6.93-9.62a2.69,2.69,0,0,0,.12-1.28l2.58,1c.09,0,.32.13.32.35s-.23.36-1.25.69c-.4.64-.69,1.13-1.25,2h14l1.22-1.23c.29-.28.32-.3.44-.3a1.34,1.34,0,0,1,.55.25l1.59,1.23c.15.13.3.23.3.38S171.17,117.4,171,117.4Zm-10.41,9.39a29.86,29.86,0,0,1-2.32,2.83c.37.23,3.36,2.09,3.36,3.73a.73.73,0,0,1-.78.76c-.61,0-.84-.33-1.48-1.25a15.88,15.88,0,0,0-2.15-2.19,21.2,21.2,0,0,1-10.7,5.76v-.18a31.12,31.12,0,0,0,9.72-6.42,21.63,21.63,0,0,0-4.67-2.79v-.17a20.28,20.28,0,0,1,5.48,2.06c.35-.41,2.29-2.57,2.32-4.26L161.6,126c.18.1.32.18.32.38C161.92,126.69,161.43,126.71,160.56,126.79Zm11.72,7.37a1.84,1.84,0,0,0,.29,1c.23.38.26.46.26.61,0,.59-.64.66-.81.66-1.11,0-4.41-2-5.63-4.64a17.2,17.2,0,0,1-1.25-7.78H153.51a24.18,24.18,0,0,0-3.71.3l-.7-1.12c1.51.13,3.31.21,4.82.21h10.5l1.21-1c.29-.23.32-.25.41-.25a.89.89,0,0,1,.49.25l1.19,1c.09.08.23.18.23.31s-.34.35-1.24.69c0,.46,0,.81,0,1.37,0,3.27.61,5.16,2.06,6.84.11.15.78.87,1.3.87a.71.71,0,0,0,.64-.36,15.42,15.42,0,0,0,2-3l.2.1A26.72,26.72,0,0,0,172.28,134.16Zm-5.49-13.34H157.4a22.77,22.77,0,0,0-3.72.31L153,120c2.17.15,4.29.18,4.81.18h5.92l1-1c0-.08.29-.3.43-.3s.52.25.55.25l1.25,1c.2.15.29.23.29.4S167,120.82,166.79,120.82Z" transform="translate(-4.5 -4.5)"/><path class="cls-1" d="M181,130.85c2.73,1.63,3,1.83,3.77,1.83a1.35,1.35,0,0,0,1.16-.79,16.38,16.38,0,0,0,2.06-8c0-1.17,0-2.86-2-2.86a9.91,9.91,0,0,0-2.52.41c-2.41,5.21-4.76,10.39-6.68,12.73a.7.7,0,0,1-.61.33c-.4,0-.66-.73-.66-1.09s0-.44,1-1.81a54.55,54.55,0,0,0,5.46-9.75,20.24,20.24,0,0,0-4.27,1.61,2.54,2.54,0,0,1-1.1.43,2.72,2.72,0,0,1-2.35-2.4,1.28,1.28,0,0,1,.17-.61c.67,1,1.14,1.33,1.89,1.33a5,5,0,0,0,1.33-.26c1.34-.35,3.25-.79,4.79-1.17a17.21,17.21,0,0,0,1.48-4.24c0-1.17-1.94-1.65-2.23-1.73a1.64,1.64,0,0,1,1.13-.33c1.1,0,3.25.69,3.25,1.63a1.58,1.58,0,0,1-.32.82,23.08,23.08,0,0,0-1.83,3.54,9.4,9.4,0,0,1,2.12-.28c3.42,0,3.42,2.66,3.42,4,0,2.48-.87,8.35-3.94,10.36a3.49,3.49,0,0,1-1.48.54c-.41,0-.44-.1-.7-1A12.1,12.1,0,0,0,181,131Zm12.1-5a11.72,11.72,0,0,0,3-.46c.38-.13.73-.38.73-.76s-1.68-2.84-5.66-5.06c2.55-.05,7.89,3.4,7.89,6.59,0,.43-.06,1.12-.58,1.12a11.49,11.49,0,0,1-1.25-.54c-.63-.2-3.59-.61-4.17-.71Zm0-8.9c1.36,0,4.7.81,4.7,2.27a.63.63,0,0,1-.61.63c-.29,0-1.16-.79-1.37-.91a15.61,15.61,0,0,0-3.77-1.84A3,3,0,0,1,193.07,116.92Zm3-2c1.3,0,4.49.38,4.49,2.2,0,.28-.11.56-.43.56s-1.34-.9-1.57-1a14.59,14.59,0,0,0-4-1.55A7.32,7.32,0,0,1,196,115Z" transform="translate(-4.5 -4.5)"/><path class="cls-1" d="M208.35,136.51c4.93-2.88,5.51-5.48,5.8-7.14a3.58,3.58,0,0,1-1.71.53,4.1,4.1,0,0,1-3.42-4,3.4,3.4,0,0,1,3.45-3.27,4.59,4.59,0,0,1,1.74.41c0-.41,0-.56,0-.74V120a35.42,35.42,0,0,0-9.81,1.84,9.38,9.38,0,0,1-1.13.38c-.55,0-2.26-1.28-2.26-2.4a1.68,1.68,0,0,1,.09-.56,2.66,2.66,0,0,0,2.14,1.22,14.91,14.91,0,0,0,1.6-.2c1.33-.2,6.58-.92,9.37-1.12,0-.72-.09-3.45-.41-3.93a3.44,3.44,0,0,0-1.91-1.25,3,3,0,0,1,1.36-.41,5.5,5.5,0,0,1,2.15.77c.4.25.46.48.46.68a5.8,5.8,0,0,1-.17.77,23.27,23.27,0,0,0-.29,3.29c1.1-.08,6-.23,7-.31l1.3-.1c1.13,0,2.06.72,2.06,1.12s-.37.49-.69.49a1.59,1.59,0,0,1-.5-.08,30.21,30.21,0,0,0-5.36-.41c-1.28,0-2.58.06-3.86.13-.06,1.12-.06,2-.06,2.48s0,.89,0,1.55a6,6,0,0,1,.93,3.42,9,9,0,0,1-4,7.45,14.24,14.24,0,0,1-3.74,1.81Zm1.59-10.64a2.91,2.91,0,0,0,2.64,2.78c1.6,0,1.6-1.89,1.6-2.17,0-2-.81-2.8-2.23-2.8A2.26,2.26,0,0,0,209.94,125.87Z" transform="translate(-4.5 -4.5)"/><path class="cls-1" d="M235.61,116.53a39.65,39.65,0,0,0,5.31-1,10.64,10.64,0,0,1,1.51-.33,2.26,2.26,0,0,1,1.91,1.63c0,.3-.06.33-.67.71a5.16,5.16,0,0,0-1.27,1c-.85.92-4.59,5-5.34,5.82-.38.43-.81.91-1.51,1.78a15.24,15.24,0,0,1,7.4-2.09c4.2,0,6.32,2.17,6.32,4.85,0,3.39-3.51,5.79-8,5.79-2.5,0-5.57-.84-5.57-2.78,0-1.71,1.85-2.09,3-2.09,2.37,0,3.74,1.35,4.49,3.49a4.84,4.84,0,0,0,4.41-4.59c0-2.6-2.15-4-5-4-5.48,0-9.69,4.62-10,5.05-.72,1.07-1.07,1.58-1.71,1.58-.38,0-.64-.25-.64-.84,0-.84.26-1.07.93-1.63,4.53-3.83,10.53-11.1,10.53-12.17,0-.33-.26-.36-.41-.36a17.67,17.67,0,0,0-4.38,1.3,4.29,4.29,0,0,1-1.13.51c-.81,0-2.38-1.1-2.38-2.27a.59.59,0,0,1,.29-.51A1.92,1.92,0,0,0,235.61,116.53Zm2.49,14.26c-.72,0-1.42.36-1.42,1.05,0,1.3,3.11,1.86,3.92,1.86a2.9,2.9,0,0,0,1-.15A4,4,0,0,0,238.1,130.79Z" transform="translate(-4.5 -4.5)"/><path class="cls-1" d="M261.91,130.77c.81.54,1.92,1.2,2.5,1.53a2,2,0,0,0,1.07.33,1.58,1.58,0,0,0,1.3-.76c1.72-2.61,2.3-7.3,2.3-8.24,0-1.79-.47-2.58-1.95-2.58a12.64,12.64,0,0,0-2.46.31c-.53,1-2.61,5.35-3.11,6.22-1.16,2-2.38,4.26-3.62,6-.06.07-.5.71-.93.71s-.67-.33-.67-.94c0-.79.32-1.12,1.1-2a42.46,42.46,0,0,0,3-4.49c1.05-1.78,2.47-4.72,2.7-5.23a36.17,36.17,0,0,0-4.32,1.51c-.58.36-.73.43-1.08.43a2.72,2.72,0,0,1-2.35-2.58.65.65,0,0,1,.12-.38,2.74,2.74,0,0,0,2.09,1.3,9,9,0,0,0,1.86-.33c2.37-.59,2.46-.59,4.17-1a16.34,16.34,0,0,0,1.57-4.21,1.32,1.32,0,0,0-1-1.38l-1.16-.49a5,5,0,0,1,1.16-.12c2.06,0,3,1.15,3,1.66,0,.23,0,.25-.55,1.12-.29.46-1.34,2.68-1.57,3.11a14.22,14.22,0,0,1,2.12-.18c3,0,3.19,2.58,3.19,3.78,0,1.53-1,7.63-3.11,9.69-.37.36-1.56,1.46-2.43,1.46-.64,0-.67-.31-.7-.77s-.14-.92-2.41-3.44ZM274,126c2,0,3.91-.08,3.91-1.3,0-.59-1.36-2.48-5.74-5.1a10.14,10.14,0,0,1,6.29,3.29,5.44,5.44,0,0,1,1.63,3.77c0,.56-.12.87-.52.87-.23,0-.35,0-1-.41a12.38,12.38,0,0,0-2.38-.51l-2.23-.46Z" transform="translate(-4.5 -4.5)"/><path class="cls-1" d="M295.52,123.35c2.35,1.27,6.27,3.41,6.27,7.27s-4.26,4.9-6.32,4.9a6.79,6.79,0,0,1-4.79-1.79,5,5,0,0,1-1.05-3.32,13.27,13.27,0,0,1,.32-2.52c-1.85-.72-3.74-1.76-3.74-3.24,0-1.1.67-1.56,3.11-3.24.23-.16.29-.26.29-.41s0-.23-.29-.38c-2.12-1.23-2.35-1.38-2.64-1.82a1.82,1.82,0,0,1-.32-1.14c1.39,1.37,3.94,2.09,5.36,2.37a24.71,24.71,0,0,0,.9-4.59c0-1-.95-1.64-1.56-2a2.9,2.9,0,0,1,.84-.13c1.48,0,2.93,1.35,2.93,2.09,0,.23,0,.36-.5,1.28a23.79,23.79,0,0,0-1.39,3.67c.79.36.79.89.79,1,0,.51-.38.49-1.22.44-.15.56-.82,2.93-1.28,5.2a13,13,0,0,0,2.23.21c1.08,0,1.92.64,1.92,1.14s-.32.46-1.31.46a10.63,10.63,0,0,1-3.1-.51,10.18,10.18,0,0,0-.15,1.74,4.35,4.35,0,0,0,.79,2.81,4.86,4.86,0,0,0,3.8,1.6c3,0,4.61-2,4.61-3.95s-1.74-5-4.64-6.94Zm-5.89-1.41c-1.18.61-2.32,1.76-2.32,2.73,0,1.18,1.54,1.74,2.85,2.07a45.27,45.27,0,0,1,1.13-5A2.77,2.77,0,0,0,289.63,121.94Z" transform="translate(-4.5 -4.5)"/><path class="cls-1" d="M309.5,124.83a1.59,1.59,0,1,1,1.59,1.4A1.5,1.5,0,0,1,309.5,124.83Zm9.66,0a1.61,1.61,0,1,1,1.59,1.4A1.5,1.5,0,0,1,319.16,124.83Zm9.69,0a1.49,1.49,0,0,1,1.56-1.41,1.51,1.51,0,0,1,1.6,1.41,1.53,1.53,0,0,1-1.6,1.4A1.47,1.47,0,0,1,328.85,124.83Z" transform="translate(-4.5 -4.5)"/><g class="cls-2"><polygon class="cls-1" points="0 49 0 0 49 0 49 2 2 2 2 49 0 49"/></g><g class="cls-2"><polygon class="cls-1" points="346 153 346 151 393 151 393 104 395 104 395 153 346 153"/></g></g></g></svg>