<?xml version="1.0" encoding="utf-8"?>
<!-- Generator: Adobe Illustrator 26.5.0, SVG Export Plug-In . SVG Version: 6.00 Build 0)  -->
<svg version="1.1" id="レイヤー_1" xmlns="http://www.w3.org/2000/svg" xmlns:xlink="http://www.w3.org/1999/xlink" x="0px"
	 y="0px" viewBox="0 0 165.6 21.5" style="enable-background:new 0 0 165.6 21.5;" xml:space="preserve">
<style type="text/css">
	.st0{fill:#FFB400;}
</style>
<path class="st0" d="M0.1,21.1C0,21.1,0,21,0,20.9V0.6c0-0.1,0-0.2,0.1-0.3c0.1-0.1,0.2-0.1,0.3-0.1h3.5c0.1,0,0.2,0,0.3,0.1
	c0.1,0.1,0.1,0.2,0.1,0.3v20.3c0,0.1,0,0.2-0.1,0.2c-0.1,0.1-0.2,0.1-0.3,0.1H0.4C0.3,21.2,0.2,21.2,0.1,21.1z M7.6,19.9
	c-1.1-1.1-1.7-2.6-1.6-4.1v-2.1c0-0.1,0-0.2,0.1-0.3c0.1-0.1,0.2-0.1,0.3-0.1h3.5c0.1,0,0.2,0,0.3,0.1c0.1,0.1,0.1,0.2,0.1,0.3v2.1
	c0,0.5,0.1,1,0.4,1.4c0.3,0.4,0.7,0.6,1.2,0.5c0.5,0,0.9-0.2,1.2-0.5c0.3-0.4,0.5-0.9,0.5-1.4V0.6c0-0.1,0-0.2,0.1-0.3
	c0.1-0.1,0.2-0.1,0.3-0.1h3.5c0.1,0,0.2,0,0.2,0.1c0.1,0.1,0.1,0.2,0.1,0.3v15.2c0.1,1.5-0.5,3-1.6,4.1c-1.2,1.1-2.7,1.6-4.3,1.5
	C10.3,21.6,8.8,21,7.6,19.9z"/>
<path class="st0" d="M22.1,21.1C22.1,21.1,22,21,22,20.9V0.6c0-0.1,0-0.2,0.1-0.3c0.1-0.1,0.2-0.1,0.3-0.1h3.5c0.1,0,0.2,0,0.2,0.1
	c0.1,0.1,0.1,0.2,0.1,0.3v20.3c0,0.1,0,0.2-0.1,0.2c-0.1,0.1-0.2,0.1-0.2,0.1h-3.5C22.3,21.2,22.2,21.2,22.1,21.1z"/>
<path class="st0" d="M31.9,19.9c-1.1-1.1-1.7-2.7-1.6-4.3V5.8c-0.1-1.6,0.5-3.1,1.6-4.3C33,0.5,34.6-0.1,36.2,0
	c1.6-0.1,3.2,0.5,4.4,1.6c1.1,1.1,1.7,2.7,1.6,4.3v0.3c0,0.1,0,0.2-0.1,0.2c-0.1,0.1-0.2,0.1-0.2,0.1l-3.5,0.2
	c-0.2,0-0.4-0.1-0.4-0.3V5.6c0-0.5-0.1-1-0.5-1.4c-0.3-0.4-0.8-0.6-1.3-0.5c-0.5,0-0.9,0.2-1.2,0.5c-0.3,0.4-0.5,0.9-0.5,1.4v10.4
	c0,0.5,0.1,1,0.5,1.4c0.3,0.4,0.8,0.5,1.3,0.5c0.5,0,1-0.2,1.3-0.5c0.3-0.4,0.5-0.9,0.5-1.4v-0.8c0-0.1,0-0.2,0.1-0.2
	c0.1-0.1,0.2-0.1,0.3-0.1l3.5,0.1c0.1,0,0.2,0,0.2,0.1c0.1,0.1,0.1,0.2,0.1,0.3v0.3c0.1,1.6-0.5,3.2-1.7,4.3
	c-1.2,1.1-2.7,1.7-4.3,1.6C34.6,21.6,33,21,31.9,19.9z"/>
<path class="st0" d="M53.7,0.3c0.1-0.1,0.2-0.1,0.3-0.1h3.5c0.1,0,0.2,0,0.2,0.1c0.1,0.1,0.1,0.2,0.1,0.3v20.3c0,0.1,0,0.2-0.1,0.2
	c-0.1,0.1-0.2,0.1-0.2,0.1h-3.5c-0.1,0-0.2,0-0.3-0.1c-0.1-0.1-0.1-0.2-0.1-0.2v-8.2c0-0.1,0-0.1-0.1-0.1c0,0,0,0,0,0h-3
	c-0.1,0-0.1,0-0.2,0.1c0,0,0,0,0,0v8.2c0,0.1,0,0.2-0.1,0.2c-0.1,0.1-0.2,0.1-0.2,0.1h-3.5c-0.1,0-0.2,0-0.3-0.1
	c-0.1-0.1-0.1-0.2-0.1-0.2V0.6c0-0.1,0-0.2,0.1-0.3c0.1-0.1,0.2-0.1,0.3-0.1h3.5c0.1,0,0.2,0,0.2,0.1c0.1,0.1,0.1,0.2,0.1,0.3v8.2
	c0,0.1,0,0.1,0.1,0.1c0,0,0,0,0,0h3c0.1,0,0.1,0,0.2-0.1c0,0,0,0,0,0V0.6C53.6,0.5,53.6,0.4,53.7,0.3z"/>
<path class="st0" d="M62.1,21.1C62.1,21.1,62,21,62,20.9V0.6c0-0.1,0-0.2,0.1-0.3c0.1-0.1,0.2-0.1,0.3-0.1h3.5c0.1,0,0.2,0,0.2,0.1
	c0.1,0.1,0.1,0.2,0.1,0.3v20.3c0,0.1,0,0.2-0.1,0.2c-0.1,0.1-0.2,0.1-0.2,0.1h-3.5C62.3,21.2,62.2,21.2,62.1,21.1z"/>
<path class="st0" d="M86.8,0.3c0.1-0.1,0.2-0.1,0.3-0.1h3.5c0.1,0,0.2,0,0.2,0.1c0.1,0.1,0.1,0.2,0.1,0.3v20.3c0,0.1,0,0.2-0.1,0.2
	c-0.1,0.1-0.2,0.1-0.2,0.1h-4c-0.2,0-0.4-0.1-0.4-0.3L82.5,9.3c0,0-0.1-0.1-0.1-0.1c0,0-0.1,0.1-0.1,0.1v11.5c0,0.1,0,0.2-0.1,0.2
	c-0.1,0.1-0.2,0.1-0.2,0.1h-3.4c-0.1,0-0.2,0-0.3-0.1c-0.1-0.1-0.1-0.2-0.1-0.2V0.6c0-0.1,0-0.2,0.1-0.3c0.1-0.1,0.2-0.1,0.3-0.1
	h3.9c0.2,0,0.4,0.1,0.4,0.3l3.8,11.6c0,0.1,0,0.1,0.1,0.1c0,0,0.1,0,0.1-0.1c0,0,0,0,0,0l0-11.5C86.7,0.5,86.7,0.4,86.8,0.3z"/>
<path class="st0" d="M95.2,21.1c-0.1-0.1-0.1-0.2-0.1-0.2V0.6c0-0.1,0-0.2,0.1-0.3c0.1-0.1,0.2-0.1,0.3-0.1H99c0.1,0,0.2,0,0.2,0.1
	c0.1,0.1,0.1,0.2,0.1,0.3v20.3c0,0.1,0,0.2-0.1,0.2c-0.1,0.1-0.2,0.1-0.2,0.1h-3.5C95.4,21.2,95.3,21.2,95.2,21.1z M102.8,19.9
	c-1.1-1.1-1.7-2.6-1.6-4.1v-2.1c0-0.1,0-0.2,0.1-0.3c0.1-0.1,0.2-0.1,0.3-0.1h3.5c0.1,0,0.2,0,0.2,0.1c0.1,0.1,0.1,0.2,0.1,0.3v2.1
	c0,0.5,0.1,1,0.4,1.4c0.3,0.4,0.7,0.6,1.2,0.5c0.5,0,0.9-0.2,1.2-0.5c0.3-0.4,0.5-0.9,0.5-1.4V0.6c0-0.1,0-0.2,0.1-0.3
	c0.1-0.1,0.2-0.1,0.3-0.1h3.5c0.1,0,0.2,0,0.2,0.1c0.1,0.1,0.1,0.2,0.2,0.3v15.2c0.1,1.5-0.5,3-1.6,4.1c-1.2,1.1-2.7,1.6-4.3,1.5
	C105.5,21.6,103.9,21,102.8,19.9z"/>
<path class="st0" d="M117.3,21.1c-0.1-0.1-0.1-0.2-0.1-0.2V0.6c0-0.1,0-0.2,0.1-0.3c0.1-0.1,0.2-0.1,0.3-0.1h3.5
	c0.1,0,0.2,0,0.2,0.1c0.1,0.1,0.1,0.2,0.1,0.3v20.3c0,0.1,0,0.2-0.1,0.2c-0.1,0.1-0.2,0.1-0.2,0.1h-3.5
	C117.4,21.2,117.3,21.2,117.3,21.1z"/>
<path class="st0" d="M125.8,21.1c-0.1-0.1-0.1-0.2-0.1-0.2V0.6c0-0.1,0-0.2,0.1-0.3c0.1-0.1,0.2-0.1,0.3-0.1h3.5
	c0.1,0,0.2,0,0.2,0.1c0.1,0.1,0.1,0.2,0.1,0.3v7.6c0,0.1,0,0.1,0.1,0.1s0.1,0,0.1-0.1l3.9-7.7c0.1-0.2,0.2-0.3,0.4-0.3h3.7
	c0.1,0,0.2,0,0.3,0.1c0.1,0.1,0.1,0.2,0,0.3l-4.5,8.6c0,0.1,0,0.1,0,0.2l4.7,11.3c0,0.1,0,0.1,0,0.2c0,0.2-0.1,0.2-0.3,0.2h-3.8
	c-0.2,0-0.4-0.1-0.4-0.3l-3.2-7.9c0-0.1,0-0.1-0.1-0.1c0,0-0.1,0-0.1,0.1l-0.8,1.6c0,0.1-0.1,0.1-0.1,0.2v6c0,0.1,0,0.2-0.1,0.2
	c-0.1,0.1-0.2,0.1-0.2,0.1H126C125.9,21.2,125.8,21.2,125.8,21.1z"/>
<path class="st0" d="M150.4,20.9l-0.5-2.9c0-0.1-0.1-0.1-0.2-0.1H146c-0.1,0-0.2,0-0.2,0.1l-0.5,2.9c0,0.2-0.2,0.3-0.3,0.3
	c0,0,0,0,0,0h-3.5c-0.3,0-0.4-0.1-0.3-0.4l4.4-20.3c0-0.2,0.2-0.3,0.4-0.3c0,0,0,0,0,0h4.1c0.2,0,0.4,0.1,0.4,0.3c0,0,0,0,0,0
	l4.4,20.3V21c0,0.2-0.1,0.3-0.3,0.3h-3.6C150.6,21.3,150.4,21.1,150.4,20.9C150.4,20.9,150.4,20.9,150.4,20.9z M146.5,14.6h2.7
	c0.1,0,0.1,0,0.1-0.1l-1.4-8.2c0-0.1,0-0.1-0.1-0.1c-0.1,0-0.1,0-0.1,0.1l-1.4,8.2C146.4,14.6,146.4,14.6,146.5,14.6z"/>
</svg>
