<svg xmlns="http://www.w3.org/2000/svg" viewBox="0 0 395 180"><defs><style>.cls-1{fill:#ffb400;}.cls-2{opacity:0.5;}</style></defs><g id="Layer_2" data-name="Layer 2"><g id="文字要素_スクロール_" data-name="文字要素（スクロール）"><path class="cls-1" d="M70.69,50.26H64v3.63c.86.26,5.52,1.94,5.52,3.83a1,1,0,0,1-1,1c-.72,0-1-.35-2-2A7.14,7.14,0,0,0,64,54.41v4.07c0,1.13.14,7,.14,7.14,0,1.28-.86,1.45-1.23,1.45-.85,0-.85-.61-.85-.78,0-.93.16-2.44.19-3.37.07-2,.1-4.21.14-6.33,0-.41,0-2.26,0-2.64a25.88,25.88,0,0,1-7.79,8.68l-.2-.2a40.53,40.53,0,0,0,7.86-12.17h-2a29.91,29.91,0,0,0-4.25.35l-.76-1.25c1.81.12,3.63.2,5.48.2h1.71v-5a36.41,36.41,0,0,1-6.43.55v-.2c6.37-1.13,10.13-2.79,11.45-3.78l1.85,1.69a.56.56,0,0,1,.23.4c0,.29-.33.32-.56.32A4.1,4.1,0,0,1,68,43.38c-.69.17-2,.49-3.89.87v3.4c0,1,0,1.07,0,1.91h3.11l1-1.13c.13-.12.33-.35.53-.35a1.45,1.45,0,0,1,.59.32l1.59,1.1c.23.15.33.27.33.47S70.92,50.26,70.69,50.26ZM83,65.24c-.79,0-1.12-.58-1.35-1.19-.17-.37-.76-2.09-.9-2.44A58.55,58.55,0,0,1,73.3,63.3c-3.53.64-3.93.69-4.49.84-.4.61-.43.67-.66.67s-.33-.06-.66-.76L66.5,62a9.69,9.69,0,0,0,1.88.18l1.75-.06c4.19-13.27,4.29-13.59,5-16.82a11.81,11.81,0,0,0,.4-3.33l3.23,1.24c.2.09.43.24.43.44s-.17.35-1.62.84a120.93,120.93,0,0,1-6.7,17.6c.86-.06,6.54-.41,9.74-.87a21.85,21.85,0,0,0-3.93-5.43l.13-.21c7.23,4.45,7.5,7.81,7.5,8.34A1.21,1.21,0,0,1,83,65.24Z" transform="translate(-4.5 -4.5)"/><path class="cls-1" d="M106.56,64.23c9.87-3,10.33-9.24,10.33-10.75,0-5.08-5.48-7.81-10.33-7.81a3.64,3.64,0,0,0-1.22.15C107,47,107,47.88,107,48c0,.35-.1.47-.79,1.75-4,7.43-4.39,8.16-6.28,10.62-.16.21-1.22,1.57-1.88,1.8a1.52,1.52,0,0,1-.62.12c-.76,0-1-.32-1.92-1.48a4.32,4.32,0,0,0-.89-.79c-1.29-.92-1.72-1.94-1.72-3.91,0-5.84,5.58-11.33,14-11.33,6,0,12,3,12,9,0,5.32-4.86,10.08-12.28,10.72Zm-3.73-11.3a12.94,12.94,0,0,0,2-5,2.59,2.59,0,0,0-.92-1.86c-3.7.26-9.28,4.56-9.28,10.25,0,2.21,1.59,4.15,2.87,4.15a.93.93,0,0,0,.63-.2A11.24,11.24,0,0,0,100,57.66Z" transform="translate(-4.5 -4.5)"/><path class="cls-1" d="M156.39,56a12.44,12.44,0,0,1-2,.2c-.43.24-2.54,1.54-3,1.8l-.07-.11c.36-.67,1-2.21,1.35-3H139l1.16.55c.1.06.33.14.33.41s-.53.43-1.22.61c-.43.46-.66.78-1.13,1.27h8.16l.69-.46a1.48,1.48,0,0,1,.59-.26,1.19,1.19,0,0,1,.6.26l1.38,1a.66.66,0,0,1,.3.49c0,.41-.33.47-1.68.64-5.35,6.33-12.71,8.22-19.08,8.33l0-.26c5.12-.75,13.27-2.84,17.37-9h-9c-1,.93-1.26,1.22-1.52,1.45,1.58.23,4.52.76,4.52,2.56a.9.9,0,0,1-.92,1c-.6,0-.83-.32-1.39-1.11A8.13,8.13,0,0,0,135.86,60c-1.91,1.74-4.45,3.54-6.66,4v-.14c1.85-1,7.62-5.52,8.91-9h-8c-.17,2.35-1.68,3-2.31,3a.85.85,0,0,1-1-.84c0-.64.36-.93,1.42-1.77a5.84,5.84,0,0,0,1.52-2.65h.1a5,5,0,0,1,.23,1.6h22.44l.66-.44a1.15,1.15,0,0,1,.56-.2,1.23,1.23,0,0,1,.43.15l2,1.39a.77.77,0,0,1,.39.55A.38.38,0,0,1,156.39,56Zm-.06-11.93h-9.74a6,6,0,0,1-.1,1.59,1.29,1.29,0,0,1-1.09.61c-.52,0-.52-.32-.52-.49s.06-1.45.06-1.71h-6c0,.26,0,1.45,0,1.59a1.05,1.05,0,0,1-1,.79c-.17,0-.7,0-.7-.55,0-.3,0-1.57,0-1.83h-4.66a27,27,0,0,0-4.25.34l-.76-1.24c2.44.17,4.85.2,5.48.2h4.19a9,9,0,0,0-.23-2.82l2.44.47c.33,0,.43.14.43.29s-.1.2-1,.72c0,.38,0,.47,0,1.34h6a7,7,0,0,0-.23-2.9l2.51.58c.13,0,.43.08.43.32s-.1.26-1.06.66c0,.53,0,.85,0,1.34h6l1.09-1a1.06,1.06,0,0,1,.56-.35,1.58,1.58,0,0,1,.63.29l1.61,1c.07.06.33.23.33.47S156.53,44.05,156.33,44.05Zm-3.73,3.74c-.1.06-.66.32-.76.38,0,1.95,0,2.15,0,2.73,0,.17.07.84.07,1,0,.64-1,1-1.36,1s-.39-.29-.36-.93H133.49c0,.44-.83.87-1.26.87-.19,0-.62,0-.62-.49a9,9,0,0,1,.1-1.07c.06-1.11.13-2.53.13-3.57a5.65,5.65,0,0,0-.23-1.72l2.44,1H150l.4-.41c.29-.29.36-.32.49-.32a2.14,2.14,0,0,1,.6.29l1.05.56s.33.17.33.37A.44.44,0,0,1,152.6,47.79Zm-14.72-.14h-4.39v3.63h4.39Zm6,0h-4.35v3.63h4.35Zm6.37,0h-4.71v3.63h4.71Z" transform="translate(-4.5 -4.5)"/><path class="cls-1" d="M180.32,52.32c2.67,1.45,7.13,3.89,7.13,8.28s-4.86,5.57-7.2,5.57a7.76,7.76,0,0,1-5.45-2,5.64,5.64,0,0,1-1.18-3.77,14.64,14.64,0,0,1,.36-2.88c-2.11-.81-4.26-2-4.26-3.69,0-1.25.76-1.77,3.53-3.68.27-.18.33-.3.33-.47s0-.26-.33-.44c-2.41-1.39-2.67-1.56-3-2.06a2,2,0,0,1-.36-1.3c1.58,1.56,4.49,2.38,6.1,2.7a29.69,29.69,0,0,0,1-5.23c0-1.1-1.09-1.86-1.79-2.32a3.71,3.71,0,0,1,1-.15c1.68,0,3.33,1.54,3.33,2.38,0,.26,0,.41-.56,1.45a26.6,26.6,0,0,0-1.58,4.19c.89.4.89,1,.89,1.13,0,.58-.43.55-1.39.49-.16.64-.92,3.34-1.45,5.93a15.68,15.68,0,0,0,2.54.23c1.22,0,2.18.72,2.18,1.31,0,.4-.36.52-1.48.52a12.63,12.63,0,0,1-3.54-.58,12.55,12.55,0,0,0-.16,2,5,5,0,0,0,.89,3.2,5.52,5.52,0,0,0,4.32,1.82c3.44,0,5.25-2.32,5.25-4.5s-2-5.69-5.28-7.89Zm-6.7-1.6c-1.36.7-2.64,2-2.64,3.11,0,1.34,1.75,2,3.23,2.35a50.15,50.15,0,0,1,1.29-5.75A3.23,3.23,0,0,0,173.62,50.72Z" transform="translate(-4.5 -4.5)"/><path class="cls-1" d="M65.67,86.81a5.86,5.86,0,0,0,1.59-.32,44.45,44.45,0,0,1,6.14-1.24c.95,0,2.47,1.13,2.47,2,0,.38-.1.43-1,.9a17.18,17.18,0,0,0-1.52,1,94.27,94.27,0,0,1-9.81,6.53,4.92,4.92,0,0,0-1.08.75.18.18,0,0,0,.19.18c.13,0,.76-.15,1.22-.26,4.43-1.19,5.75-1.37,13.6-2.64a21.8,21.8,0,0,1,2.74-.47c.83,0,2.51.81,2.51,1.54,0,.44-.36.58-.86.58s-2.9-.2-3.4-.2a14.26,14.26,0,0,0-10.63,4.5,4,4,0,0,0-1.18,2.81c0,3.11,4.06,4.71,7.75,4.88A1.52,1.52,0,0,1,76,108.68c0,.46-.36.7-1.25.7a22.06,22.06,0,0,1-5.25-1.4c-2.84-1.1-4.09-3.34-4.09-5,0-1.34.69-4.73,7.22-7.49-3.1,0-9.77,1.83-13.2,3.54a4.34,4.34,0,0,1-1.65.46c-.79,0-1.32-.4-1.32-1s.5-.76,1.45-1c3-.67,5.75-2.67,10.93-6.5,2.24-1.69,4.42-3.84,4.42-4.42a.36.36,0,0,0-.39-.35,27.63,27.63,0,0,0-4.06,1.14A7.73,7.73,0,0,0,67,88.41a1.93,1.93,0,0,1-1.19.49,2.64,2.64,0,0,1-2.21-2.61,2.41,2.41,0,0,1,.13-.75A2.74,2.74,0,0,0,65.67,86.81Z" transform="translate(-4.5 -4.5)"/><path class="cls-1" d="M103.2,110.68c4.09-3.08,7.65-6.79,7.65-12.43a7,7,0,0,0-1.32-4.5,3.33,3.33,0,0,0-2.28-1A8.4,8.4,0,0,0,102,95.38c-1.09,1.07-1.79,1.77-2.61,1.77-2.05,0-3.43-1.77-3.23-2.93.92.64,1.38,1,2.11,1,.43,0,.66-.12,2.7-1.14,3-1.51,4.23-2.12,6.37-2.12,4.59,0,5.45,3.72,5.45,6.07a12.69,12.69,0,0,1-4.22,9.5,20.6,20.6,0,0,1-5.25,3.37Zm.19-21.57c1.62-1.4,1.82-1.54,1.82-1.89s-.07-.35-1.68-1.07a10.63,10.63,0,0,1-2.41-1.66c-.7-.64-.7-1-.73-1.31,2.11,1.31,2.48,1.51,5.81,2.27,1.62.35,3.53,1.22,3.53,2.32,0,.52-.46.52-.66.52-.36,0-1.85-.2-2.18-.2a8.68,8.68,0,0,0-3.4,1.11Z" transform="translate(-4.5 -4.5)"/><path class="cls-1" d="M155.24,109.06c-1.06,0-5.65.11-6.57.11-3.13,0-8.48-.06-11.22-1.07-2.11-.76-2.61-1.48-3.76-3.22-.86.92-3.21,3.42-3.47,3.83,0,.67,0,1-.33,1s-.36-.24-.46-.32l-1.78-1.95a15.25,15.25,0,0,0,4.78-2.32c0-.5.1-1,.1-1.6,0-.93-.07-5.87-.1-6.56a25.72,25.72,0,0,0-4.42.35L127.25,96c1,.09,2.54.17,4.75.23l.73-.64c.3-.26.3-.29.49-.29a.82.82,0,0,1,.47.21l1.15.81c.36.23.4.26.4.4s-.1.32-.93.85c0,.49-.1,1.22-.1,1.74,0,.75.1,4.12.1,4.82,0,.52,0,1.36,1.72,2.26,1.25.7,3.2,1.34,8.18,1.34,2.25,0,9.61-.2,13-1.22l.1.17C155.47,107.49,155.3,108.5,155.24,109.06ZM133.52,89c-.86,0-1.09-.49-1.58-1.6-1-2.17-1.72-2.67-2.21-3l.16-.18a10.21,10.21,0,0,1,2.9,1.31c1.46.93,1.85,1.57,1.85,2.35A1.06,1.06,0,0,1,133.52,89Zm23.07,2.47H139.92a29.91,29.91,0,0,0-4.25.35l-.76-1.25c1.81.12,3.66.2,5.48.2h3.73c0-.43,0-2.41,0-2.81H142.4a28,28,0,0,0-4.23.32L137.38,87c1.82.14,3.67.23,5.48.23h1.26c-.07-2.18-.24-2.58-.7-3.4l3.17.67a.36.36,0,0,1,.33.32c0,.35-.63.61-1.12.72v1.69h4.88l.6-.9c.16-.23.26-.41.46-.41a1.39,1.39,0,0,1,.66.29l1.29,1c.16.12.33.23.33.44s-.27.32-.5.32H145.8c0,.2,0,2.41,0,2.81h7.79l.73-.72c.16-.15.29-.38.53-.38s.36.14.66.32l1.22.73c.13.08.33.26.33.43S156.72,91.46,156.59,91.46Zm-2.9,14c-.63,0-.89-.24-1.92-1.14-1.25-1.1-4.16-2.73-5.71-2.87,0,.55.14,3.31.14,4s-.83,1.07-1.29,1.07c-.73,0-.73-.43-.73-.69,0-.53.17-3.17.17-3.78a21.06,21.06,0,0,0,0-2.29,24.21,24.21,0,0,1-7.92,4.44l-.1-.26a26.94,26.94,0,0,0,7.56-5.9h-3.33v.29a1.13,1.13,0,0,1-1.19,1.11c-.69,0-.69-.53-.69-.79,0-.49.13-3,.13-3.54a9,9,0,0,0-.23-2.29l2.21.81h9.08l.72-.64a.63.63,0,0,1,.83,0l1.12.7c.23.14.39.23.39.43s-.75.59-1,.73c0,.38.16,2.12.16,2.53,0,.11,0,.66-.26.87a1.47,1.47,0,0,1-1,.43c-.46,0-.5-.26-.5-.61h-4.09a5.84,5.84,0,0,1-.89.87l.93.53c.39.23.46.23.46.37s-.46.61-.63.73c0,.17,0,.61,0,.78a14.86,14.86,0,0,1,2.31.21c.1-.18.53-1.37.63-1.72,0-.11.13-.55.17-.84l1.94.84c.2.09.43.18.43.35s-.16.47-.59.47a1.36,1.36,0,0,1-.37-.06c-.46.29-1.18.7-1.78,1a20.56,20.56,0,0,1,3.86,1.17c1.62.72,1.92,1.3,1.92,1.94A.79.79,0,0,1,153.69,105.46Zm-3.47-11.18h-9.7v3h9.7Z" transform="translate(-4.5 -4.5)"/><path class="cls-1" d="M172.26,99.07a3,3,0,0,1-1.09-1.83c0-.67.3-1,1.16-1.89,5.71-5.46,7.69-7.35,8.32-8.3a1.37,1.37,0,0,0,.29-.82c0-.46-.13-.61-1.28-2a5.81,5.81,0,0,1,2,.49,3.09,3.09,0,0,1,1.55,2.38c0,.44-.13.53-.82,1-1.45,1-6.8,5.75-9,7.84-.59.61-.62,1-.62,1.19,0,.7.56,1.16,2.27,2.61,1.36,1.14,2.71,2.27,4.1,3.4s4.92,4.21,4.92,5.4c0,.47-.43,1.51-1.16,1.51-.56,0-.76-.35-1.19-1.16a26.8,26.8,0,0,0-4.85-5.78Z" transform="translate(-4.5 -4.5)"/><path class="cls-1" d="M211.93,86.55c0-.35-.46-1-2-1.3a1.52,1.52,0,0,1,1.25-.47A4.77,4.77,0,0,1,214.11,86c.3.26.39.41.39.7s-.09.29-.75,1.07a13.34,13.34,0,0,0-1.56,2.15,24.14,24.14,0,0,0,2.94-1,4.28,4.28,0,0,1,1.62-.49c.33,0,1.75.29,1.75.76s-.63.58-.7.6a57,57,0,0,1-6.5,1.51c-.72,1.19-4.06,7.35-4.39,7.84s-2.31,3.58-2.5,3.72a.8.8,0,0,1-.57.23c-.19,0-.62-.11-.62-.9s.26-1.1.95-1.85a39.82,39.82,0,0,0,3.9-5.87c.56-1,1.22-2.18,1.58-2.82a14.79,14.79,0,0,1-3.36.47c-2.94,0-3.24-1.83-3.3-2.3a4,4,0,0,0,2.9,1.08,26.51,26.51,0,0,0,4.46-.55A30,30,0,0,0,211.93,86.55Zm8.55,5.69c3.76,0,6.6,2.85,6.6,4.13a.61.61,0,0,1-.66.58,2.73,2.73,0,0,1-.83-.24,4.4,4.4,0,0,0-2.54-.63,6.73,6.73,0,0,0-4,1.07,2.35,2.35,0,0,0-.66,1.89c0,.78.4,3.66.53,4.47,3.17.64,6.24,1.95,6.24,3.43a.74.74,0,0,1-.73.81,1.69,1.69,0,0,1-.72-.26c-2.78-1.74-3.21-2-4.69-2.44-.1,3.8-4.46,4-5.25,4-2.47,0-4.72-1.19-4.72-2.85,0-1.94,2.87-3.08,6-3.08a18.37,18.37,0,0,1,2,.12c-.16-2.35-.16-2.62-.16-3.22,0-3,2.08-3.9,5.67-4.77.27-.05.66-.14.66-.55s-.79-.81-1.25-1.07a14.87,14.87,0,0,0-3.3-1.19A6.79,6.79,0,0,1,220.48,92.24Zm-5.58,12.08c-1.25,0-4.55.35-4.55,1.92,0,1.19,2,1.42,3,1.42s4.06-.35,3.92-3A9.37,9.37,0,0,0,214.9,104.32Z" transform="translate(-4.5 -4.5)"/><path class="cls-1" d="M250.77,95.41c-.46.81-4,7.14-4.09,7.43a3.22,3.22,0,0,0-.23,1.08c0,.2.23,1.13.23,1.33s-.23.64-.83.64-4.12-.23-5.77-6.33c-.3-1-.3-1.54-.66-6-.2-2.35-.3-3.08-1.59-4.85,1.75.06,3.67,1.71,3.67,3a4.18,4.18,0,0,1-.2,1.25,12,12,0,0,0-.23,2.47c0,1.63.43,5.72,2.47,7.14a1.56,1.56,0,0,0,.73.32,1,1,0,0,0,.79-.43c2.44-3.37,2.71-3.69,5.08-6.74,0-.06.2-.29.3-.41ZM258.26,99l3-.41c.26,0,.86-.14.86-.72a9.45,9.45,0,0,0-6.11-6.88,3.42,3.42,0,0,1,1-.18,6,6,0,0,1,3.76,1.8c2.51,2.5,3.56,5.49,3.56,6.86,0,.87-.43,1.74-.92,1.74-.23,0-.33-.06-1.16-.67-1.12-.84-1.85-1-4.06-1.34Z" transform="translate(-4.5 -4.5)"/><path class="cls-1" d="M300,107.34c-7.62-3.77-10.29-8.42-11.22-10.8h-.23v5.2c0,.38.33,6.94.33,7.17a.9.9,0,0,1-.33.84,2.23,2.23,0,0,1-1.26.44c-.69,0-.72-.47-.72-.76a1.81,1.81,0,0,1,0-.37c.2-2.79.23-5.14.23-10.57-2.47,3.22-8.41,7.89-13.53,9.49v-.14a40.67,40.67,0,0,0,12.77-11.33h-8.05a31.49,31.49,0,0,0-4.26.35L273,95.61c2.48.18,4.89.21,5.51.21h8.35c0-3.34,0-4.53,0-5.81H281a29.72,29.72,0,0,0-4.26.32L276,89.08c2.44.17,4.85.23,5.48.23h5.44c-.1-3.31-.23-4.7-.56-5.69l2.84.64c.36.09.43.23.43.38,0,.32-.53.63-1,.9v3.77h6l1-1.42c.17-.21.3-.38.5-.38a1.07,1.07,0,0,1,.59.29l1.75,1.45c.23.18.33.26.33.44s-.26.32-.49.32h-9.74v5.81H298l1.12-1.49c.23-.29.3-.37.5-.37s.29.06.66.32l1.91,1.51c.23.14.33.23.33.43s-.26.29-.49.29H289.25a20.61,20.61,0,0,0,13.86,8.8v.09A4.62,4.62,0,0,0,300,107.34Z" transform="translate(-4.5 -4.5)"/><path class="cls-1" d="M338.82,105.48a5.39,5.39,0,0,0-3,1.89,24.81,24.81,0,0,1-11-9c.1,4.88.13,7.41.23,9,0,.23.16,1.36.16,1.62,0,.76-1,1.08-1.68,1.08s-.69-.21-.69-.5c0-.11.16-1.6.16-1.89.2-4.12.2-5,.17-8.45-2.41,3.2-7.23,6.86-13.07,9l-.13-.26c4.29-2.53,8.54-5.46,11.84-10.08h-7a30.34,30.34,0,0,0-4.22.32l-.8-1.25c1.72.12,3.77.23,5.48.23h7.86c0-2.79,0-3.37-.1-8h-6.47a27.26,27.26,0,0,0-4.23.35l-.79-1.25c1.72.11,3.77.2,5.48.2h6c0-2.47-.07-3.22-.53-4.38l2.9.67c.2,0,.43.08.43.37a.37.37,0,0,1-.2.32c-.13.09-.76.41-.86.5-.06,1-.09,1.71-.09,2.52h7.12l1-1.16c.1-.14.26-.38.49-.38a1.76,1.76,0,0,1,.6.29l1.71,1.19c.13.09.33.26.33.44s-.33.32-.49.32H324.63c0,.61,0,2.12,0,4.38,0,.53.06,3.05.06,3.63h2.61a32.51,32.51,0,0,0,3.37-4.76,4,4,0,0,0,.79-2.12l2.74,1.4c.23.11.4.26.4.43,0,.38-.17.41-1.52.46-.36.35-.5.47-.69.64-3,2.76-3.4,3.14-4.46,4h5.87l1.49-1.19c.39-.32.46-.35.53-.35s.46.24.56.29L338,97c.19.14.39.26.39.46s-.36.32-.53.32h-13.1c2.54,3.72,7.46,6.36,14.09,7.49Zm-21.65-9.23c-.76,0-1-.52-1.19-1.39a7.92,7.92,0,0,0-2.35-4l.17-.11c2.15,1,4.49,2.2,4.49,4.35A1.08,1.08,0,0,1,317.17,96.25Z" transform="translate(-4.5 -4.5)"/><path class="cls-1" d="M65.41,131c-.13.09-.69.41-.83.5,0,.43.07,6.53.1,7.78,0,.67.2,4.1.2,4.33,0,1.65-1.25,1.65-1.38,1.65-.8,0-.76-.46-.76-.75s.06-.82.09-1.16H57.36c0,.58.26,3.39.26,3.6a1.4,1.4,0,0,1-1.52,1.42c-.43,0-.69-.17-.69-.61a4.75,4.75,0,0,1,.1-.78,22.29,22.29,0,0,0,.13-2.73c0-1.95,0-10.51,0-12.26a12.45,12.45,0,0,0-.33-3.31l2.78,1.63h4.12l1-.73c.3-.2.4-.26.6-.26a1.32,1.32,0,0,1,.59.26l.89.64c.13.09.33.23.33.44A.42.42,0,0,1,65.41,131Zm-2.54,0H57.36v11.65h5.51Zm20.79,5.52H75c0,2.53,0,4.88.1,7.47,0,1.24.3,7.57.3,7.89,0,1.4-1.52,1.4-1.59,1.4-.53,0-.69-.15-.69-.64s.2-2.06.2-2.41c.16-4.33,0-9.15-.1-13.71H70.53a29.59,29.59,0,0,0-4.26.35l-.76-1.25c1.81.12,3.63.2,5.48.2H73.2c-.07-1.74-.07-2.26-.07-3.42,0-4,0-4-.43-5.72l2.91.7c.23.05.63.14.63.43s-.63.61-1.26.87v7.14H79.7l1.59-1.5c.33-.32.36-.35.49-.35s.23,0,.63.4l1.42,1.37c.26.23.33.32.33.46C84.16,136.46,83.86,136.49,83.66,136.49Z" transform="translate(-4.5 -4.5)"/><path class="cls-1" d="M99.8,137.54a37.76,37.76,0,0,0,7.72-1.77,4.22,4.22,0,0,1,1.22-.38c.86,0,2.61,1,2.61,1.71,0,.32-.1.38-.86.84-1.22.7-3.1,1.86-8.25,6.71a9.86,9.86,0,0,1,1.48-.11c2.68,0,3.11,1.24,3.47,2.49.69,2.47,1.09,3.31,4,3.31a19.24,19.24,0,0,0,3.46-.35c.33-.05,1.79-.49,2.08-.49.53,0,1.52.52,1.52,1,0,.32-.2.52-.56.67a16.09,16.09,0,0,1-4.45.55c-5.71,0-6.64-1.11-7.5-4-.46-1.48-.76-2.5-2.57-2.5-1.49,0-2,.67-4.56,3.58C95.87,152,95.74,152,95.21,152c-.83,0-.86-1-.86-1.16,0-.93.49-1.25,1.42-1.86,1.12-.76,1.72-1.31,7.23-6.48.86-.81,4.68-4.41,4.85-4.85a.62.62,0,0,0,.07-.23c0-.32-.37-.41-.67-.41a18.83,18.83,0,0,0-5.87,1.86,2.89,2.89,0,0,1-1.42.52,3.47,3.47,0,0,1-2.67-2.17c0-.06.23-.76.23-.82A3,3,0,0,0,99.8,137.54Zm3.1-5.2c1.12-.58,1.25-.64,2.47-1.34.13-.08.3-.2.3-.37,0-.38-.56-.73-1.09-1-2.37-1.39-2.7-2.61-2.94-3.51a14.06,14.06,0,0,0,5.25,3.13c.76.29,2.74,1,2.74,2.12,0,.67-.69.67-1,.67s-1.71-.23-2-.23a15.88,15.88,0,0,0-2.77.49c-.39.09-.66.12-1,.2Z" transform="translate(-4.5 -4.5)"/><path class="cls-1" d="M138.87,151.45a29,29,0,0,0,6-1.51c3.36-1.25,6.07-3,6.07-5.81,0-2.3-1.95-3.92-4.49-3.92-5,0-9.9,3.75-11.22,5.72-.3.41-.4.58-.7.58-.85,0-1.48-1.57-1.48-2.26a13.45,13.45,0,0,1,.33-1.6,35.89,35.89,0,0,0,.73-6.42c0-2.26,0-2.5.52-3.19.8-1,1.26-1.14,5.32-1.86.13,0,.29-.06.29-.23s-.16-.21-.59-.41c-.69-.35-2.67-1.54-2.61-2.93a17.31,17.31,0,0,0,4.79,2.35c1.95.75,2.18,2,2.18,2.35,0,.58-.33.61-.63.61a3.35,3.35,0,0,1-1.42-.41,12.34,12.34,0,0,0-2.94-.29c-1.28,0-4,.06-4,1.89a4.11,4.11,0,0,0,.33,1.42,6.19,6.19,0,0,1,.37,1.34c0,.12-.24,1.07-.27,1.28a23,23,0,0,0-.66,4.59c0,.34.13.66.43.66.07,0,.17,0,.4-.17a19.26,19.26,0,0,1,10.92-3.92c4.13,0,6.24,2.7,6.24,5.05,0,3-2.94,4.91-4.56,5.58a25.66,25.66,0,0,1-9.4,1.71Z" transform="translate(-4.5 -4.5)"/><path class="cls-1" d="M194.41,145.41a15.42,15.42,0,0,1-3.53,3,8,8,0,0,1-3.76,1.1,4.13,4.13,0,0,1-3.3-1.65,5.39,5.39,0,0,1-.76-3.17c0-.75.26-2.76.52-4.76s.53-4,.53-4.68c0-.84-.29-1.8-1.55-1.8-2.31,0-6.7,3.86-9.7,7.61a37.18,37.18,0,0,0,.29,6,15.73,15.73,0,0,1,.14,1.95,6.92,6.92,0,0,1-.47,2.52.57.57,0,0,1-.52.35c-.6,0-.8-.7-1-1.22a14.71,14.71,0,0,0-1.35-2.93l.16-.09a6,6,0,0,0,1.45,1.11c.23,0,.27-.24.27-.35,0-.93-.27-4.94-.27-5.78-.62.84-4.06,5.75-4.42,6.3-.16.23-.39.61-.79.61s-.69-.44-.69-1.13a1.82,1.82,0,0,1,.79-1.6,30.83,30.83,0,0,0,5.15-8c.06-.93.1-1.22.23-2.44l-3.2,1.51c-.93.44-1.06.47-1.32.47-1.13,0-1.92-1.54-1.92-2.44a.79.79,0,0,1,.07-.41,2.69,2.69,0,0,0,1.91,1A27.52,27.52,0,0,0,172,135.1c.07-.67.43-3.75.43-4.18,0-1.51-.89-1.77-2.64-2.21a5.31,5.31,0,0,1,1.92-.38c1.78,0,2.9,1.25,2.9,1.95a4.18,4.18,0,0,1-.43,1.39,25.43,25.43,0,0,0-.66,2.76c.36,0,1.19.7,1.19,1s0,.2-.73,1.19a10.47,10.47,0,0,0-1,1.77c0,.49-.1,1.27-.1,1.6,2.94-3.66,7.43-7.56,10.14-7.56a2.72,2.72,0,0,1,2.83,2.91,13.09,13.09,0,0,1-.23,2.18,52.74,52.74,0,0,0-.95,7.37c0,2.06.43,2.82,2.34,2.82,2.71,0,6.34-1.86,7.16-2.47Z" transform="translate(-4.5 -4.5)"/><path class="cls-1" d="M209.52,130.57a46.17,46.17,0,0,0,6-1.19,12.12,12.12,0,0,1,1.72-.38,2.58,2.58,0,0,1,2.18,1.86c0,.35-.07.38-.76.81a6,6,0,0,0-1.46,1.19c-1,1-5.21,5.67-6.07,6.62-.43.5-.92,1.05-1.71,2a17.25,17.25,0,0,1,8.41-2.39c4.79,0,7.2,2.47,7.2,5.52,0,3.86-4,6.59-9.15,6.59-2.84,0-6.33-1-6.33-3.16,0-2,2.11-2.38,3.36-2.38,2.71,0,4.26,1.54,5.12,4a5.52,5.52,0,0,0,5-5.23c0-3-2.45-4.53-5.65-4.53-6.24,0-11,5.25-11.35,5.75-.83,1.22-1.22,1.8-2,1.8-.43,0-.72-.29-.72-1,0-1,.29-1.22,1.05-1.86,5.15-4.35,12-12.63,12-13.85,0-.38-.3-.41-.46-.41a20.06,20.06,0,0,0-5,1.49,5.29,5.29,0,0,1-1.29.58c-.93,0-2.71-1.25-2.71-2.59a.66.66,0,0,1,.33-.58A2.2,2.2,0,0,0,209.52,130.57Zm2.84,16.23c-.83,0-1.62.41-1.62,1.19,0,1.48,3.53,2.12,4.46,2.12a3.34,3.34,0,0,0,1.12-.17A4.51,4.51,0,0,0,212.36,146.8Z" transform="translate(-4.5 -4.5)"/><path class="cls-1" d="M245.26,146.77c.92.61,2.18,1.37,2.84,1.74a2.4,2.4,0,0,0,1.22.38,1.81,1.81,0,0,0,1.48-.87c1.95-3,2.61-8.31,2.61-9.38,0-2-.53-2.93-2.21-2.93a14.69,14.69,0,0,0-2.81.35c-.59,1.1-3,6.09-3.53,7.08-1.32,2.32-2.7,4.85-4.12,6.88-.07.09-.56.82-1.06.82s-.76-.38-.76-1.08c0-.9.37-1.28,1.26-2.23a52.49,52.49,0,0,0,3.4-5.11c1.18-2,2.8-5.38,3.07-6a40.72,40.72,0,0,0-4.92,1.72c-.66.4-.83.49-1.22.49a3.08,3.08,0,0,1-2.68-2.93.76.76,0,0,1,.14-.44,3.09,3.09,0,0,0,2.37,1.48,10.16,10.16,0,0,0,2.11-.37c2.71-.67,2.81-.67,4.76-1.14.56-1.16,1.78-3.8,1.78-4.79a1.52,1.52,0,0,0-1.09-1.57c-.2-.08-1.15-.49-1.32-.55a5.11,5.11,0,0,1,1.32-.14c2.34,0,3.47,1.3,3.47,1.88,0,.27,0,.29-.63,1.28-.33.52-1.52,3.05-1.78,3.54a17.28,17.28,0,0,1,2.41-.2c3.43,0,3.63,2.93,3.63,4.3,0,1.74-1.13,8.68-3.54,11-.42.41-1.78,1.66-2.77,1.66-.72,0-.76-.35-.79-.87s-.16-1.05-2.74-3.92ZM259,141.34c2.24-.06,4.46-.09,4.46-1.48,0-.67-1.56-2.82-6.54-5.81a11.65,11.65,0,0,1,7.16,3.75,6.19,6.19,0,0,1,1.85,4.3c0,.64-.13,1-.59,1-.27,0-.4-.05-1.09-.46a13.71,13.71,0,0,0-2.71-.58l-2.54-.52Z" transform="translate(-4.5 -4.5)"/><path class="cls-1" d="M289.32,138.32c2.67,1.45,7.12,3.89,7.12,8.28s-4.85,5.57-7.19,5.57a7.76,7.76,0,0,1-5.45-2,5.64,5.64,0,0,1-1.18-3.77,14.64,14.64,0,0,1,.36-2.88c-2.11-.81-4.26-2-4.26-3.69,0-1.25.76-1.77,3.53-3.68.27-.18.33-.3.33-.47s0-.26-.33-.44c-2.41-1.39-2.67-1.56-3-2.06a2,2,0,0,1-.36-1.3c1.58,1.56,4.49,2.38,6.1,2.7a29.69,29.69,0,0,0,1-5.23c0-1.1-1.09-1.86-1.79-2.32a3.71,3.71,0,0,1,1-.15c1.68,0,3.33,1.54,3.33,2.38,0,.26,0,.41-.56,1.45a26.6,26.6,0,0,0-1.58,4.19c.89.4.89,1,.89,1.13,0,.58-.43.55-1.39.49-.16.64-.92,3.34-1.45,5.93a15.58,15.58,0,0,0,2.54.23c1.22,0,2.18.72,2.18,1.31,0,.4-.36.52-1.48.52a12.63,12.63,0,0,1-3.54-.58,12.55,12.55,0,0,0-.16,2,5,5,0,0,0,.89,3.2,5.52,5.52,0,0,0,4.32,1.82c3.44,0,5.25-2.32,5.25-4.5s-2-5.69-5.28-7.89Zm-6.7-1.6c-1.36.7-2.64,2-2.64,3.11,0,1.34,1.74,2,3.23,2.35a50.15,50.15,0,0,1,1.29-5.75A3.23,3.23,0,0,0,282.62,136.72Z" transform="translate(-4.5 -4.5)"/><path class="cls-1" d="M314.92,140a2.1,2.1,0,1,1-2.08-1.83A2,2,0,0,1,314.92,140Zm11,0a2.1,2.1,0,1,1-2.08-1.83A2,2,0,0,1,325.91,140Zm11,0a2.09,2.09,0,1,1-2.08-1.83A2,2,0,0,1,336.9,140Z" transform="translate(-4.5 -4.5)"/><g class="cls-2"><polygon class="cls-1" points="0 49 0 0 49 0 49 2 2 2 2 49 0 49"/></g><g class="cls-2"><polygon class="cls-1" points="346 180 346 178 393 178 393 131 395 131 395 180 346 180"/></g></g></g></svg>