<svg xmlns="http://www.w3.org/2000/svg" viewBox="0 0 191.26 34.56"><g id="Layer_2" data-name="Layer 2"><g id="文字要素_スクロール_" data-name="文字要素（スクロール）"><path d="M8.31,34.34H3V18.79c-.72.94-.86,1.12-1.62,2L0,12.71C1.22,11.12,3.67,8,4.93,0l5.22.39a62.21,62.21,0,0,1-1.84,8ZM10,29.84c1.41-.58,5.33-2.27,7-6.51h-6V18.21h6.94c0-.72,0-1,0-1.62V14.51H9.36V9.65h8.53V6.19H11.23v-5H33V9.65H34.7v4.86H33v8.82H22.35c-.57,2.37-1.62,6.87-8.92,11.12ZM23,16.59c0,.69,0,.87,0,1.62h4.72v-3.7H23Zm0-6.94h4.68V6.19H23Z"/><path d="M49.94,13.68H48.18v9.14c.75-.21,1.22-.4,2.37-.79l.11,5a82.4,82.4,0,0,1-10.91,3.71l-.82-5.73c1-.14,1.62-.25,4-.75V13.68H39.5V8.5h3.39V.18h5.29V8.5h2.48v2.59l1.3-.36V3.42h5v6l2.84-.72V.18h5v7.2l8-2c0,4.06-.25,12.67-.61,15.15-.11.9-.51,3.6-3.49,3.6H66.14l-1-5.33h1.15c1.12,0,1.51,0,1.55-6.58l-3,.75V25.81h-5V14.25L57,15V27.68c0,.4.18.83,1,.83h9.14c1.15,0,1.66,0,1.8-4.07l4.93,1.12c-.21,4.46-.72,8.24-4.71,8.24H56c-3.88,0-4.06-2.56-4.06-3.92V16.27l-1.69.47Z"/><path d="M97.29,1.91H112V33.55H97.29V28L94,32.61a24.56,24.56,0,0,1-4.79-7.16A24.78,24.78,0,0,1,82,34.56L78.5,29.91a15.67,15.67,0,0,0,7.16-10.29h-7V14.43h7.56V9h-.93a34.28,34.28,0,0,1-2.59,4.64l-4.4-3.31A24.93,24.93,0,0,0,83,0l5.22.54c-.29,1.19-.47,1.76-.9,3.35H96.1V9H91.53v5.39h5v5.19H91v.07a28.11,28.11,0,0,0,6.3,8Zm9.43,5.25H102.4v21.1h4.32Z"/><path d="M131.13,32.07c0-.79,0-1.08-.14-2.16-1.29.43-7.52,2.23-12.53,3.35l-.68-5.4c1.22-.14,2.52-.32,5.94-.94V20.81h-4.93V5.18h4.93v-5h4.82v5h4.93V20.81h-5.18V26c1.08-.21,1.55-.32,2-.43-.29-1.37-.47-1.91-.72-2.77l4-1a42.18,42.18,0,0,1,1.44,6h4.93V7.42h-5.58V1.94h16.84V7.42h-5.72V27.79H152v5.58H133.19V31.6Zm-8.74-22V15.8H124V10.08Zm5.9,0V15.8h1.55V10.08Z"/><path d="M189.64,34.45c-9.86-.58-14.86-2.16-15.87-2.49A58.13,58.13,0,0,1,158,34.41l-1.18-4.5a54.62,54.62,0,0,0,10.25-.61,22.63,22.63,0,0,1-3.56-2.3,47.42,47.42,0,0,1-4.72,1.44L157,24.3a26.68,26.68,0,0,0,8.39-2.95h-5.33V6.62H170a9.72,9.72,0,0,0,.4-1.11H157V1.19h33.91V5.51h-14.8c-.14.39-.21.5-.46,1.11h12.16V21.35H172.29c-.39.43-.64.68-1.08,1.11h14.44v3.17a19.9,19.9,0,0,1-4.9,3.56,70.85,70.85,0,0,0,7.17.36c1.44,0,2.41,0,3.34-.07Zm-6.84-25H165.2v1.33h17.6Zm0,3.85H165.2v1.33h17.6Zm0,3.85H165.2V18.5h17.6ZM168,25.67a26.27,26.27,0,0,0,5.66,2.19,21.22,21.22,0,0,0,5.4-2.19Z"/></g></g></svg>