<svg xmlns="http://www.w3.org/2000/svg" viewBox="0 0 315.81 60.57"><defs><style>.cls-1{fill:#f1f1f1;}.cls-2{fill:none;stroke:#f1f1f1;stroke-miterlimit:10;stroke-width:0.8px;}.cls-3{fill:#ffb400;}</style></defs><g id="Layer_2" data-name="Layer 2"><g id="文字要素_スクロール_" data-name="文字要素（スクロール）"><path class="cls-1" d="M15.82,20.08a3.55,3.55,0,0,1-.7.43,3.44,3.44,0,0,1-.82.28,4.88,4.88,0,0,1-1,.09,3.78,3.78,0,0,1-1.56-.31,3.68,3.68,0,0,1-1.24-.84,3.76,3.76,0,0,1-.82-1.26,4,4,0,0,1-.3-1.56,4.19,4.19,0,0,1,.29-1.55,4,4,0,0,1,.82-1.27,3.9,3.9,0,0,1,2.86-1.17,4.78,4.78,0,0,1,1,.09,4.31,4.31,0,0,1,.79.24,3.9,3.9,0,0,1,.67.38,5.47,5.47,0,0,1,.59.49l-.87,1a4.17,4.17,0,0,0-1-.69,2.5,2.5,0,0,0-1.18-.27,2.29,2.29,0,0,0-1,.22,2.27,2.27,0,0,0-.81.58,2.44,2.44,0,0,0-.53.86A3.11,3.11,0,0,0,11,18a2.53,2.53,0,0,0,.53.88,2.27,2.27,0,0,0,.81.58,2.29,2.29,0,0,0,1,.22,2.52,2.52,0,0,0,1.21-.27,4.62,4.62,0,0,0,1-.73l.87.88A4.08,4.08,0,0,1,15.82,20.08Z"/><path class="cls-1" d="M23.88,13.05h1.46l-3.2,7.76H21l-3.2-7.76h1.5L21.57,19Z"/><path class="cls-1" d="M55.66,10.67v1.51H53.14v2.28H56.6v2.45H53.14v6.76c1.84-.26,3-.52,3.92-.7v2.47A80.34,80.34,0,0,1,46.69,27l-.31-2.57c1.22-.08,2.31-.16,4.34-.42V16.91H46.59V14.46h4.13V12.18H48.35V10.51c-.52.52-.78.73-1.27,1.15L46,9.13a13.22,13.22,0,0,0,4.66-5.87H53.5a11.71,11.71,0,0,0,3.9,4.18L55.66,9.52a13.77,13.77,0,0,1-3.48-3.9,25.87,25.87,0,0,1-3.07,4.11h6.55v.91c4-3,5.54-5.48,6.27-7.38h3.2a19.62,19.62,0,0,0,6.26,6.81L70,12.51A21.48,21.48,0,0,1,68.09,11v2.16h-8.5V10.88a22.32,22.32,0,0,1-2.21,2ZM49,18.31a24.94,24.94,0,0,1,.6,4.27l-2.08.36A23.89,23.89,0,0,0,47,18.52Zm7.7-.08a21.15,21.15,0,0,1-.81,4.16l-2-.31a22.4,22.4,0,0,0,.63-4.16Zm13.2-2.78v8.3c0,1.71-.8,2.21-2.83,2.21H65.18l-.45-2.63h1.8c.68,0,.83-.16.83-.83V18h-4v9.64H60.73V18H57.38v-2.5Zm-2.18-4.76a24.55,24.55,0,0,1-4.13-5.35,21.32,21.32,0,0,1-3.85,5.35Z"/><path class="cls-1" d="M79.24,15.09a21.2,21.2,0,0,1-1.79,2.16l-1.12-3.31c1.12-1.3,3.33-3.92,4.55-10.73l2.83.44A36.94,36.94,0,0,1,81.92,10V27.59H79.24Zm10.17-4.71C89.15,8.22,89,6,88.86,3.21H91.8c.08,1.89.16,3.77.47,7L101,9.58l.21,2.54-8.6.68c1.79,11,4.62,11.52,4.83,11.52a.75.75,0,0,0,.73-.47A14,14,0,0,0,99,20.44l2.55,1.3c-.86,4.66-2,5.93-3.67,5.93a4.17,4.17,0,0,1-3.07-1.35c-2.91-2.65-4.21-7.85-5.09-13.31L84,13.45l-.26-2.68Zm5.67-7a22.56,22.56,0,0,1,4.7,3.88l-1.9,2a27.15,27.15,0,0,0-4.44-4Z"/><path class="cls-1" d="M109.82,18.44a31.48,31.48,0,0,1-1,7.46l-2.37-1a23.1,23.1,0,0,0,1.12-6.84Zm-3.1-4,1.51,0c.37-.47.83-1.06,1.61-2.18A29.49,29.49,0,0,0,106.57,9l1.35-2,.68.52a25.83,25.83,0,0,0,2.28-4.29l2.4.78a36.54,36.54,0,0,1-3,5.07c.6.6.81.86,1,1.12a49.47,49.47,0,0,0,2.58-4.27l2.29.94A48.73,48.73,0,0,1,111,14.33c.73-.05,1.66-.1,2.91-.2-.18-.45-.31-.76-.68-1.56l1.93-.76a31.75,31.75,0,0,1,1.74,4.58l-2.08.86c-.08-.26-.21-.84-.26-1.07-.36.05-.81.13-1.59.21v11.2h-2.47v-11c-2.47.21-2.73.21-3.61.26Zm9,3.77a29.71,29.71,0,0,1,.67,5.12l-2.23.16a30.45,30.45,0,0,0-.42-5Zm14.51-1.64a16.11,16.11,0,0,1-13.42,11l-1.25-2.47c7.41-.83,10.32-4.81,12.28-9.56Zm-8.92-10c-.24,1.84-.91,6.29-2.63,9.3l-2.29-1.66a18.51,18.51,0,0,0,2.29-8.14Zm1.32-3.41h2.66V17.09a2,2,0,0,1-2.11,2.26h-3l-.45-2.78H122c.39,0,.54,0,.54-.44Zm7,12.45a21.44,21.44,0,0,1-3.17-9.07l2.6-.62c.57,4.78,2.08,6.86,2.76,7.8Z"/><path class="cls-1" d="M160.47,15.63c-.42,8.48-1,12-4.71,12h-6.84l-.41-2.73h6.76a1.46,1.46,0,0,0,1.56-1.17,35.19,35.19,0,0,0,.75-5.49H138.26a37.84,37.84,0,0,0,1.51-8.11h16.95V6.59H137.79V4.06h21.66V12.7H142.32c-.18,1.32-.21,1.48-.5,2.93Z"/><circle class="cls-2" cx="16.75" cy="16.4" r="16"/><path class="cls-1" d="M6.83,48.49H8.54v9.8H7.11l-5.4-7v7H0V48.5H1.59l5.25,6.77Z"/><path class="cls-1" d="M11.59,49.76V48.15h1.84v1.61Zm.08,8.53V50.9h1.71v7.39Z"/><path class="cls-1" d="M18.08,50.89v7.49A2.19,2.19,0,0,1,17.53,60a2.29,2.29,0,0,1-1.62.53l-.42,0-.39,0V59.14a2.74,2.74,0,0,0,.48,0,.85.85,0,0,0,.58-.2,1,1,0,0,0,.21-.69v-7.4ZM16.3,49.76V48.15h1.83v1.61Z"/><path class="cls-1" d="M21,49.76V48.15h1.83v1.61Zm.08,8.52V50.89h1.71v7.39Z"/><path class="cls-1" d="M32.61,58.27h-2l-2.23-3.19-1,1.08v2.12H25.68V48.06h1.7v6.1l3.06-3.28h2.06l-2.94,3Z"/><path class="cls-1" d="M39.05,58.27v-.91a3,3,0,0,1-2.39,1.06,3.33,3.33,0,0,1-1-.14,2.52,2.52,0,0,1-.83-.43,2.28,2.28,0,0,1-.58-.72,2.33,2.33,0,0,1-.22-1v0a2.26,2.26,0,0,1,.23-1,2,2,0,0,1,.62-.75,3,3,0,0,1,1-.44,4.59,4.59,0,0,1,1.2-.15,6.12,6.12,0,0,1,1.14.09,6.57,6.57,0,0,1,.9.22v-.18a1.46,1.46,0,0,0-.47-1.18,2,2,0,0,0-1.35-.4,4.75,4.75,0,0,0-1.12.12,7.73,7.73,0,0,0-1,.34l-.46-1.36a8.45,8.45,0,0,1,1.25-.44,5.9,5.9,0,0,1,1.56-.17,3.3,3.3,0,0,1,2.45.81,3.19,3.19,0,0,1,.8,2.3v4.39Zm0-3.14a5.09,5.09,0,0,0-.76-.21,5.55,5.55,0,0,0-.93-.08,2.16,2.16,0,0,0-1.25.31,1,1,0,0,0-.44.88v0a.91.91,0,0,0,.41.81,1.72,1.72,0,0,0,1,.28,2.77,2.77,0,0,0,.78-.11,1.91,1.91,0,0,0,.62-.32,1.41,1.41,0,0,0,.42-.49,1.47,1.47,0,0,0,.14-.64Z"/><path class="cls-1" d="M50.34,48.46v9.8H48.64v-9.8Z"/><path class="cls-1" d="M55.29,50.86v7.49A2.19,2.19,0,0,1,54.74,60a2.29,2.29,0,0,1-1.62.53l-.42,0-.39-.05V59.11a2.74,2.74,0,0,0,.48,0,.8.8,0,0,0,.58-.2,1,1,0,0,0,.21-.69v-7.4Zm-1.78-1.13V48.12h1.83v1.61Z"/><path class="cls-1" d="M58.21,49.73V48.12H60v1.61Zm.08,8.52V50.86H60v7.39Z"/><path class="cls-1" d="M68.1,58a3.72,3.72,0,0,1-1.78.39,3.63,3.63,0,0,1-1.52-.31,3.55,3.55,0,0,1-1.22-.82,3.85,3.85,0,0,1-.8-1.22,3.7,3.7,0,0,1-.29-1.49,4,4,0,0,1,.28-1.5,4,4,0,0,1,.81-1.23A3.9,3.9,0,0,1,64.8,51a3.7,3.7,0,0,1,1.53-.31,4,4,0,0,1,1.75.35,4.18,4.18,0,0,1,1.21.92l-1.05,1.14a4.05,4.05,0,0,0-.84-.67,2.11,2.11,0,0,0-1.08-.25,2.07,2.07,0,0,0-.86.18,2.12,2.12,0,0,0-.67.52,2.52,2.52,0,0,0-.44.75,2.72,2.72,0,0,0-.16.91,2.62,2.62,0,0,0,.17.94,2.16,2.16,0,0,0,.45.76,2.38,2.38,0,0,0,.7.51,2.19,2.19,0,0,0,.9.18,2.09,2.09,0,0,0,1-.25,4.16,4.16,0,0,0,.86-.67l1,1A4.79,4.79,0,0,1,68.1,58Z"/><path class="cls-1" d="M73.3,58.24H71.59V48h1.71v4a3.25,3.25,0,0,1,.4-.5,2.28,2.28,0,0,1,.5-.42,2.59,2.59,0,0,1,.63-.29,2.65,2.65,0,0,1,.77-.11,2.49,2.49,0,0,1,2,.77,3.05,3.05,0,0,1,.68,2.07v4.71h-1.7V54.05a1.91,1.91,0,0,0-.41-1.33,1.43,1.43,0,0,0-1.16-.47,1.56,1.56,0,0,0-1.19.48,1.9,1.9,0,0,0-.46,1.35Z"/><path class="cls-1" d="M81,49.71V48.1h1.83v1.61Zm.08,8.53v-7.4h1.71v7.39Z"/><path class="cls-1" d="M97,47.05,90.63,60H89.16l6.32-13Z"/><path class="cls-1" d="M111.4,57.36a4.54,4.54,0,0,1-.89.55,4.39,4.39,0,0,1-1,.35,6.13,6.13,0,0,1-1.26.12,5,5,0,0,1-2-.39,4.92,4.92,0,0,1-1.57-1.07,5.05,5.05,0,0,1-1.05-1.6,5.46,5.46,0,0,1-.38-2,5.35,5.35,0,0,1,.37-2,4.92,4.92,0,0,1,1-1.62,4.79,4.79,0,0,1,1.59-1.09,5.05,5.05,0,0,1,2-.4,5.86,5.86,0,0,1,1.23.11,4.79,4.79,0,0,1,1,.31,5.46,5.46,0,0,1,.86.48,7.36,7.36,0,0,1,.74.62L111,51a6,6,0,0,0-1.25-.88,3.31,3.31,0,0,0-1.5-.33,3,3,0,0,0-1.29.27,3.07,3.07,0,0,0-1,.75,3.27,3.27,0,0,0-.67,1.09A3.81,3.81,0,0,0,105,53.3a3.87,3.87,0,0,0,.24,1.37,3.47,3.47,0,0,0,.67,1.11,3.18,3.18,0,0,0,1,.75,3.12,3.12,0,0,0,1.3.27,3.24,3.24,0,0,0,1.54-.34,5.85,5.85,0,0,0,1.27-.94l1.11,1.12A6.6,6.6,0,0,1,111.4,57.36Z"/><path class="cls-1" d="M121.64,48.4h1.87l-4.07,9.88h-1.51l-4.08-9.87h1.9l3,7.53Z"/><path class="cls-1" d="M132.33,51.46a.93.93,0,0,0,.36.39,2.47,2.47,0,0,0,.71.34c.31.1.69.21,1.16.32a10.63,10.63,0,0,1,1.37.43,3.59,3.59,0,0,1,1,.58,2.44,2.44,0,0,1,.6.8,2.69,2.69,0,0,1,.2,1.07,2.94,2.94,0,0,1-.25,1.25,2.71,2.71,0,0,1-.72.92,3,3,0,0,1-1.1.58,5.22,5.22,0,0,1-1.41.2,6,6,0,0,1-4.09-1.57l1-1.23a6.06,6.06,0,0,0,1.45.94,3.92,3.92,0,0,0,1.65.33,2.12,2.12,0,0,0,1.27-.34,1.06,1.06,0,0,0,.46-.91,1.16,1.16,0,0,0-.09-.47.88.88,0,0,0-.34-.39,2.45,2.45,0,0,0-.67-.33c-.28-.1-.66-.21-1.11-.32a11.41,11.41,0,0,1-1.4-.4,3.72,3.72,0,0,1-1-.56,2.4,2.4,0,0,1-.63-.82,3,3,0,0,1,0-2.33,2.78,2.78,0,0,1,.69-.9,3.13,3.13,0,0,1,1-.58,4.14,4.14,0,0,1,1.34-.2,5.38,5.38,0,0,1,1.94.31,5.66,5.66,0,0,1,1.62.91l-.92,1.31a6,6,0,0,0-1.33-.75,3.7,3.7,0,0,0-1.33-.26,1.86,1.86,0,0,0-1.18.34,1.05,1.05,0,0,0-.42.84A1.12,1.12,0,0,0,132.33,51.46Z"/><path class="cls-1" d="M144.78,58.19v-.91a3,3,0,0,1-2.39,1.06,3.68,3.68,0,0,1-1-.14,2.59,2.59,0,0,1-.84-.44,2.35,2.35,0,0,1-.57-.71,2.19,2.19,0,0,1-.22-1v0A2.32,2.32,0,0,1,140,55a2.1,2.1,0,0,1,.62-.74,2.88,2.88,0,0,1,1-.44,4.59,4.59,0,0,1,1.2-.15,6.27,6.27,0,0,1,1.14.09,6.57,6.57,0,0,1,.9.22v-.18a1.48,1.48,0,0,0-.47-1.18,2,2,0,0,0-1.35-.4,4.75,4.75,0,0,0-1.12.12,7.73,7.73,0,0,0-1,.34l-.47-1.36a8.23,8.23,0,0,1,1.26-.45,6.88,6.88,0,0,1,1.56-.17,3.32,3.32,0,0,1,2.45.82,3.17,3.17,0,0,1,.8,2.3v4.39Zm0-3.14a5.45,5.45,0,0,0-.76-.21,5.64,5.64,0,0,0-.93-.08,2.14,2.14,0,0,0-1.25.31,1,1,0,0,0-.45.88v0a.92.92,0,0,0,.42.81,1.72,1.72,0,0,0,1,.28,2.77,2.77,0,0,0,.78-.11,2.27,2.27,0,0,0,.62-.32,1.29,1.29,0,0,0,.41-.49,1.34,1.34,0,0,0,.15-.64Z"/><path class="cls-1" d="M153.12,58.39a6.33,6.33,0,0,1-.46,1,2.39,2.39,0,0,1-.53.63,1.7,1.7,0,0,1-.64.36,2.5,2.5,0,0,1-.8.11,3.73,3.73,0,0,1-.94-.11,4.09,4.09,0,0,1-.81-.34l.57-1.27A3,3,0,0,0,150,59a1.7,1.7,0,0,0,.51.07,1,1,0,0,0,.6-.18,1.61,1.61,0,0,0,.45-.67l-3.09-7.38h1.81l2.1,5.49,1.91-5.49h1.77Z"/><path class="cls-1" d="M163.06,50.78h1.71v7.39h-1.71V57a3.61,3.61,0,0,1-.9.93,2.36,2.36,0,0,1-1.4.39,2.47,2.47,0,0,1-1.94-.77,3,3,0,0,1-.69-2.07V50.78h1.71V55a2,2,0,0,0,.41,1.34,1.47,1.47,0,0,0,1.16.46,1.56,1.56,0,0,0,1.19-.48,1.86,1.86,0,0,0,.46-1.35Z"/><path class="cls-1" d="M174.81,51a2.79,2.79,0,0,1,1.45-.36,2.46,2.46,0,0,1,1.9.73,2.94,2.94,0,0,1,.69,2.09v4.72h-1.71V54a2,2,0,0,0-.39-1.34,1.34,1.34,0,0,0-1.1-.46,1.49,1.49,0,0,0-1.13.47,1.89,1.89,0,0,0-.44,1.36v4.16h-1.71V54a2,2,0,0,0-.39-1.33,1.39,1.39,0,0,0-1.1-.46,1.48,1.48,0,0,0-1.14.49A2,2,0,0,0,169.3,54v4.15H167.6V50.78h1.71v1.13a4.54,4.54,0,0,1,.39-.48,2.48,2.48,0,0,1,.49-.41,2,2,0,0,1,.61-.29,2.58,2.58,0,0,1,.76-.11,2.38,2.38,0,0,1,1.35.36,2.36,2.36,0,0,1,.85,1A3.68,3.68,0,0,1,174.81,51Z"/><path class="cls-1" d="M181.62,49.63V48h1.83v1.61Zm.08,8.53V50.77h1.71v7.39Z"/><path class="cls-1" d="M192.93,51.42a1.09,1.09,0,0,0,.36.39,2.87,2.87,0,0,0,.72.33,10.57,10.57,0,0,0,1.16.32,11.08,11.08,0,0,1,1.37.44,3.64,3.64,0,0,1,1,.58,2.25,2.25,0,0,1,.59.79,2.6,2.6,0,0,1,.21,1.08,2.89,2.89,0,0,1-.26,1.24,2.71,2.71,0,0,1-.71.93,3.19,3.19,0,0,1-1.1.57,4.87,4.87,0,0,1-1.42.2,6.13,6.13,0,0,1-2.17-.39,5.71,5.71,0,0,1-1.92-1.18l1-1.23a6.27,6.27,0,0,0,1.44.95,4.15,4.15,0,0,0,1.65.32,2.15,2.15,0,0,0,1.27-.33,1.08,1.08,0,0,0,.47-.91,1.21,1.21,0,0,0-.09-.48,1,1,0,0,0-.34-.39,3,3,0,0,0-.67-.32c-.29-.11-.66-.21-1.12-.33a12,12,0,0,1-1.4-.4,3.66,3.66,0,0,1-1-.56,2.07,2.07,0,0,1-.63-.81,2.73,2.73,0,0,1-.22-1.16,2.64,2.64,0,0,1,.25-1.17,2.75,2.75,0,0,1,.68-.91,3.29,3.29,0,0,1,1.06-.58,4.33,4.33,0,0,1,1.34-.2,5.64,5.64,0,0,1,1.94.31,5.78,5.78,0,0,1,1.61.92l-.92,1.3a5.79,5.79,0,0,0-1.33-.75,3.66,3.66,0,0,0-1.33-.26,1.79,1.79,0,0,0-1.17.35,1,1,0,0,0-.42.83A1.33,1.33,0,0,0,192.93,51.42Z"/><path class="cls-1" d="M205.7,50.75h1.71v7.39h-1.71V57a3.83,3.83,0,0,1-.91.93,2.41,2.41,0,0,1-1.4.39,2.49,2.49,0,0,1-1.94-.77,3.05,3.05,0,0,1-.68-2.07V50.75h1.71v4.19a1.91,1.91,0,0,0,.41,1.33,1.43,1.43,0,0,0,1.16.47,1.57,1.57,0,0,0,1.19-.48,1.9,1.9,0,0,0,.46-1.35Z"/><path class="cls-1" d="M210.06,52.13V50.74h6.28V51.9l-4.27,4.85h4.27v1.38h-6.42V57l4.26-4.84Z"/><path class="cls-1" d="M223.62,50.73h1.71v7.39h-1.7V57a4,4,0,0,1-.91.92,2.34,2.34,0,0,1-1.4.39,2.45,2.45,0,0,1-1.94-.77,3,3,0,0,1-.68-2.07v-4.7h1.71v4.19a2,2,0,0,0,.42,1.33,1.44,1.44,0,0,0,1.15.47,1.57,1.57,0,0,0,1.2-.49,1.84,1.84,0,0,0,.45-1.34Z"/><path class="cls-1" d="M233.23,57a2,2,0,0,1-.58.72,2.68,2.68,0,0,1-.88.43,3.69,3.69,0,0,1-1.07.15,4.93,4.93,0,0,1-1.62-.28,5.1,5.1,0,0,1-1.52-.82l.75-1.15a5.39,5.39,0,0,0,1.23.68,3.53,3.53,0,0,0,1.2.23,1.45,1.45,0,0,0,.84-.22.64.64,0,0,0,.3-.58v0a.52.52,0,0,0-.13-.36,1.15,1.15,0,0,0-.36-.28,3.25,3.25,0,0,0-.53-.21l-.63-.19c-.27-.08-.54-.17-.82-.28a3.07,3.07,0,0,1-.74-.39,2.1,2.1,0,0,1-.54-.61,1.69,1.69,0,0,1-.21-.88v0a2.2,2.2,0,0,1,.2-.94,2.06,2.06,0,0,1,.56-.71,2.43,2.43,0,0,1,.84-.45,3.17,3.17,0,0,1,1-.16,4.62,4.62,0,0,1,1.41.23,4.77,4.77,0,0,1,1.31.61l-.67,1.21a5.92,5.92,0,0,0-1.08-.52,3.27,3.27,0,0,0-1-.18,1.21,1.21,0,0,0-.76.21.63.63,0,0,0-.28.53v0a.49.49,0,0,0,.14.34,1.42,1.42,0,0,0,.38.27,3.86,3.86,0,0,0,.53.22l.62.2c.27.09.54.18.81.3a3.12,3.12,0,0,1,.74.41,2,2,0,0,1,.54.59,1.66,1.66,0,0,1,.21.86v0A2.34,2.34,0,0,1,233.23,57Z"/><path class="cls-1" d="M237.57,58.11h-1.71V47.9h1.7v4a4.78,4.78,0,0,1,.39-.5,3.09,3.09,0,0,1,.51-.42,3.2,3.2,0,0,1,.62-.29,2.68,2.68,0,0,1,.78-.1,2.44,2.44,0,0,1,1.94.77,3,3,0,0,1,.69,2.07v4.7h-1.71V53.92a2,2,0,0,0-.41-1.33,1.48,1.48,0,0,0-1.16-.47,1.53,1.53,0,0,0-1.19.49,1.85,1.85,0,0,0-.46,1.34Z"/><path class="cls-1" d="M245.26,49.58V48h1.84v1.61Zm.08,8.53V50.72H247v7.39Z"/><path class="cls-1" d="M251.65,58.11H250v-7.4h1.71v1.67a3.26,3.26,0,0,1,1-1.35,2.41,2.41,0,0,1,1.63-.46v1.79h-.1a2.8,2.8,0,0,0-1,.18,2.24,2.24,0,0,0-.8.55,2.57,2.57,0,0,0-.52.92,4.17,4.17,0,0,0-.18,1.28Z"/><path class="cls-1" d="M263.6,55.9a3.91,3.91,0,0,1-.82,1.22,4,4,0,0,1-1.26.84,4.08,4.08,0,0,1-1.58.31,4,4,0,0,1-1.56-.3,3.85,3.85,0,0,1-1.25-.83,3.8,3.8,0,0,1-.82-1.22,3.88,3.88,0,0,1-.29-1.49,3.79,3.79,0,0,1,.3-1.5,4,4,0,0,1,.82-1.24,4.2,4.2,0,0,1,1.25-.83,4,4,0,0,1,1.57-.31,4.08,4.08,0,0,1,1.58.3,3.85,3.85,0,0,1,1.25.83,3.91,3.91,0,0,1,.82,1.22,4,4,0,0,1,.29,1.5A3.79,3.79,0,0,1,263.6,55.9ZM262,53.5a2.56,2.56,0,0,0-.47-.76,2.29,2.29,0,0,0-.71-.52,2.24,2.24,0,0,0-.91-.18,2.06,2.06,0,0,0-.91.19,2,2,0,0,0-.71.51,2.16,2.16,0,0,0-.44.75,2.71,2.71,0,0,0-.15.91,2.4,2.4,0,0,0,.17.93,2.29,2.29,0,0,0,.46.77,2.43,2.43,0,0,0,.71.51,2.23,2.23,0,0,0,.9.19,2.26,2.26,0,0,0,.92-.19,2.3,2.3,0,0,0,.71-.51,2.35,2.35,0,0,0,.44-.75,2.77,2.77,0,0,0,.15-.92A2.6,2.6,0,0,0,262,53.5Z"/><path class="cls-3" d="M261.37,11.15a6.53,6.53,0,0,1-1.53,2.23,7.12,7.12,0,0,1-2.36,1.48,8.1,8.1,0,0,1-3,.54h-5.22V1.4h5.22a8.31,8.31,0,0,1,3,.53,6.94,6.94,0,0,1,2.36,1.47,6.59,6.59,0,0,1,1.53,2.22,7,7,0,0,1,.54,2.76A7.09,7.09,0,0,1,261.37,11.15ZM259,6.5A4.44,4.44,0,0,0,256.47,4a5.41,5.41,0,0,0-2-.36h-2.77v9.56h2.77a5.62,5.62,0,0,0,2-.35A4.36,4.36,0,0,0,259,10.34a5,5,0,0,0,.35-1.92A5,5,0,0,0,259,6.5Z"/><path class="cls-3" d="M268.05,15.4h-2.44V4.84h2.44V7.22a4.74,4.74,0,0,1,1.42-1.92,3.42,3.42,0,0,1,2.32-.66V7.2h-.14a4,4,0,0,0-1.46.26,3,3,0,0,0-1.14.78,3.62,3.62,0,0,0-.74,1.31,6,6,0,0,0-.26,1.83Z"/><path class="cls-3" d="M281.79,4.84h2.44V15.4h-2.44V13.74a5.25,5.25,0,0,1-1.29,1.33,3.37,3.37,0,0,1-2,.55,3.53,3.53,0,0,1-2.77-1.1,4.3,4.3,0,0,1-1-3V4.84h2.44v6a2.79,2.79,0,0,0,.59,1.9,2.06,2.06,0,0,0,1.65.67,2.26,2.26,0,0,0,1.71-.69,2.66,2.66,0,0,0,.65-1.92Z"/><path class="cls-3" d="M298.58,5.13a4,4,0,0,1,2.07-.51,3.53,3.53,0,0,1,2.72,1,4.19,4.19,0,0,1,1,3V15.4h-2.44v-6a2.9,2.9,0,0,0-.55-1.91,2,2,0,0,0-1.58-.66,2.11,2.11,0,0,0-1.62.67,2.71,2.71,0,0,0-.63,1.94v6h-2.44v-6a2.86,2.86,0,0,0-.55-1.89A2,2,0,0,0,293,6.84a2.06,2.06,0,0,0-1.63.7,2.81,2.81,0,0,0-.62,1.93V15.4h-2.44V4.84h2.44V6.46a7.65,7.65,0,0,1,.56-.69,3.92,3.92,0,0,1,.69-.58,3.11,3.11,0,0,1,.88-.42,3.73,3.73,0,0,1,1.09-.15,3.49,3.49,0,0,1,1.93.51,3.41,3.41,0,0,1,1.21,1.37A5.3,5.3,0,0,1,298.58,5.13Z"/><path class="cls-3" d="M315.51,13.74a2.79,2.79,0,0,1-.83,1,3.75,3.75,0,0,1-1.25.62,5.46,5.46,0,0,1-1.54.21,7,7,0,0,1-2.31-.4A7.52,7.52,0,0,1,307.41,14l1.08-1.64a7.11,7.11,0,0,0,1.75,1,5,5,0,0,0,1.71.33,2,2,0,0,0,1.21-.31,1,1,0,0,0,.43-.83v0a.76.76,0,0,0-.19-.52,1.54,1.54,0,0,0-.52-.39,5,5,0,0,0-.76-.3l-.89-.27c-.38-.12-.77-.25-1.17-.4a4.68,4.68,0,0,1-1.06-.57,2.89,2.89,0,0,1-.77-.86,2.46,2.46,0,0,1-.3-1.27v0A3,3,0,0,1,309,5.52a3.63,3.63,0,0,1,1.2-.64,4.71,4.71,0,0,1,1.47-.22,6.81,6.81,0,0,1,2,.32,7.24,7.24,0,0,1,1.86.88l-1,1.72a7.7,7.7,0,0,0-1.54-.73,4.43,4.43,0,0,0-1.44-.27,1.76,1.76,0,0,0-1.09.3.92.92,0,0,0-.39.76v0a.7.7,0,0,0,.2.49,2,2,0,0,0,.53.38,7,7,0,0,0,.76.32l.89.29c.39.12.78.26,1.16.42a4.84,4.84,0,0,1,1.05.59,2.84,2.84,0,0,1,.77.85,2.32,2.32,0,0,1,.3,1.22v0A3.31,3.31,0,0,1,315.51,13.74Z"/></g></g></svg>