<svg xmlns="http://www.w3.org/2000/svg" viewBox="0 0 395 153"><defs><style>.cls-1{fill:#02d1e0;}.cls-2{opacity:0.5;}</style></defs><g id="Layer_2" data-name="Layer 2"><g id="文字要素_スクロール_" data-name="文字要素（スクロール）"><path class="cls-1" d="M39.5,48.18c6.34-5.07,9-11.1,9-11.88,0-1.07-1.06-1.72-2.08-2.09A6.55,6.55,0,0,1,47.76,34c1.47,0,3.55,1.77,3.55,2.19,0,.17,0,.2-.48.68A6.12,6.12,0,0,0,50,38c-3.33,6-6.24,8.45-10.31,10.42ZM62.38,38.07c1.38,1.35,4.39,4.56,4.39,7.32,0,.56-.32,1.49-1.06,1.49s-1.09-.7-1.66-2.31c-.74-2.14-2-5.74-7.46-10.27A12.87,12.87,0,0,1,62.38,38.07Zm2.4-4.53a2.06,2.06,0,0,1,.87,1.52c0,.33-.13.73-.61.73s-.83-.34-1.35-1.13a13.91,13.91,0,0,0-3.16-2.78A10.33,10.33,0,0,1,64.78,33.54Zm2.63-2.37a1.8,1.8,0,0,1,1.18,1.55c0,.17,0,.76-.48.76s-.67-.28-1.44-1.13a10.12,10.12,0,0,0-3.17-2.3A8,8,0,0,1,67.41,31.17Z" transform="translate(-4.5 -4.5)"/><path class="cls-1" d="M76.4,51.81c8-3.07,13-10.19,13.73-14.36-2.47.17-11.62.93-13.06,1.75-.61.36-.67.39-.9.39-.83,0-3-1.63-3-3.13a2.76,2.76,0,0,1,.16-.87,4.17,4.17,0,0,0,3.45,1.83c1.19,0,11.87-.76,12.71-.93a3,3,0,0,0,1.37-.76.66.66,0,0,1,.45-.22c.35,0,2.53,1.41,2.53,1.94,0,.28-.1.31-1,.7-.64.29-.67.34-1,1.24a25.65,25.65,0,0,1-7.43,9.32A18,18,0,0,1,76.46,52ZM79.66,32a47.64,47.64,0,0,0,7.81-.85,4.3,4.3,0,0,1,1.47-.36c.51,0,2.24.17,2.24.9s-.89.76-3.36.9c-1.5.08-8.8.76-9.53.76a2.78,2.78,0,0,1-2.43-2.67A4.9,4.9,0,0,0,79.66,32Z" transform="translate(-4.5 -4.5)"/><path class="cls-1" d="M98.7,48.18c6.34-5.07,9-11.1,9-11.88,0-1.07-1.06-1.72-2.08-2.09A6.55,6.55,0,0,1,107,34c1.47,0,3.55,1.77,3.55,2.19,0,.17,0,.2-.48.68a6.12,6.12,0,0,0-.86,1.12c-3.33,6-6.24,8.45-10.31,10.42Zm22.88-10.11C123,39.42,126,42.63,126,45.39c0,.56-.32,1.49-1.06,1.49s-1.09-.7-1.66-2.31c-.74-2.14-2-5.74-7.46-10.27A12.87,12.87,0,0,1,121.58,38.07Zm2.4-4.53a2.06,2.06,0,0,1,.87,1.52c0,.33-.13.73-.61.73s-.83-.34-1.35-1.13a13.91,13.91,0,0,0-3.16-2.78A10.33,10.33,0,0,1,124,33.54Zm2.63-2.37a1.8,1.8,0,0,1,1.18,1.55c0,.17,0,.76-.48.76s-.67-.28-1.44-1.13a10.12,10.12,0,0,0-3.17-2.3A8,8,0,0,1,126.61,31.17Z" transform="translate(-4.5 -4.5)"/><path class="cls-1" d="M135.6,51.81c8-3.07,13-10.19,13.73-14.36-2.47.17-11.62.93-13.06,1.75-.61.36-.67.39-.89.39-.84,0-3-1.63-3-3.13a2.76,2.76,0,0,1,.16-.87A4.17,4.17,0,0,0,136,37.42c1.19,0,11.87-.76,12.71-.93a3,3,0,0,0,1.37-.76.66.66,0,0,1,.45-.22c.35,0,2.53,1.41,2.53,1.94,0,.28-.1.31-1,.7-.64.29-.67.34-1,1.24a25.65,25.65,0,0,1-7.43,9.32A18,18,0,0,1,135.66,52ZM138.86,32a47.64,47.64,0,0,0,7.81-.85,4.3,4.3,0,0,1,1.47-.36c.51,0,2.24.17,2.24.9s-.89.76-3.36.9c-1.5.08-8.8.76-9.53.76a2.78,2.78,0,0,1-2.43-2.67A4.91,4.91,0,0,0,138.86,32Z" transform="translate(-4.5 -4.5)"/><path class="cls-1" d="M169.58,30.33c0-.34-.44-1-1.92-1.27a1.53,1.53,0,0,1,1.22-.45,4.64,4.64,0,0,1,2.82,1.18c.28.26.38.4.38.68s-.1.28-.74,1a13.5,13.5,0,0,0-1.5,2.08,25.42,25.42,0,0,0,2.85-1,4,4,0,0,1,1.56-.48c.33,0,1.7.28,1.7.73s-.61.56-.67.59a62.08,62.08,0,0,1-6.3,1.46c-.71,1.16-3.94,7.13-4.26,7.61s-2.24,3.46-2.43,3.6a.77.77,0,0,1-.55.22c-.19,0-.6-.11-.6-.87s.25-1.07.92-1.8A38.44,38.44,0,0,0,165.84,38c.54-.93,1.18-2.11,1.54-2.73a14.45,14.45,0,0,1-3.27.45c-2.85,0-3.13-1.77-3.2-2.22a3.89,3.89,0,0,0,2.82,1,25.87,25.87,0,0,0,4.32-.53A29.39,29.39,0,0,0,169.58,30.33Zm8.29,5.52c3.65,0,6.4,2.75,6.4,4a.59.59,0,0,1-.64.57,2.46,2.46,0,0,1-.8-.23,4.27,4.27,0,0,0-2.46-.62,6.47,6.47,0,0,0-3.84,1,2.25,2.25,0,0,0-.64,1.83c0,.76.38,3.55.51,4.34,3.07.62,6,1.88,6,3.32a.72.72,0,0,1-.71.79,1.64,1.64,0,0,1-.7-.25c-2.69-1.69-3.11-2-4.54-2.37-.1,3.69-4.33,3.89-5.09,3.89-2.4,0-4.58-1.16-4.58-2.76,0-1.89,2.79-3,5.79-3a17.39,17.39,0,0,1,2,.12c-.16-2.29-.16-2.54-.16-3.13,0-2.9,2-3.77,5.5-4.62.26-.05.64-.14.64-.53s-.77-.79-1.21-1A14.6,14.6,0,0,0,176.17,36,7.06,7.06,0,0,1,177.87,35.85Zm-5.41,11.71c-1.21,0-4.41.33-4.41,1.85,0,1.16,1.95,1.38,2.88,1.38s3.93-.33,3.81-2.95A9,9,0,0,0,172.46,47.56Z" transform="translate(-4.5 -4.5)"/><path class="cls-1" d="M216.78,50.79a5.41,5.41,0,0,0-3.39,1.5c-8.89-5.47-10.5-14-10.85-22.19a2.36,2.36,0,0,0-.51.09c-.54,8.19-1.57,17.93-13.63,22.43l0-.22c3.36-1.92,8.19-5.88,10.08-11.49A35,35,0,0,0,200,31.14c0-.42,0-.81,0-1.26a3.76,3.76,0,0,0-.19-1.5l3.39.68c.48.09.64.14.64.39,0,.4-.51.48-.83.57.32,5.09,1.92,10.7,4.64,14.33a16,16,0,0,0,9.19,6.25Z" transform="translate(-4.5 -4.5)"/><path class="cls-1" d="M229.17,30.86V34c0,.28.16,2.67.16,2.92,0,1.1-1.16,1.16-1.28,1.16-.74,0-.64-.57-.61-.82h-5.89c0,1.61,0,9.52,0,11.29,0,.37.1,2.08.1,2.48s0,1.88-1.41,1.88c-.83,0-.83-.5-.83-.73,0,0,.1-.93.1-1,.22-2.19.28-8.39.28-12.89,0-1,0-7.46,0-7.91a11.19,11.19,0,0,0-.32-2L222,29.51h5.21l.55-.59c.19-.17.25-.28.38-.28a1.61,1.61,0,0,1,.39.2l1.44.81c.16.11.25.17.25.31S230.06,30.27,229.17,30.86Zm-1.7-.67h-5.92V33h5.92Zm0,3.46h-5.92v3h5.92Zm8.58,7.52c0,1.07-.07,3.4.06,5.4,0,.25.16,1.47.16,1.72A1.27,1.27,0,0,1,235,49.58c-.86,0-.73-1-.7-1.38h-6.66c.19,1.78-1.12,1.81-1.28,1.81-.51,0-.64-.26-.64-.6s.13-1.35.13-1.57c.1-1.27.13-4.82.13-6.2a10.05,10.05,0,0,0-.26-2.67l2.08,1h6.4l.45-.48c.38-.34.42-.4.58-.4a1,1,0,0,1,.44.2l1.12.82c.23.17.29.22.29.34S236.53,40.94,236.05,41.17Zm-1.7-.57h-6.72v3h6.72Zm0,3.69h-6.72v3.24h6.72ZM243.15,31c0,3.43,0,7,0,10.27,0,1.18.1,6.42.1,7.46,0,2.45,0,3.07-1.28,3.83a7.19,7.19,0,0,1-2.11.73,1.81,1.81,0,0,0-.77-1.32,7.78,7.78,0,0,0-2.56-1.18v-.23c.61,0,3.26.14,3.81.14s1.12,0,1.12-.76c0-1.6,0-4.61,0-6,0-1,0-6.1,0-6.64h-6.63c0,.34,0,.54-.13.68a1.51,1.51,0,0,1-1,.42.52.52,0,0,1-.54-.59c0-.06,0-.54,0-.62,0-.48,0-2.23,0-2.79,0-4.11,0-4.67-.22-5.88l2.11,1h6l.7-.73c.26-.25.32-.34.48-.34a.65.65,0,0,1,.48.23l1.38,1a.47.47,0,0,1,.22.39C244.46,30.3,244.3,30.44,243.15,31Zm-1.66-.76h-6.63V33h6.63Zm0,3.46h-6.63v3h6.63Z" transform="translate(-4.5 -4.5)"/><path class="cls-1" d="M261.9,50.37c9.57-2.9,10-8.95,10-10.41,0-4.93-5.31-7.58-10-7.58a3.75,3.75,0,0,0-1.18.14c1.57,1.16,1.57,2,1.57,2.14,0,.34-.1.45-.77,1.69-3.9,7.21-4.26,7.91-6.08,10.31-.16.19-1.18,1.52-1.82,1.74a1.49,1.49,0,0,1-.61.11c-.74,0-1-.31-1.86-1.43a4,4,0,0,0-.86-.76c-1.25-.9-1.67-1.89-1.67-3.8,0-5.66,5.41-11,13.6-11,5.86,0,11.65,2.93,11.65,8.75,0,5.16-4.7,9.77-11.9,10.39Zm-3.61-10.95a12.48,12.48,0,0,0,1.88-4.9,2.47,2.47,0,0,0-.89-1.8c-3.58.25-9,4.42-9,9.94,0,2.14,1.53,4,2.78,4a.87.87,0,0,0,.61-.19A11.39,11.39,0,0,0,255.54,44Z" transform="translate(-4.5 -4.5)"/><path class="cls-1" d="M284,29.88c-.58,1.29-1.09,2.5-1.89,4l1.37.57c.16.05.39.17.39.39s-.64.68-1,.9c0,2.65,0,16.56,0,16.7-.1.64-1,.73-1.22.73s-.67,0-.67-.62c0-.31.13-1.75.13-2,.12-3.88.19-7.77.19-11.62,0-2.17,0-2.48-.07-3.44A33.46,33.46,0,0,1,276,42.1l-.13-.12a55.13,55.13,0,0,0,4-7.12,27.46,27.46,0,0,0,2.62-7.07L285.07,29a.32.32,0,0,1,.22.34C285.29,29.6,284.37,29.76,284,29.88Zm19.32,1.8v9c0,1.66.23,9.54.23,10.47,0,.59,0,.81-.2,1a1.38,1.38,0,0,1-1,.45c-.67,0-.7-.36-.61-2h-13.6a5.44,5.44,0,0,1,0,1.21c-.1.57-1,.73-1.31.73-.55,0-.55-.5-.55-.78,0-.54.07-2.93.07-3.44,0-.79.22-11.79.22-13.85,0-3.94-.12-4.25-.54-5.24l2.46.9h12.77l.74-.67c.22-.23.32-.31.48-.31s.28.08.51.25l1.15,1a.43.43,0,0,1,.19.39C304.3,31.14,303.92,31.37,303.34,31.68Zm-1.57-.79H288.11V50h13.66Zm-1.28,5.24h-5.28v4h1.51l.61-.53c.22-.2.32-.28.44-.28a1.72,1.72,0,0,1,.52.22l.92.54a.41.41,0,0,1,.29.34c0,.19-.09.25-.89.7,0,3.27,0,3.63,0,4.64,0,.17,0,1.3,0,1.41,0,.82-.93.82-1,.82-.64,0-.64-.28-.61-1.07h-5a1.12,1.12,0,0,1-1.19,1.29c-.38,0-.51-.08-.51-.5a2.28,2.28,0,0,1,0-.48c.1-.59.1-2.73.1-3.41a39,39,0,0,0-.19-4.7l2.08,1h1.28c0-.64-.07-3.43-.1-4a27.87,27.87,0,0,0-4.19.31l-.74-1.21c1.54.11,2.53.16,4.93.22,0-.45-.06-2.39-.06-2.79a4.4,4.4,0,0,0-.2-1.18l2.4.45c.13,0,.32.06.32.31s-.32.51-.76.82v2.39h2.49l.77-.7c.19-.2.32-.34.51-.34a1.2,1.2,0,0,1,.61.28l1,.7c.16.12.32.26.32.43S300.72,36.13,300.49,36.13ZM297.1,40.8H292v5.43h5.12Z" transform="translate(-4.5 -4.5)"/><path class="cls-1" d="M306.42,39.79a.79.79,0,0,1-.9-.79c0-.48.22-.76.83-1.44a6.94,6.94,0,0,0,1.89-4.16h.19a6.71,6.71,0,0,1,.35,2.28C308.78,38.94,307.41,39.79,306.42,39.79Zm5.79-10.11c0,.65-.13,16.07.13,20.92,0,.17.06,1.26.06,1.35a1.17,1.17,0,0,1-1.31,1.38c-.83,0-.87-.48-.87-1,0-.33.23-7,.23-7.85,0-1.24.09-9.49.09-10.28,0-2.16,0-5-.6-6.61l2.75.73c.41.11.57.17.57.39S312.53,29.48,312.21,29.68Zm3.17,6.64c-.68,0-.84-.53-1-1.21a6.16,6.16,0,0,0-1.47-2.76l.19-.19c2.75,1.55,3.36,1.88,3.36,3A1.09,1.09,0,0,1,315.38,36.32Zm19.77,15.54h-16a30.62,30.62,0,0,0-4.1.31L314.26,51c2.4.17,4.73.23,5.31.23h5.28V43.33h-2.63a31.17,31.17,0,0,0-4.12.31l-.74-1.21c2.4.17,4.7.23,5.31.23h2.18c0-2.31,0-2.56,0-4.48,0-.73,0-1.88,0-2.19H319.5a22.23,22.23,0,0,1-4.8,5.91l-.22-.11A36.48,36.48,0,0,0,319.63,31a8.29,8.29,0,0,0,0-1.32l2.62.79c.29.08.55.17.55.45s-.58.51-1.18.7c-.39.93-.87,2.06-1.73,3.72h4.89c-.12-5.91-.12-6.59-.57-7.66l3,.71c.42.11.64.17.64.42s0,.28-1.24,1.13c0,.53,0,.81,0,1.18v4.22h3.91l1-1.1c.22-.25.32-.34.48-.34s.29.09.57.31l1.44,1.07c.23.17.32.31.32.43,0,.28-.28.31-.48.31h-7.23v6.67h3l1-1.1c.28-.31.32-.34.48-.34s.25,0,.57.28l1.47,1.1c.16.11.32.23.32.42s-.25.31-.48.31h-6.43c0,1.24,0,6.73,0,7.86h5l1-1.21c.19-.23.29-.37.48-.37s.32.09.57.28l1.73,1.24a.56.56,0,0,1,.29.42C335.63,51.81,335.37,51.86,335.15,51.86Z" transform="translate(-4.5 -4.5)"/><path class="cls-1" d="M343.79,47.11c3,1.8,3.33,2,4.16,2a1.47,1.47,0,0,0,1.28-.87,18.15,18.15,0,0,0,2.27-8.78c0-1.3,0-3.16-2.17-3.16a11,11,0,0,0-2.79.45c-2.65,5.75-5.24,11.46-7.36,14a.79.79,0,0,1-.67.37c-.45,0-.73-.82-.73-1.21s0-.48,1.12-2a59.41,59.41,0,0,0,6-10.76,22.8,22.8,0,0,0-4.7,1.78,2.82,2.82,0,0,1-1.22.48c-.61,0-2.59-.9-2.59-2.65a1.38,1.38,0,0,1,.19-.68c.74,1.13,1.25,1.47,2.08,1.47a5.4,5.4,0,0,0,1.47-.28c1.48-.4,3.59-.88,5.28-1.3.52-1.15,1.63-3.66,1.63-4.67,0-1.3-2.14-1.83-2.46-1.92a1.87,1.87,0,0,1,1.25-.36c1.21,0,3.58.76,3.58,1.8a1.65,1.65,0,0,1-.35.9,26.59,26.59,0,0,0-2,3.91,10,10,0,0,1,2.34-.31c3.78,0,3.78,2.93,3.78,4.45,0,2.73-1,9.21-4.36,11.43a3.61,3.61,0,0,1-1.63.59c-.44,0-.48-.11-.76-1.15a13.54,13.54,0,0,0-2.66-3.46Zm13.34-5.55a12.68,12.68,0,0,0,3.36-.51c.42-.14.8-.42.8-.84s-1.85-3.13-6.24-5.58c2.82-.05,8.71,3.75,8.71,7.27,0,.48-.07,1.24-.64,1.24a12.18,12.18,0,0,1-1.38-.59c-.7-.23-4-.68-4.61-.79Zm0-9.83c1.51,0,5.19.91,5.19,2.51a.69.69,0,0,1-.68.7c-.32,0-1.28-.87-1.5-1a17.5,17.5,0,0,0-4.16-2A3.28,3.28,0,0,1,357.1,31.73Zm3.27-2.16c1.44,0,5,.42,5,2.42,0,.31-.13.62-.48.62s-1.48-1-1.73-1.16a16.14,16.14,0,0,0-4.45-1.71A8.17,8.17,0,0,1,360.37,29.57Z" transform="translate(-4.5 -4.5)"/><path class="cls-1" d="M66.13,95.26c-4.93-.87-9.8-4.7-11-7.15h-.19c0,.9,0,1.55,0,2.42,0,.67.19,4.11.19,4.53s0,1.21-1.22,1.21c-.7,0-.8-.28-.8-.56,0-.76.23-4.08.26-4.76,0-.37.07-1.52.07-2.28a29.06,29.06,0,0,1-13.25,7.26v-.22c2.85-.93,9-4.93,11.17-7.6H44.85a27.44,27.44,0,0,0-4.1.34L40,87.23c1.76.12,3.56.2,5.32.2h8.16a8.49,8.49,0,0,0-.26-2H46.8c0,.48,0,.62-.16.77a1.75,1.75,0,0,1-1,.33c-.71,0-.74-.45-.74-.73s.16-1.94.19-2.25c.07-1.38.1-1.72.16-6.28a22.59,22.59,0,0,1-5,4.25l-.23-.2c2-1.52,7.4-8.24,7.84-11L50,71.38c.19.12.35.23.35.43s-.13.39-1.34.56c-.42.62-.8,1.21-2.11,2.93l.22.14h6.34c.38-.79.86-1.92,1.18-2.76A4.38,4.38,0,0,0,55,70.46l2.91.9a.45.45,0,0,1,.39.42c0,.53-.93.56-1.38.56-.32.37-1.82,1.89-2.11,2.2s-.55.59-.83.9h7.45l.77-1c.16-.2.32-.43.54-.43a1.63,1.63,0,0,1,.61.29l1.51,1.12c.16.12.32.23.32.42s-.26.31-.48.31H55v2.28h5.37l.74-.78c.26-.28.35-.37.51-.37a1.2,1.2,0,0,1,.61.28l1.09.79a.59.59,0,0,1,.32.45c0,.31-.39.31-.51.31H55v2.37h5.37l.74-.85c.32-.34.35-.37.51-.37a1.16,1.16,0,0,1,.61.29l1.12.9c.19.14.32.22.32.42s-.26.28-.48.28H55v2.62h7.39l.9-1c.19-.22.35-.34.51-.34a1.35,1.35,0,0,1,.61.29l1.44,1c.16.12.32.26.32.43s-.29.3-.48.3H54.13l1.15.48c.22.09.35.17.35.29s-.35.39-.64.53c0,.2,0,.53,0,.73H64.4l1-.84c.26-.23.39-.37.61-.37a1.53,1.53,0,0,1,.67.31l1.47.87a.46.46,0,0,1,.29.43c0,.25-.25.28-.48.28H55.5a19.17,19.17,0,0,0,7.33,4.28,20,20,0,0,0,5.63.78v.15A4.4,4.4,0,0,0,66.13,95.26ZM53.39,76.11H46.8v2.28h6.59Zm0,3H46.8v2.37h6.59Zm0,3H46.8v2.62h6.59Z" transform="translate(-4.5 -4.5)"/><path class="cls-1" d="M83.92,73.72c0-1.18-.26-1.29-2.37-2.17a2.59,2.59,0,0,1,1.6-.42c1.66,0,3,1,3,1.69,0,.06-.16.65-.32,1.24a19.63,19.63,0,0,0-.39,2.08,38.51,38.51,0,0,0,5-1.29,3.34,3.34,0,0,1,.8-.17c.57,0,1.72.51,1.72.9s-.41.51-.57.56a38,38,0,0,1-7.11,1.41c-.09,1.18-.12,2.93-.09,4.5a30.76,30.76,0,0,0,4.22-1.15,2,2,0,0,1,.58-.14c.57,0,1.66.34,1.66.82s-.38.59-.7.7c-.58.17-3.49.7-5.73,1.07.06,1.15.35,5,.45,6.45,3.65.76,6.81,2.11,6.81,3.49a.75.75,0,0,1-.7.79c-.26,0-.38-.09-1.47-.74a20.16,20.16,0,0,0-4.51-1.85,2.92,2.92,0,0,1-1.25,2.59,7.92,7.92,0,0,1-3.91,1c-3.26,0-5.4-1.4-5.4-2.78,0-.88.67-1.47,1.6-2a14.84,14.84,0,0,1,5.47-.87c.73,0,1.21,0,1.69.06,0-.93-.28-5.07-.32-5.92a39.62,39.62,0,0,1-4.83.34c-1.92,0-3.1-.31-3.1-1.29a1.78,1.78,0,0,1,1.57-1.38,1.37,1.37,0,0,0-.52.87c0,.54.68.62,2.31.62a29.53,29.53,0,0,0,4.54-.39c0-1.55,0-2.37.13-4.62-1.28.11-5.54.51-6.46.51S74,78,73.1,76.34a11.26,11.26,0,0,0,4.13.7,58.34,58.34,0,0,0,6.59-.62C83.82,76,83.92,74.12,83.92,73.72Zm-3.36,17c-2.11,0-4.23.48-4.23,1.6,0,.82,1.41,1.47,3.84,1.47,1.35,0,4.2-.34,3.84-2.79A15.79,15.79,0,0,0,80.56,90.7Z" transform="translate(-4.5 -4.5)"/><path class="cls-1" d="M107.66,92.92c2.88-.11,7.94-1,10.37-2.28,2.14-1.15,3.33-2.93,3.33-4.64,0-2.28-2.24-4.14-5.38-4.14-3.32,0-7.68,2-10.68,4.31-.84.61-.93.7-1.12.7a2.61,2.61,0,0,1-2.05-2.17,1.4,1.4,0,0,1,.19-.76,2.6,2.6,0,0,0,1.57.9,3.69,3.69,0,0,0,1.76-.65c3.13-1.66,6.49-3.06,10.17-3.06,4.9,0,7.17,2.42,7.17,5.12,0,3.91-4.67,7.32-15.33,7Z" transform="translate(-4.5 -4.5)"/><path class="cls-1" d="M143.25,75.5c.89-.2,7.71-1.38,8.06-1.44a7,7,0,0,1,1.54-.25c1.18,0,2.36.73,2.36,1.32s-.7.76-1.12.76-2.46-.11-2.88-.11c-6.24,0-10.71,5.74-10.71,10,0,4.11,4.47,5.77,8,6.39.86.14,2.17.36,2.17,1.46,0,.48-.54.62-1,.62a18.81,18.81,0,0,1-5.41-1.43,8.11,8.11,0,0,1-5.22-7c0-2.61,1.67-6.44,7.49-10.08-2.4.06-10.68,2.48-12.67,3.33-1,.42-1.12.48-1.28.48a2.5,2.5,0,0,1-2.14-2.51,1.83,1.83,0,0,1,.25-1,2.59,2.59,0,0,0,2.44,1.46,7.44,7.44,0,0,0,1.4-.17Z" transform="translate(-4.5 -4.5)"/><path class="cls-1" d="M168.69,73.58a5.75,5.75,0,0,0,1.53-.31,44.84,44.84,0,0,1,5.95-1.21c.93,0,2.41,1.1,2.41,2,0,.37-.1.42-.93.87-.61.34-.93.57-1.48.93a92.33,92.33,0,0,1-9.5,6.34,4.56,4.56,0,0,0-1,.73.17.17,0,0,0,.19.17,9.64,9.64,0,0,0,1.18-.26c4.29-1.15,5.57-1.32,13.18-2.56a22.39,22.39,0,0,1,2.66-.45c.8,0,2.43.79,2.43,1.49,0,.43-.35.57-.83.57s-2.82-.2-3.3-.2A13.83,13.83,0,0,0,170.83,86a3.91,3.91,0,0,0-1.15,2.73c0,3,3.94,4.57,7.52,4.73a1.47,1.47,0,0,1,1.47,1.3c0,.45-.35.68-1.21.68a21.2,21.2,0,0,1-5.09-1.36c-2.75-1.07-4-3.23-4-4.87,0-1.29.67-4.59,7-7.26-3,0-9.47,1.77-12.8,3.43a4.14,4.14,0,0,1-1.6.45c-.77,0-1.28-.39-1.28-1s.48-.73,1.41-.93c2.94-.64,5.56-2.59,10.59-6.3C173.9,76,176,73.89,176,73.33a.35.35,0,0,0-.38-.34,26.65,26.65,0,0,0-3.93,1.1,8.18,8.18,0,0,0-1.76,1,1.9,1.9,0,0,1-1.16.48,2.56,2.56,0,0,1-2.14-2.54,2.08,2.08,0,0,1,.13-.73A2.67,2.67,0,0,0,168.69,73.58Z" transform="translate(-4.5 -4.5)"/><path class="cls-1" d="M217.42,88.7A14.78,14.78,0,0,1,214,91.6a7.75,7.75,0,0,1-3.65,1.07,4,4,0,0,1-3.2-1.61,5.18,5.18,0,0,1-.74-3.07c0-.73.26-2.67.52-4.61s.51-3.89.51-4.53c0-.82-.29-1.75-1.51-1.75-2.24,0-6.49,3.74-9.4,7.38a37.18,37.18,0,0,0,.29,5.85,17.21,17.21,0,0,1,.12,1.89,6.76,6.76,0,0,1-.44,2.45A.59.59,0,0,1,196,95c-.57,0-.77-.67-.92-1.18A14.92,14.92,0,0,0,193.74,91l.16-.09A5.66,5.66,0,0,0,195.31,92c.23,0,.26-.22.26-.33,0-.9-.26-4.79-.26-5.61-.61.82-3.93,5.58-4.29,6.11-.16.23-.38.59-.76.59s-.68-.42-.68-1.09a1.79,1.79,0,0,1,.77-1.55,29.25,29.25,0,0,0,5-7.72c.07-.9.1-1.18.23-2.36l-3.11,1.46c-.89.43-1,.45-1.28.45-1.08,0-1.85-1.49-1.85-2.36a.89.89,0,0,1,.06-.4,2.64,2.64,0,0,0,1.86,1,26.8,26.8,0,0,0,4.48-1.41c.06-.64.41-3.63.41-4,0-1.46-.86-1.72-2.56-2.14a5.32,5.32,0,0,1,1.86-.36c1.73,0,2.81,1.21,2.81,1.88a4,4,0,0,1-.41,1.35,22.9,22.9,0,0,0-.64,2.68c.35,0,1.15.67,1.15,1s0,.2-.7,1.15a10.21,10.21,0,0,0-1,1.72c0,.48-.1,1.24-.1,1.55,2.85-3.55,7.2-7.32,9.82-7.32A2.65,2.65,0,0,1,209.17,79a13.38,13.38,0,0,1-.23,2.11,50.93,50.93,0,0,0-.93,7.15c0,2,.42,2.73,2.28,2.73a15.46,15.46,0,0,0,6.94-2.39Z" transform="translate(-4.5 -4.5)"/><path class="cls-1" d="M225.39,90.11c3,1.8,3.33,2,4.16,2a1.47,1.47,0,0,0,1.28-.87,18.15,18.15,0,0,0,2.27-8.78c0-1.3,0-3.16-2.17-3.16a11,11,0,0,0-2.79.45c-2.65,5.75-5.24,11.46-7.36,14a.79.79,0,0,1-.67.37c-.45,0-.73-.82-.73-1.21s0-.48,1.12-2a59.41,59.41,0,0,0,6-10.76,22.8,22.8,0,0,0-4.7,1.78,2.86,2.86,0,0,1-1.22.48c-.61,0-2.59-.9-2.59-2.65a1.38,1.38,0,0,1,.19-.68c.74,1.13,1.25,1.47,2.08,1.47a5.4,5.4,0,0,0,1.47-.28c1.47-.4,3.59-.88,5.28-1.3.52-1.15,1.63-3.66,1.63-4.67,0-1.3-2.14-1.83-2.46-1.92a1.87,1.87,0,0,1,1.25-.36c1.21,0,3.58.76,3.58,1.8a1.65,1.65,0,0,1-.35.9,26.59,26.59,0,0,0-2,3.91,10,10,0,0,1,2.34-.31c3.78,0,3.78,2.93,3.78,4.45,0,2.73-1,9.21-4.36,11.43a3.65,3.65,0,0,1-1.63.59c-.45,0-.48-.11-.77-1.15a13.27,13.27,0,0,0-2.65-3.46Zm13.34-5.55a12.68,12.68,0,0,0,3.36-.51c.42-.14.8-.42.8-.84s-1.85-3.13-6.24-5.58c2.82,0,8.71,3.75,8.71,7.27,0,.48-.07,1.24-.64,1.24a12.18,12.18,0,0,1-1.38-.59c-.7-.23-4-.68-4.61-.79Zm0-9.83c1.51,0,5.19.91,5.19,2.51a.69.69,0,0,1-.68.7c-.32,0-1.28-.87-1.5-1a17.5,17.5,0,0,0-4.16-2A3.28,3.28,0,0,1,238.7,74.73ZM242,72.57c1.44,0,5,.42,5,2.42,0,.31-.13.62-.48.62s-1.48-1-1.73-1.16a16.14,16.14,0,0,0-4.45-1.71A8.17,8.17,0,0,1,242,72.57Z" transform="translate(-4.5 -4.5)"/><path class="cls-1" d="M270.22,82.7l1.47-1.52c.23-.25.39-.36.55-.36s.25.08.54.33l1.89,1.66c.16.15.32.26.32.46s-.29.28-.48.28H251.89a29.39,29.39,0,0,0-4.1.31L247,82.48c2.37.14,4.29.22,5.32.22Z" transform="translate(-4.5 -4.5)"/><path class="cls-1" d="M284.21,91a37.93,37.93,0,0,0,13.28-3,6.5,6.5,0,0,0,4-5.71c0-3.49-3.59-5.32-6.69-5.32-3.84,0-10.08,2.7-13.63,5.49-.61.48-.87.64-1.31.64a3.13,3.13,0,0,1-2.53-2.53,2,2,0,0,1,.25-.87,2.53,2.53,0,0,0,1.83,1,4.93,4.93,0,0,0,2.11-.65c5-2.45,7.9-3.88,12.8-3.88,6.05,0,9.09,3.24,9.09,6.67,0,4.62-4.93,7.07-10.72,8a45.52,45.52,0,0,1-8.48.39Z" transform="translate(-4.5 -4.5)"/><path class="cls-1" d="M321.1,93.37c9.57-2.9,10-9,10-10.41,0-4.93-5.31-7.58-10-7.58a3.75,3.75,0,0,0-1.18.14c1.57,1.16,1.57,2,1.57,2.14,0,.34-.1.45-.77,1.69-3.9,7.21-4.26,7.91-6.08,10.31-.16.19-1.18,1.52-1.82,1.74a1.49,1.49,0,0,1-.61.11c-.74,0-1-.31-1.86-1.43a4,4,0,0,0-.86-.76c-1.25-.9-1.67-1.89-1.67-3.8,0-5.66,5.41-11,13.6-11,5.86,0,11.65,2.93,11.65,8.75,0,5.16-4.7,9.77-11.9,10.39Zm-3.61-11a12.52,12.52,0,0,0,1.89-4.9,2.47,2.47,0,0,0-.9-1.8c-3.58.25-9,4.42-9,9.94,0,2.14,1.53,4,2.78,4a.87.87,0,0,0,.61-.19A11.39,11.39,0,0,0,314.74,87Z" transform="translate(-4.5 -4.5)"/><path class="cls-1" d="M68,124.72H43.92a29.17,29.17,0,0,0-4.1.33l-.76-1.21c1.76.12,3.55.2,5.31.2h12c1.44-4,1.44-4.84,1.47-6.16l2.59,1.38c.29.14.48.22.48.39,0,.51-1,.56-1.34.59a30.12,30.12,0,0,1-2.82,3.8h7.68l1-1.24c.19-.22.32-.39.51-.39a1.14,1.14,0,0,1,.64.31L68.17,124c.13.12.29.26.29.43S68.17,124.72,68,124.72Zm-3.33-6.87h-18a27.27,27.27,0,0,0-4.09.31L41.84,117c1.76.14,3.55.22,5.31.22h5.73a8.55,8.55,0,0,0-.71-3.83l2.88.68c.36.08.55.14.55.31s-.32.53-.83.87c0,.31,0,1.69,0,2h6.69l.87-1.12c.12-.17.28-.4.51-.4s.45.23.57.31l1.44,1.16c.2.14.32.25.32.42S64.88,117.85,64.65,117.85Zm-3.13,10.89c0,.28,0,2.82.06,4.7,0,.68.19,3.92.19,4.23s0,1.15-1.18,1.15c-.74,0-.74-.39-.74-1.32h-12a1.61,1.61,0,0,1,0,.9c-.16.65-1.12.79-1.34.79-.55,0-.55-.26-.55-1,0-.39.13-4.78.13-5.68,0-4.73,0-5.27-.19-6.06l2.56,1.33H59.47l.77-.79a.82.82,0,0,1,.54-.31c.19,0,.35.14.58.28l.86.62c.19.14.35.22.35.42S61.93,128.55,61.52,128.74Zm-12.26-5.4c-.8,0-.89-.42-1.15-1.69a7.84,7.84,0,0,0-1-3l.19-.14a7,7,0,0,1,2.24,1.66,3.43,3.43,0,0,1,1,2A1.18,1.18,0,0,1,49.26,123.34Zm10.59,5.12H47.79v3.75H59.85Zm0,4.42H47.79v3.94H59.85Z" transform="translate(-4.5 -4.5)"/><path class="cls-1" d="M74.45,123.51c-1.19,1-1.76,1.43-2.34,1.94-.09.11-.38.7-.45.82s-.22.16-.28.16-.26-.05-.48-.36L69.49,124a4.32,4.32,0,0,0,2.72-.59c1.41-.64,3.52-1.83,4.89-2.53l.1.11A25.92,25.92,0,0,1,74.45,123.51ZM97,130.23H85.36a20.24,20.24,0,0,0,11.81,5.64V136a5.41,5.41,0,0,0-2.44,1.69c-5.24-1.77-9.31-6.39-9.82-7.49h-.38c-.07,4.48-.07,5,0,6.34,0,.28.1,1.55.1,1.8,0,.7-.48,1-1.38,1-.16,0-.7,0-.7-.56,0-.17.13-1,.13-1.13.16-3.15.22-6.16.22-6.78a27.92,27.92,0,0,1-12.25,7.26l-.1-.19a48.65,48.65,0,0,0,11-7.75H75a31.06,31.06,0,0,0-4.13.31l-.77-1.21c2.4.17,4.74.23,5.35.23h7.42a10.42,10.42,0,0,0-.42-2.7l2.47.56c.41.08.51.11.51.37s-.1.28-.83.64c0,.23,0,1,0,1.13h9l1.06-1.24c.16-.17.32-.34.51-.34s.42.2.58.31l1.5,1.18c.22.17.29.31.29.45S97.26,130.23,97,130.23Zm-23.26-10c-.61,0-.77-.34-1.22-1.35a9.13,9.13,0,0,0-1.92-3l.1-.14c1.5.59,4.16,1.66,4.16,3.29A1.17,1.17,0,0,1,73.78,120.21Zm15.42-2c-.1.06-.51.37-.61.43l.06,3.71.13,3.55a1.12,1.12,0,0,1-1.18,1.32c-.74,0-.71-.5-.71-.79H80.17c.07,1.16-1.31,1.3-1.37,1.3-.42,0-.51-.31-.51-.59s.09-1.92.09-2.23c.07-1.32.16-3.21.16-4.89a26,26,0,0,0-.25-3.75l2,1h.9a15.62,15.62,0,0,0,1-3.24,3.53,3.53,0,0,0-.1-.85l2.88.91c.23.08.35.22.35.39a.37.37,0,0,1-.28.34c-.13,0-.71.19-.84.22-.35.28-.86.76-1.34,1.24-.8.79-.9.9-1,1h4.7l.64-.62a.63.63,0,0,1,.48-.26c.16,0,.26.06.48.23l1.15.84c.26.2.26.28.26.37S89.45,118,89.2,118.21Zm-2.31-.28H80.17v3.44h6.72Zm0,4.11H80.17v3.72h6.72Zm8.36,3.89c-.55,0-.71-.2-1.86-1.49a10.74,10.74,0,0,0-3.23-2.79v-.09A16.79,16.79,0,0,1,95,123.14c.19.14,1.22.79,1.22,1.58A1.15,1.15,0,0,1,95.25,125.93Zm.76-8.08a3.42,3.42,0,0,1-.83-.14,24.47,24.47,0,0,1-4.32,2.16l-.16-.14A12.8,12.8,0,0,0,94,115.54l2.46,1.58c.1,0,.13.22.13.31C96.56,117.73,96.3,117.85,96,117.85Z" transform="translate(-4.5 -4.5)"/><path class="cls-1" d="M107.89,126.49c-.23.84-1.31,4.59-1.54,5.35a12.49,12.49,0,0,0-.67,3.24c0,.31.16,1.94.16,2,0,.34-.06.73-.61.73a2.09,2.09,0,0,1-1.34-1c-1.44-2.17-1.76-4.3-1.76-7.2a17.29,17.29,0,0,1,.22-2.68l1-6.16a12.6,12.6,0,0,0,.19-2.06,3.25,3.25,0,0,0-1-2.56,3.31,3.31,0,0,1,3.2,2.56,10.07,10.07,0,0,1-.52,1.55,31.61,31.61,0,0,0-1.82,9.32c0,2.33.54,4.08.93,4.08.19,0,.35-.42.35-.45,1-2.7,1.5-3.8,2.91-6.87Zm6.14,6.42a16.85,16.85,0,0,0,5.31.79,24,24,0,0,0,3.39-.26c.26,0,.42,0,.55,0,.54,0,2.24.36,2.24,1.07s-1.09.78-3.07.78c-1.48,0-6.72-.19-8.71-1.18a3.71,3.71,0,0,1-2.24-3.29,2.3,2.3,0,0,1,.16-.85C112.27,131.39,112.66,132.35,114,132.91Zm2.11-10.73a24.09,24.09,0,0,0,3.3-2.59c0-.22-.93-.22-1-.22a25.56,25.56,0,0,0-6.21,1.21c2.91-2,4.93-2.48,7.14-2.48,2,0,4.57.48,4.57,1.35,0,.48-.45.57-1.63.76a17.51,17.51,0,0,0-6,2.17Z" transform="translate(-4.5 -4.5)"/><path class="cls-1" d="M140,116.33c0-.34-.44-1-1.92-1.27a1.53,1.53,0,0,1,1.22-.45,4.59,4.59,0,0,1,2.81,1.18c.29.26.39.4.39.68s-.1.28-.74,1a13.5,13.5,0,0,0-1.5,2.08,26.12,26.12,0,0,0,2.85-1,4,4,0,0,1,1.56-.48c.32,0,1.7.28,1.7.73s-.61.56-.67.59a62.08,62.08,0,0,1-6.3,1.46c-.71,1.16-3.94,7.13-4.26,7.61s-2.24,3.46-2.43,3.6a.77.77,0,0,1-.55.22c-.19,0-.6-.11-.6-.87s.25-1.07.92-1.8a38.44,38.44,0,0,0,3.78-5.69c.54-.93,1.18-2.11,1.54-2.73a14.45,14.45,0,0,1-3.27.45c-2.85,0-3.13-1.77-3.2-2.22a3.89,3.89,0,0,0,2.82,1,25.87,25.87,0,0,0,4.32-.53A29.39,29.39,0,0,0,140,116.33Zm8.29,5.52c3.65,0,6.4,2.75,6.4,4a.59.59,0,0,1-.64.57,2.46,2.46,0,0,1-.8-.23,4.27,4.27,0,0,0-2.46-.62,6.47,6.47,0,0,0-3.84,1,2.25,2.25,0,0,0-.64,1.83c0,.76.38,3.55.51,4.34,3.07.62,6,1.88,6,3.32a.72.72,0,0,1-.71.79,1.64,1.64,0,0,1-.7-.25c-2.69-1.69-3.11-2-4.55-2.37-.09,3.69-4.32,3.89-5.08,3.89-2.4,0-4.58-1.16-4.58-2.76,0-1.89,2.78-3,5.79-3a17.54,17.54,0,0,1,2,.12c-.16-2.29-.16-2.54-.16-3.13,0-2.9,2-3.77,5.5-4.62.26,0,.64-.14.64-.53s-.77-.79-1.22-1a14.25,14.25,0,0,0-3.2-1.16A7,7,0,0,1,148.27,121.85Zm-5.41,11.71c-1.21,0-4.41.33-4.41,1.85,0,1.16,2,1.38,2.88,1.38s3.93-.33,3.8-2.95A8.88,8.88,0,0,0,142.86,133.56Z" transform="translate(-4.5 -4.5)"/><path class="cls-1" d="M167.25,117.31a43.56,43.56,0,0,0,5.85-1.15,13,13,0,0,1,1.67-.37,2.51,2.51,0,0,1,2.11,1.8c0,.34-.07.37-.74.79a5.81,5.81,0,0,0-1.4,1.16c-.93,1-5.06,5.49-5.89,6.42-.42.47-.9,1-1.67,2a16.72,16.72,0,0,1,8.16-2.31c4.64,0,7,2.39,7,5.35,0,3.74-3.87,6.39-8.86,6.39-2.76,0-6.15-.93-6.15-3.07,0-1.89,2.05-2.31,3.27-2.31,2.62,0,4.12,1.49,5,3.86a5.35,5.35,0,0,0,4.86-5.07c0-2.87-2.37-4.39-5.47-4.39-6.05,0-10.69,5.09-11,5.57-.8,1.18-1.18,1.75-1.89,1.75-.41,0-.7-.28-.7-.93,0-.93.29-1.18,1-1.8,5-4.23,11.62-12.25,11.62-13.43,0-.37-.29-.4-.45-.4a19.41,19.41,0,0,0-4.83,1.44,4.8,4.8,0,0,1-1.25.56c-.9,0-2.62-1.21-2.62-2.5a.63.63,0,0,1,.32-.57A2.11,2.11,0,0,0,167.25,117.31ZM170,133.05c-.8,0-1.57.39-1.57,1.15,0,1.44,3.43,2.06,4.32,2.06a3.14,3.14,0,0,0,1.09-.17A4.36,4.36,0,0,0,170,133.05Z" transform="translate(-4.5 -4.5)"/><path class="cls-1" d="M215.6,128a14.5,14.5,0,0,1-2.91,6.08,7.52,7.52,0,0,1-5.38,2.42c-3.42,0-3.74-2.34-4.13-5.09-.29-2.09-.51-3.55-2.4-3.55s-3.65.9-5.53,3.12c-1.22,1.44-1.47,1.86-3,5.18-.29.59-.51,1.1-1.09,1.1-.8,0-.93-1.55-.93-1.72,0-.36.23-.81.9-1.6,1.5-1.77,6.43-9.88,8.16-12.95a14.34,14.34,0,0,0,1.6-3.55c0-.34-.26-.9-1.31-1.63a2.57,2.57,0,0,1,.7-.11c1.34,0,3,1.21,3,2.33,0,.57-.26.82-.83,1.38a6.73,6.73,0,0,0-.87,1c-4.45,6.23-4.86,6.79-5.92,8.84,2.24-1.66,3.88-2.33,5.47-2.33,2.88,0,3.2,1.94,3.68,4.28.45,2.19.77,3.6,2.85,3.6a5.8,5.8,0,0,0,3.91-1.69,16.72,16.72,0,0,0,3.74-5.15Z" transform="translate(-4.5 -4.5)"/><path class="cls-1" d="M232.05,118.89c.57-.31.6-.34,1-.34s1.22.25,1.22.68c0,.28-.26.45-.51.59a36.43,36.43,0,0,1-5.67,1.94c-3,7.26-4.83,11.68-6.46,14.44-.35.59-.51.93-1,.93s-.9-.62-.9-1.07,0-.39,1-1.91a67.16,67.16,0,0,0,5.89-12,20.51,20.51,0,0,1-4.16.48c-2.27,0-2.88-.85-3.23-1.44a9.2,9.2,0,0,0,2.78.37,24.31,24.31,0,0,0,5.09-.71,21.67,21.67,0,0,0,1.21-4.22c0-.79-.64-1.13-1.63-1.66a4.37,4.37,0,0,1,1.35-.2,2.29,2.29,0,0,1,2.46,1.83c0,.17,0,.28-.38.93a26,26,0,0,0-1.38,2.84A24.24,24.24,0,0,0,232.05,118.89Zm5.34,16.72a34.35,34.35,0,0,0,4.64-.34c.54-.05.61-.08.74-.08.54,0,1.47.59,1.47,1,0,.9-3.75.93-5.6.93-2.56,0-5-.34-6.69-1.55a3,3,0,0,1-1.25-2.47,3.3,3.3,0,0,1,.51-1.81C231.37,133.67,232,135.61,237.39,135.61Zm.19-9.65c.74-.51,2.59-1.86,2.59-2.37s-1.18-.59-5.28-.67c1.48-1,4.29-1,4.48-1,2,0,4.71.71,4.71,2,0,.7-.55.7-1.47.7-1.25,0-2.12.2-5,1.47Zm5.41-7c0,.17-.06.71-.61.71-.35,0-.45-.06-1.66-1.13a19.27,19.27,0,0,0-3.39-2.22C239.44,116.33,243,117.06,243,119Zm-2.05-4.87a9,9,0,0,1,4.26,1.1,1.54,1.54,0,0,1,.67,1.24.57.57,0,0,1-.61.65,1.48,1.48,0,0,1-1-.51,11.42,11.42,0,0,0-4.51-2.36A4.42,4.42,0,0,1,240.94,114.1Z" transform="translate(-4.5 -4.5)"/><path class="cls-1" d="M267.12,119.65a2.41,2.41,0,0,1,.67-.11c.16,0,1.73.14,1.73.84,0,.4-.32.54-.64.68a20.78,20.78,0,0,1-5.25.81,6.89,6.89,0,0,1-2.05-.31,22.72,22.72,0,0,0-.09,2.45,35.93,35.93,0,0,0,.73,7.49c1.09.2,8.23,1.52,8.23,3.72a.74.74,0,0,1-.74.76,5.91,5.91,0,0,1-2.3-1,14.63,14.63,0,0,0-5.12-1.95c-.16,1.5-.64,4-5.38,4-2.85,0-5.34-1.21-5.34-2.76,0-1.27,1.63-2.31,2.85-2.62a18.87,18.87,0,0,1,4.57-.5c.61,0,1,0,1.54.05-.13-1.66-.48-5.6-.48-7,0-1,.06-5.85,0-6.16-.19-1.64-.48-2-2.4-2.45a2.6,2.6,0,0,1,1.53-.51c1,0,3.24.82,3.24,1.77a9.38,9.38,0,0,1-.36,1.33,18.32,18.32,0,0,0-.44,2.56A17.38,17.38,0,0,0,267.12,119.65Zm-9.25,12.75c-3.61,0-5.05,1-5.05,1.83s1.34,1.47,3.48,1.47a6.39,6.39,0,0,0,3.3-.82,2.41,2.41,0,0,0,.93-2.25A10.63,10.63,0,0,0,257.87,132.4Z" transform="translate(-4.5 -4.5)"/><g class="cls-2"><polygon class="cls-1" points="0 49 0 0 49 0 49 2 2 2 2 49 0 49"/></g><g class="cls-2"><polygon class="cls-1" points="346 153 346 151 393 151 393 104 395 104 395 153 346 153"/></g></g></g></svg>