<?xml version="1.0" encoding="utf-8"?>
<!-- Generator: Adobe Illustrator 26.5.0, SVG Export Plug-In . SVG Version: 6.00 Build 0)  -->
<svg version="1.1" id="レイヤー_1" xmlns="http://www.w3.org/2000/svg" xmlns:xlink="http://www.w3.org/1999/xlink" x="0px"
	 y="0px" viewBox="0 0 160.4 21.5" style="enable-background:new 0 0 160.4 21.5;" xml:space="preserve">
<style type="text/css">
	.st0{fill:#02D1E0;}
</style>
<path class="st0" d="M7.9,20.9l-2.3-8.3c0-0.1-0.1-0.1-0.2-0.1h-1c-0.1,0-0.1,0-0.2,0.1c0,0,0,0,0,0v8.2c0,0.1,0,0.2-0.1,0.3
	c-0.1,0.1-0.2,0.1-0.3,0.1H0.4c-0.1,0-0.2,0-0.3-0.1C0,21.1,0,21,0,20.9V0.6c0-0.1,0-0.2,0.1-0.3c0.1-0.1,0.2-0.1,0.3-0.1h6.1
	c1,0,2.1,0.2,2.9,0.8c0.9,0.5,1.6,1.3,2,2.2c0.5,1,0.7,2.2,0.7,3.3c0,1.1-0.2,2.1-0.7,3.1c-0.4,0.9-1.1,1.6-1.9,2.1
	c0,0-0.1,0-0.1,0.1c0,0,0,0.1,0,0.1l2.8,8.9v0.1c0,0.2-0.1,0.3-0.3,0.3H8.3C8.1,21.2,7.9,21.1,7.9,20.9z M4.2,4v5.1
	c0,0.1,0,0.1,0.1,0.1c0,0,0,0,0,0h1.3c0.6,0,1.2-0.3,1.5-0.7c0.4-0.6,0.6-1.3,0.6-2c0-0.7-0.2-1.4-0.6-2C6.9,4.1,6.3,3.8,5.7,3.8
	H4.4C4.3,3.8,4.2,3.9,4.2,4C4.2,4,4.2,4,4.2,4z"/>
<path class="st0" d="M19.5,21.1c-0.1-0.1-0.1-0.2-0.1-0.3v-7.8v-0.2L15.1,0.7c0,0,0-0.1,0-0.2c0-0.2,0.1-0.3,0.3-0.3h3.7
	c0.2,0,0.4,0.1,0.4,0.3l1.9,7.2c0,0.1,0,0.1,0.1,0.1c0.1,0,0.1,0,0.1-0.1l1.8-7.2c0-0.2,0.2-0.3,0.4-0.3h3.7c0.1,0,0.2,0,0.3,0.1
	c0.1,0.1,0.1,0.2,0,0.3l-4.2,12.2v0.2v7.8c0,0.1,0,0.2-0.1,0.3c-0.1,0.1-0.2,0.1-0.2,0.1h-3.5C19.6,21.2,19.5,21.2,19.5,21.1z"/>
<path class="st0" d="M32.9,19.9c-1.1-1.1-1.7-2.7-1.6-4.3V5.9c-0.1-1.6,0.5-3.2,1.6-4.3c1.2-1.1,2.8-1.7,4.4-1.6
	c1.6-0.1,3.2,0.5,4.4,1.6c1.1,1.1,1.7,2.7,1.7,4.3v9.6c0.1,1.6-0.5,3.2-1.7,4.3c-1.2,1.1-2.8,1.7-4.4,1.6
	C35.7,21.6,34.1,21,32.9,19.9z M38.6,17.3c0.4-0.4,0.5-1,0.5-1.6v-10c0-0.6-0.2-1.1-0.5-1.5c-0.3-0.4-0.8-0.6-1.3-0.6
	c-0.5,0-1,0.2-1.3,0.6c-0.3,0.4-0.5,1-0.5,1.5v10c0,0.5,0.2,1.1,0.5,1.5c0.3,0.4,0.8,0.6,1.3,0.6C37.8,17.9,38.3,17.6,38.6,17.3z"/>
<path class="st0" d="M58.7,21.1c-0.1-0.1-0.1-0.2-0.1-0.3v-7.8v-0.2L54.3,0.7c0,0,0-0.1,0-0.2c0-0.2,0.1-0.3,0.3-0.3h3.7
	c0.2,0,0.4,0.1,0.4,0.3l1.8,7.2c0,0.1,0,0.1,0.1,0.1c0.1,0,0.1,0,0.1-0.1l1.9-7.2c0-0.2,0.2-0.3,0.4-0.3h3.7c0.1,0,0.2,0,0.2,0.1
	c0.1,0.1,0.1,0.2,0,0.3l-4.2,12.2v0.2v7.8c0,0.1,0,0.2-0.1,0.3c-0.1,0.1-0.2,0.1-0.2,0.1h-3.5C58.8,21.2,58.7,21.2,58.7,21.1z"/>
<path class="st0" d="M79.1,20.9L78.7,18c0-0.1-0.1-0.1-0.2-0.1h-3.8c-0.1,0-0.2,0-0.2,0.1L74,20.9c0,0.2-0.2,0.3-0.3,0.3
	c0,0,0,0,0,0h-3.5c-0.3,0-0.4-0.1-0.3-0.4l4.4-20.3c0-0.2,0.2-0.3,0.4-0.3c0,0,0,0,0,0h4c0.2,0,0.4,0.1,0.4,0.3c0,0,0,0,0,0
	l4.4,20.3V21c0,0.2-0.1,0.3-0.3,0.3h-3.6C79.3,21.2,79.1,21.1,79.1,20.9z M75.2,14.6h2.7c0.1,0,0.1,0,0.1-0.1l-1.4-8.2
	c0-0.1,0-0.1-0.1-0.1c-0.1,0-0.1,0-0.1,0.1l-1.3,8.2C75.1,14.6,75.1,14.6,75.2,14.6z"/>
<path class="st0" d="M96.8,0.2h3.5c0.1,0,0.2,0,0.2,0.1c0.1,0.1,0.1,0.2,0.1,0.3v20.3c0,0.1,0,0.2-0.1,0.3c-0.1,0.1-0.2,0.1-0.2,0.1
	h-3.5c-0.2,0-0.3-0.1-0.4-0.3c0,0,0,0,0,0V7.4c0-0.1,0-0.1-0.1-0.1c-0.1,0-0.1,0-0.1,0.1l-2.3,4.1c-0.1,0.2-0.2,0.2-0.2,0.2
	c-0.1,0-0.1-0.1-0.2-0.2l-2.3-4.1C91,7.3,91,7.3,91,7.3c0,0-0.1,0-0.1,0.1v13.5c0,0.1,0,0.2-0.1,0.3c-0.1,0.1-0.2,0.1-0.2,0.1H87
	c-0.2,0-0.3-0.1-0.4-0.3c0,0,0,0,0,0V0.6c0-0.1,0-0.2,0.1-0.2c0.1-0.1,0.2-0.1,0.3-0.1h3.4c0.2,0,0.4,0.1,0.4,0.2l2.7,4.8
	c0.1,0.1,0.1,0.1,0.2,0l2.6-4.8C96.4,0.3,96.6,0.2,96.8,0.2z"/>
<path class="st0" d="M113.2,20.9l-0.5-2.9c0-0.1-0.1-0.1-0.2-0.1h-3.8c-0.1,0-0.2,0-0.2,0.1l-0.5,2.9c0,0.2-0.2,0.3-0.3,0.3
	c0,0,0,0,0,0h-3.5c-0.3,0-0.4-0.1-0.3-0.4l4.4-20.3c0-0.2,0.2-0.3,0.4-0.3c0,0,0,0,0,0h4c0.2,0,0.4,0.1,0.4,0.3c0,0,0,0,0,0
	l4.4,20.3V21c0,0.2-0.1,0.3-0.3,0.3h-3.6C113.4,21.2,113.2,21.1,113.2,20.9z M109.3,14.6h2.7c0.1,0,0.1,0,0.1-0.1l-1.4-8.2
	c0-0.1,0-0.1-0.1-0.1c-0.1,0-0.1,0-0.1,0.1l-1.3,8.2C109.2,14.6,109.2,14.6,109.3,14.6z"/>
<path class="st0" d="M120.9,21.1c-0.1-0.1-0.1-0.2-0.1-0.3V0.6c0-0.1,0-0.2,0.1-0.2c0.1-0.1,0.2-0.1,0.3-0.1h5.4
	c1.6-0.1,3.2,0.5,4.4,1.6c1.1,1.1,1.7,2.7,1.6,4.2v9.4c0.1,1.6-0.5,3.1-1.6,4.2c-1.2,1.1-2.8,1.7-4.4,1.6h-5.4
	C121.1,21.2,121,21.2,120.9,21.1z M125.2,17.6h1.3c0.5,0,1-0.3,1.3-0.7c0.4-0.5,0.6-1.1,0.5-1.7V6.3c0-0.6-0.1-1.3-0.5-1.8
	c-0.3-0.4-0.8-0.7-1.4-0.7h-1.3c-0.1,0-0.1,0-0.2,0.1c0,0,0,0,0,0v13.4C125.1,17.5,125.1,17.6,125.2,17.6
	C125.2,17.6,125.2,17.6,125.2,17.6z"/>
<path class="st0" d="M145.1,20.9l-0.5-2.9c0-0.1-0.1-0.1-0.2-0.1h-3.8c-0.1,0-0.2,0-0.2,0.1l-0.5,2.9c0,0.2-0.2,0.3-0.3,0.3
	c0,0,0,0,0,0h-3.5c-0.3,0-0.4-0.1-0.3-0.4l4.4-20.3c0-0.2,0.2-0.3,0.4-0.3c0,0,0,0,0,0h4c0.2,0,0.4,0.1,0.4,0.3c0,0,0,0,0,0
	l4.4,20.3V21c0,0.2-0.1,0.3-0.3,0.3h-3.6C145.3,21.2,145.1,21.1,145.1,20.9z M141.2,14.6h2.7c0.1,0,0.1,0,0.1-0.1l-1.4-8.2
	c0-0.1,0-0.1-0.1-0.1c-0.1,0-0.1,0-0.1,0.1l-1.4,8.2C141.1,14.6,141.1,14.6,141.2,14.6z"/>
</svg>
