<svg xmlns="http://www.w3.org/2000/svg" viewBox="0 0 173.05 33.19"><g id="Layer_2" data-name="Layer 2"><g id="文字要素_スクロール_" data-name="文字要素（スクロール）"><path d="M18.72,0V27.72h7.45V5.87h5.65V33.19H0V5.87H5.69V27.72h7.38V0Z"/><path d="M70.55,1.55V33.12H39.05V1.55ZM52,6.62H44.52v7.89H52Zm0,12.89H44.52V28H52ZM65.08,6.62H57.3v7.89h7.78Zm0,12.89H57.3V28h7.78Z"/><path d="M85.74,21.89h-6V2.66h6ZM102.58,17c0,5.39-2.27,10.11-6.59,12.31a34.57,34.57,0,0,1-12.41,3.09l-2.16-5.51c9.9-.71,15.08-2.37,15.08-9.43V2.12h6.08Z"/><path d="M114.12,22.25V17.53h15.26V13.46H113.54V8.6h21.28V31.53h-21.6v-5h16.16V22.25Z"/><path d="M173.05,6.48V8.17c0,19.15-12.13,23.47-22.89,24.41l-1.91-5.37c5.47-.46,18.57-1.65,18.68-15.4H150.59v7.38H145V6.48H156V1.55h5.76V6.48Z"/></g></g></svg>