<svg xmlns="http://www.w3.org/2000/svg" viewBox="0 0 315.81 60.57"><defs><style>.cls-1{fill:#f1f1f1;}.cls-2{fill:none;stroke:#f1f1f1;stroke-miterlimit:10;stroke-width:0.8px;}.cls-3{fill:#02d1e0;}</style></defs><g id="Layer_2" data-name="Layer 2"><g id="文字要素_スクロール_" data-name="文字要素（スクロール）"><path class="cls-1" d="M15.82,20.08a3.55,3.55,0,0,1-.7.43,3.44,3.44,0,0,1-.82.28,4.88,4.88,0,0,1-1,.09,3.78,3.78,0,0,1-1.56-.31,3.68,3.68,0,0,1-1.24-.84,3.76,3.76,0,0,1-.82-1.26,4.18,4.18,0,0,1,0-3.11,3.83,3.83,0,0,1,.81-1.27,4.09,4.09,0,0,1,1.26-.86,4,4,0,0,1,1.61-.31,4.75,4.75,0,0,1,1,.09,4.31,4.31,0,0,1,.79.24,4.43,4.43,0,0,1,.68.38,5.37,5.37,0,0,1,.58.49l-.87,1a4.31,4.31,0,0,0-1-.7,2.63,2.63,0,0,0-1.18-.26,2.29,2.29,0,0,0-1,.22,2.27,2.27,0,0,0-.81.58,2.44,2.44,0,0,0-.53.86A3.11,3.11,0,0,0,11,18a2.53,2.53,0,0,0,.53.88,2.27,2.27,0,0,0,.81.58,2.29,2.29,0,0,0,1,.22,2.52,2.52,0,0,0,1.21-.27,4.67,4.67,0,0,0,1-.73l.86.88A4.08,4.08,0,0,1,15.82,20.08Z"/><path class="cls-1" d="M23.88,13.05h1.46l-3.2,7.76H21l-3.2-7.76h1.5L21.57,19Z"/><path class="cls-1" d="M46.69,9.5H56v2.68A18.41,18.41,0,0,1,47.76,25.1l-1.54-2.52a14.34,14.34,0,0,0,7.1-10.4H46.69ZM60.08,6.14a19.24,19.24,0,0,0,1.77,6.45A44.77,44.77,0,0,0,68.4,6.51l2.45,1.87a55.42,55.42,0,0,1-7.7,6.5,30.72,30.72,0,0,0,8.16,8l-1.74,2.49c-2.18-1.5-7.38-5.33-9.49-11.57V24.58c0,1,0,3-2.68,3H53.14l-.57-2.76h4c.39,0,.76-.1.76-.72v-21h2.7Z"/><path class="cls-1" d="M76.7,23.85c.93-.05,2-.13,5.53-.49V20.63h-5v-2.4h5V15.87H77.37V4.12H89.62V15.87H84.57v2.36h5.28v2.4H84.57V23.1L90,22.37v2.44c-3.43.73-11.83,1.56-13.13,1.69ZM79.84,6.38V8.85h2.39V6.38Zm0,4.63v2.6h2.39V11Zm4.73-4.63V8.85h2.58V6.38Zm0,4.63v2.6h2.58V11Zm8.92-3.72a15.08,15.08,0,0,1,2.26,1.48,18.1,18.1,0,0,0,2.06-2.29H90.5V4.12h10.09V6.38a15.79,15.79,0,0,1-3,3.79A17,17,0,0,1,99,11.5l-1.22,1.43h3.41v2.42a19.74,19.74,0,0,1-1.54,5l-2.31-.84a13.93,13.93,0,0,0,1.4-4.18H96.61V25.7a1.77,1.77,0,0,1-2,1.95H90.79l-.29-2.79h2.76c.26,0,.78,0,.78-.54v-9H90V12.93h6.5a26.76,26.76,0,0,0-4.6-3.85Z"/><path class="cls-1" d="M112.21,17.58a20.47,20.47,0,0,0,.29-3.92v-4h-5.67V7.18h2.63A10.89,10.89,0,0,0,108,3.91l2.39-1a15.6,15.6,0,0,1,2,4.26h2.54a25.37,25.37,0,0,0,1.46-4.26l2.78.75a31.14,31.14,0,0,1-1.51,3.51h2.94V9.65H115v4.09a24.87,24.87,0,0,1-.26,3.84h2.55V11.06h2.42v9h-5.49a16.56,16.56,0,0,1-4.6,7.49l-2.18-1.92a14,14,0,0,0,4.08-5.57h-3.72v-9h2.45v6.52Zm9.18-13.67h9.31v20.9c0,1.74-.78,2.73-2.52,2.73h-2.42l-.63-2.73h2.34c.37,0,.71,0,.71-.73v-4.7h-4.66a15.52,15.52,0,0,1-4.18,8.14l-2.14-1.77c4.19-3.8,4.19-9.26,4.19-10.48Zm2.55,8.84v2.52c0,.21,0,.36-.11,1.69h4.35V12.75Zm0-6.37V10.3h4.24V6.38Z"/><circle class="cls-2" cx="16.75" cy="16.4" r="16"/><path class="cls-1" d="M6.29,58.29,3.88,54.88H1.71V58.3H0V48.5H4.37a5.17,5.17,0,0,1,1.52.21A3.43,3.43,0,0,1,7,49.33a2.63,2.63,0,0,1,.72,1A3.16,3.16,0,0,1,8,51.6a3.39,3.39,0,0,1-.17,1.1,2.74,2.74,0,0,1-.49.85,3,3,0,0,1-.73.64,4,4,0,0,1-1,.4l2.65,3.7Zm-.56-7.83a2.46,2.46,0,0,0-1.51-.41H1.71v3.31H4.24a2.23,2.23,0,0,0,1.47-.45,1.47,1.47,0,0,0,.55-1.21A1.48,1.48,0,0,0,5.73,50.46Z"/><path class="cls-1" d="M14.58,58.5a6.18,6.18,0,0,1-.46,1,2.29,2.29,0,0,1-.53.64,2.14,2.14,0,0,1-.64.36,2.81,2.81,0,0,1-.8.11,3.43,3.43,0,0,1-1-.12,4.22,4.22,0,0,1-.8-.33L11,58.85a3.26,3.26,0,0,0,.48.2,1.81,1.81,0,0,0,.51.08,1,1,0,0,0,.61-.18,1.79,1.79,0,0,0,.44-.67L9.93,50.9h1.8l2.11,5.48,1.91-5.48h1.77Z"/><path class="cls-1" d="M26.85,56.08A3.84,3.84,0,0,1,26,57.31a4,4,0,0,1-1.26.83,3.91,3.91,0,0,1-1.58.31,4,4,0,0,1-1.56-.3,4,4,0,0,1-1.25-.83,3.72,3.72,0,0,1-1.11-2.7,3.88,3.88,0,0,1,1.12-2.74,3.88,3.88,0,0,1,2.82-1.14,3.9,3.9,0,0,1,1.58.29,4,4,0,0,1,1.25.83,3.91,3.91,0,0,1,.82,1.22,4,4,0,0,1,.29,1.5A3.79,3.79,0,0,1,26.85,56.08Zm-1.57-2.39a2.61,2.61,0,0,0-.47-.77,2.26,2.26,0,0,0-.71-.51,2.09,2.09,0,0,0-.91-.19,2.06,2.06,0,0,0-.91.19,2.3,2.3,0,0,0-.71.51,2.35,2.35,0,0,0-.44.75,2.73,2.73,0,0,0-.15.92,2.47,2.47,0,0,0,.17.93,2.24,2.24,0,0,0,.46.76,2.11,2.11,0,0,0,.71.51,2.08,2.08,0,0,0,.9.19,2.1,2.1,0,0,0,.92-.19,2.3,2.3,0,0,0,.71-.51,2.35,2.35,0,0,0,.44-.75,2.77,2.77,0,0,0,.15-.92A2.54,2.54,0,0,0,25.28,53.69Z"/><path class="cls-1" d="M39.29,58.27H37.56V54.41l-3.89-5.94h2l2.74,4.34,2.77-4.34h2l-3.89,5.89Z"/><path class="cls-1" d="M49.72,58.26v-.91a3.2,3.2,0,0,1-1,.76,3.14,3.14,0,0,1-1.43.31,3.33,3.33,0,0,1-1-.15,2.42,2.42,0,0,1-.83-.43,2.13,2.13,0,0,1-.8-1.7v0a2.32,2.32,0,0,1,.23-1,1.94,1.94,0,0,1,.62-.74,2.79,2.79,0,0,1,1-.45,5.06,5.06,0,0,1,1.2-.14,6.21,6.21,0,0,1,1.14.08,8.45,8.45,0,0,1,.9.22v-.18a1.44,1.44,0,0,0-.47-1.17,2,2,0,0,0-1.35-.41,4.25,4.25,0,0,0-1.12.13,6.39,6.39,0,0,0-1,.33l-.47-1.35a7.29,7.29,0,0,1,1.26-.45,5.9,5.9,0,0,1,1.56-.17,3.27,3.27,0,0,1,2.45.82,3.15,3.15,0,0,1,.8,2.3v4.38Zm0-3.14a4.16,4.16,0,0,0-.76-.2,4.73,4.73,0,0,0-.93-.09,2.24,2.24,0,0,0-1.25.31,1,1,0,0,0-.45.88v0a.92.92,0,0,0,.42.81,1.72,1.72,0,0,0,1,.28,2.77,2.77,0,0,0,.78-.11,1.74,1.74,0,0,0,.62-.32,1.33,1.33,0,0,0,.42-.49,1.46,1.46,0,0,0,.14-.63Z"/><path class="cls-1" d="M61.33,51.07a2.79,2.79,0,0,1,1.45-.36,2.44,2.44,0,0,1,1.9.73,2.94,2.94,0,0,1,.69,2.09v4.72h-1.7V54.06a2,2,0,0,0-.39-1.34,1.36,1.36,0,0,0-1.1-.46,1.49,1.49,0,0,0-1.13.47,1.87,1.87,0,0,0-.44,1.36v4.16H58.89v-4.2a2,2,0,0,0-.39-1.33,1.39,1.39,0,0,0-1.1-.46,1.48,1.48,0,0,0-1.15.49,2,2,0,0,0-.43,1.36v4.15H54.12V50.87h1.71V52a4.54,4.54,0,0,1,.39-.48,2.37,2.37,0,0,1,.48-.41,2.2,2.2,0,0,1,.62-.29,2.29,2.29,0,0,1,.76-.11A2.34,2.34,0,0,1,60.27,52,3.54,3.54,0,0,1,61.33,51.07Z"/><path class="cls-1" d="M72.64,58.24v-.91a3.12,3.12,0,0,1-1,.76,3,3,0,0,1-1.42.31,3.29,3.29,0,0,1-1-.15,2.39,2.39,0,0,1-.84-.43,2.21,2.21,0,0,1-.57-.71,2.12,2.12,0,0,1-.22-1v0A2.46,2.46,0,0,1,67.83,55a2,2,0,0,1,.63-.74,2.69,2.69,0,0,1,1-.44,4.59,4.59,0,0,1,1.2-.15,7.44,7.44,0,0,1,1.14.08,6.59,6.59,0,0,1,.9.23v-.19a1.47,1.47,0,0,0-.47-1.17,2,2,0,0,0-1.35-.41,4.72,4.72,0,0,0-1.12.13,6.45,6.45,0,0,0-1,.34l-.47-1.36a7.29,7.29,0,0,1,1.26-.45,6.35,6.35,0,0,1,1.56-.17,3.28,3.28,0,0,1,2.45.82,3.15,3.15,0,0,1,.8,2.3v4.38Zm0-3.13a3.62,3.62,0,0,0-.76-.21,4.76,4.76,0,0,0-.94-.09,2.2,2.2,0,0,0-1.24.31,1,1,0,0,0-.45.89v0a.93.93,0,0,0,.42.82,1.71,1.71,0,0,0,1,.27A2.45,2.45,0,0,0,71.5,57a2,2,0,0,0,.62-.31,1.4,1.4,0,0,0,.56-1.13Z"/><path class="cls-1" d="M82.59,58.24V57a3.63,3.63,0,0,1-1,1,2.59,2.59,0,0,1-1.5.41,3.27,3.27,0,0,1-1.27-.25,3.13,3.13,0,0,1-1.09-.75A3.64,3.64,0,0,1,77,56.18a4.17,4.17,0,0,1-.3-1.64,4.35,4.35,0,0,1,.29-1.63,3.77,3.77,0,0,1,.76-1.22,3.23,3.23,0,0,1,1.09-.75,3.55,3.55,0,0,1,1.28-.25,2.71,2.71,0,0,1,1.51.39,4.23,4.23,0,0,1,1,.91V48h1.71V58.23Zm-.15-4.68a2.22,2.22,0,0,0-.47-.75,1.91,1.91,0,0,0-.68-.48,2.06,2.06,0,0,0-.81-.17,2.26,2.26,0,0,0-.82.16,2.08,2.08,0,0,0-.67.47,2.2,2.2,0,0,0-.46.75,2.87,2.87,0,0,0-.17,1,2.78,2.78,0,0,0,.17,1,2.2,2.2,0,0,0,.46.75,2.13,2.13,0,0,0,.68.47,1.87,1.87,0,0,0,.81.17,2.09,2.09,0,0,0,1.5-.65,2.36,2.36,0,0,0,.46-.75,2.76,2.76,0,0,0,0-2Z"/><path class="cls-1" d="M91.64,58.23v-.91a3.38,3.38,0,0,1-1,.76,3.12,3.12,0,0,1-1.43.3,3.38,3.38,0,0,1-1-.14,2.62,2.62,0,0,1-.83-.43,2.12,2.12,0,0,1-.57-.72,2.07,2.07,0,0,1-.22-1v0a2.32,2.32,0,0,1,.22-1,2.08,2.08,0,0,1,.63-.75,2.88,2.88,0,0,1,1-.44,4.46,4.46,0,0,1,1.19-.15,6.12,6.12,0,0,1,1.14.09,6.37,6.37,0,0,1,.91.22v-.18a1.49,1.49,0,0,0-.47-1.18,2,2,0,0,0-1.35-.4,4.69,4.69,0,0,0-1.12.12,8.43,8.43,0,0,0-1,.34l-.46-1.36a8.18,8.18,0,0,1,1.26-.44,5.87,5.87,0,0,1,1.55-.17,3.3,3.3,0,0,1,2.45.81,3.15,3.15,0,0,1,.8,2.31v4.38Zm0-3.14a5.25,5.25,0,0,0-.77-.21A5.46,5.46,0,0,0,90,54.8a2.11,2.11,0,0,0-1.24.31,1,1,0,0,0-.45.88v0a.94.94,0,0,0,.41.81,1.77,1.77,0,0,0,1,.28A2.77,2.77,0,0,0,90.5,57a2.14,2.14,0,0,0,.62-.32,1.49,1.49,0,0,0,.41-.49,1.34,1.34,0,0,0,.15-.64Z"/><path class="cls-1" d="M107.31,47,101,60H99.52l6.32-13Z"/><path class="cls-1" d="M121.76,57.36a5.75,5.75,0,0,1-.89.55,4.89,4.89,0,0,1-1,.35,6.13,6.13,0,0,1-1.26.12,5,5,0,0,1-2-.39A5.08,5.08,0,0,1,115,56.92,5.21,5.21,0,0,1,114,55.31a5.41,5.41,0,0,1-.38-2,5.25,5.25,0,0,1,.38-2,4.84,4.84,0,0,1,1-1.62,5,5,0,0,1,1.59-1.09,5.05,5.05,0,0,1,2-.4,6.62,6.62,0,0,1,1.23.11,5.08,5.08,0,0,1,1,.32,4.43,4.43,0,0,1,.85.48,6.15,6.15,0,0,1,.74.61L121.37,51a5.37,5.37,0,0,0-1.25-.88,3.19,3.19,0,0,0-1.5-.34,2.93,2.93,0,0,0-1.29.28,3.19,3.19,0,0,0-1,.74,3.32,3.32,0,0,0-.67,1.1,3.78,3.78,0,0,0-.24,1.36,3.81,3.81,0,0,0,.24,1.36,3.26,3.26,0,0,0,.67,1.11,3.18,3.18,0,0,0,1,.75,3.12,3.12,0,0,0,1.3.27,3.24,3.24,0,0,0,1.54-.34,6.13,6.13,0,0,0,1.27-.93l1.11,1.12A6.6,6.6,0,0,1,121.76,57.36Z"/><path class="cls-1" d="M132,48.4h1.87l-4.07,9.87h-1.51l-4.08-9.87h1.9l3,7.53Z"/><path class="cls-1" d="M142.69,51.46a1.18,1.18,0,0,0,.36.39,2.78,2.78,0,0,0,.71.33c.31.1.7.21,1.16.32a10.56,10.56,0,0,1,1.37.44,3.16,3.16,0,0,1,1,.58,2.4,2.4,0,0,1,.6.79,2.74,2.74,0,0,1,.2,1.08,2.89,2.89,0,0,1-.25,1.24,2.62,2.62,0,0,1-.72.93,3.1,3.1,0,0,1-1.1.57,4.85,4.85,0,0,1-1.41.2,6.09,6.09,0,0,1-2.17-.39,5.87,5.87,0,0,1-1.92-1.18l1-1.23a5.55,5.55,0,0,0,1.44.94,3.92,3.92,0,0,0,1.65.33,2.12,2.12,0,0,0,1.27-.34,1.06,1.06,0,0,0,.47-.91,1.2,1.2,0,0,0-.1-.47,1,1,0,0,0-.33-.39,3.11,3.11,0,0,0-.68-.32,10.59,10.59,0,0,0-1.11-.33,11.41,11.41,0,0,1-1.4-.4,3.72,3.72,0,0,1-1-.56,2.28,2.28,0,0,1-.63-.81,2.89,2.89,0,0,1-.22-1.16,2.79,2.79,0,0,1,.25-1.17,2.93,2.93,0,0,1,.69-.91,3.13,3.13,0,0,1,1.05-.58,4.43,4.43,0,0,1,1.34-.2,5.6,5.6,0,0,1,1.94.31,5.69,5.69,0,0,1,1.62.92l-.92,1.3a5.79,5.79,0,0,0-1.33-.75,3.7,3.7,0,0,0-1.33-.26,1.8,1.8,0,0,0-1.18.35,1,1,0,0,0-.42.83A1.29,1.29,0,0,0,142.69,51.46Z"/><path class="cls-1" d="M155.14,58.18v-.91a3.2,3.2,0,0,1-1,.76,3.14,3.14,0,0,1-1.43.31,3.33,3.33,0,0,1-1-.15,2.42,2.42,0,0,1-.83-.43,2.13,2.13,0,0,1-.8-1.7v0a2.32,2.32,0,0,1,.23-1.05,2,2,0,0,1,.62-.75,3,3,0,0,1,.95-.44,4.59,4.59,0,0,1,1.2-.14,5.44,5.44,0,0,1,1.14.08,6.57,6.57,0,0,1,.9.22v-.18a1.46,1.46,0,0,0-.47-1.18,2,2,0,0,0-1.35-.4,4.25,4.25,0,0,0-1.12.13,6.39,6.39,0,0,0-1,.33l-.47-1.35a7.29,7.29,0,0,1,1.26-.45,5.9,5.9,0,0,1,1.56-.17,3.3,3.3,0,0,1,2.45.81,3.19,3.19,0,0,1,.8,2.31v4.38Zm0-3.14a5.09,5.09,0,0,0-.76-.21,5.64,5.64,0,0,0-.93-.08,2.16,2.16,0,0,0-1.25.31,1,1,0,0,0-.45.88v0a.91.91,0,0,0,.42.81,1.72,1.72,0,0,0,1,.28A2.77,2.77,0,0,0,154,57a1.91,1.91,0,0,0,.62-.32,1.41,1.41,0,0,0,.42-.49,1.46,1.46,0,0,0,.14-.63Z"/><path class="cls-1" d="M166.47,58.17h-2L162.28,55l-1,1.08v2.11h-1.71V48h1.71v6.11l3.06-3.28h2.06l-2.93,3Z"/><path class="cls-1" d="M173.22,50.77h1.71v7.39h-1.71V57a3.78,3.78,0,0,1-.91.92,2.34,2.34,0,0,1-1.4.39,2.45,2.45,0,0,1-1.94-.77,3,3,0,0,1-.68-2.07v-4.7H170V55a1.93,1.93,0,0,0,.41,1.33,1.46,1.46,0,0,0,1.16.47,1.55,1.55,0,0,0,1.19-.49,1.89,1.89,0,0,0,.46-1.34Z"/><path class="cls-1" d="M187.69,55.75h-.06l-3.07-4.59v7h-1.71v-9.8h1.84l3,4.63,3-4.64h1.83v9.8h-1.71v-7Z"/><path class="cls-1" d="M195.54,49.62V48h1.83v1.61Zm.08,8.53V50.76h1.71v7.4Z"/><path class="cls-1" d="M200,52.14V50.75h6.27v1.16L202,56.76h4.27v1.39h-6.43V57l4.27-4.84Z"/><path class="cls-1" d="M213.6,50.74h1.71v7.39H213.6V57a3.74,3.74,0,0,1-.9.92,2.36,2.36,0,0,1-1.4.39,2.44,2.44,0,0,1-1.94-.77,3,3,0,0,1-.69-2.07v-4.7h1.71v4.19a2,2,0,0,0,.41,1.33,1.48,1.48,0,0,0,1.16.47,1.57,1.57,0,0,0,1.19-.49,1.85,1.85,0,0,0,.46-1.34Z"/><path class="cls-1" d="M219.85,58.13h-1.71V50.74h1.71V51.9a4,4,0,0,1,.4-.5,2.53,2.53,0,0,1,.5-.42,2.59,2.59,0,0,1,.63-.29,2.67,2.67,0,0,1,.78-.11,2.49,2.49,0,0,1,1.94.77,3,3,0,0,1,.68,2.07v4.71h-1.71V53.94a2,2,0,0,0-.42-1.34,1.45,1.45,0,0,0-1.15-.46,1.58,1.58,0,0,0-1.2.48,1.85,1.85,0,0,0-.45,1.35Z"/><path class="cls-1" d="M234.69,55.92a3.84,3.84,0,0,1-.82,1.23,4.14,4.14,0,0,1-4.4.84,3.8,3.8,0,0,1-1.24-.83,3.7,3.7,0,0,1-.82-1.21,3.74,3.74,0,0,1-.3-1.49,3.8,3.8,0,0,1,.3-1.51,3.87,3.87,0,0,1,.83-1.23,4,4,0,0,1,1.24-.84,4.08,4.08,0,0,1,1.58-.3,3.7,3.7,0,0,1,1.57.3,3.82,3.82,0,0,1,1.25.82,3.91,3.91,0,0,1,.82,1.22,4,4,0,0,1,.29,1.5A3.79,3.79,0,0,1,234.69,55.92Zm-1.57-2.39a2.27,2.27,0,0,0-.47-.76,2.14,2.14,0,0,0-.71-.52,2.27,2.27,0,0,0-1.82,0,2.15,2.15,0,0,0-.7.51,2.21,2.21,0,0,0-.45.75,2.77,2.77,0,0,0-.15.92,2.69,2.69,0,0,0,.17.93,2.2,2.2,0,0,0,1.17,1.27,2.11,2.11,0,0,0,.9.19,2.18,2.18,0,0,0,.93-.19,2.38,2.38,0,0,0,.7-.51,2.35,2.35,0,0,0,.44-.75,2.54,2.54,0,0,0,.16-.92A2.59,2.59,0,0,0,233.12,53.53Z"/><path class="cls-3" d="M279,2.36A3.17,3.17,0,0,1,280.24,5a3.69,3.69,0,0,1-.17,1.14,3.55,3.55,0,0,1-.44.87,3.24,3.24,0,0,1-.63.65,5.24,5.24,0,0,1-.75.48,7.86,7.86,0,0,1,1.13.51,3.68,3.68,0,0,1,.87.69,3,3,0,0,1,.57.95,3.8,3.8,0,0,1,.2,1.27,3.64,3.64,0,0,1-.37,1.65,3.39,3.39,0,0,1-1,1.21,4.85,4.85,0,0,1-1.64.74,8.22,8.22,0,0,1-2.12.25h-6.46V1.4h6.26A5.37,5.37,0,0,1,279,2.36Zm-1.92,4.49a1.62,1.62,0,0,0,.71-1.46,1.57,1.57,0,0,0-.62-1.34,3,3,0,0,0-1.83-.47h-3.52V7.32h3.34A3.5,3.5,0,0,0,277.08,6.85Zm.78,5.88a1.64,1.64,0,0,0,.72-1.45,1.62,1.62,0,0,0-.71-1.4,3.82,3.82,0,0,0-2.17-.5h-3.88v3.84h4.06A3.45,3.45,0,0,0,277.86,12.73Z"/><path class="cls-3" d="M291,15.4V14.1a4.59,4.59,0,0,1-1.39,1.08,4.36,4.36,0,0,1-2,.44,4.92,4.92,0,0,1-1.44-.21,3.64,3.64,0,0,1-1.19-.62,2.91,2.91,0,0,1-.81-1,3.05,3.05,0,0,1-.32-1.41v0a3.38,3.38,0,0,1,.32-1.5A3,3,0,0,1,285,9.76a4.06,4.06,0,0,1,1.36-.63,6.68,6.68,0,0,1,1.71-.21,9.37,9.37,0,0,1,1.63.12,10.13,10.13,0,0,1,1.29.32V9.1a2.1,2.1,0,0,0-.67-1.68,2.83,2.83,0,0,0-1.92-.58,6.49,6.49,0,0,0-1.61.18,11.32,11.32,0,0,0-1.42.48l-.66-1.94a11,11,0,0,1,1.8-.64,9,9,0,0,1,2.22-.24,4.66,4.66,0,0,1,3.5,1.17,4.52,4.52,0,0,1,1.14,3.29V15.4Zm.05-4.48a6,6,0,0,0-1.09-.3,7.07,7.07,0,0,0-1.33-.12,3.17,3.17,0,0,0-1.78.44,1.44,1.44,0,0,0-.64,1.26v0a1.32,1.32,0,0,0,.59,1.16,2.52,2.52,0,0,0,1.45.4,3.59,3.59,0,0,0,1.11-.16,2.86,2.86,0,0,0,.89-.45,1.88,1.88,0,0,0,.59-.7,2,2,0,0,0,.21-.91Z"/><path class="cls-3" d="M304.51,13.74a2.79,2.79,0,0,1-.83,1,3.66,3.66,0,0,1-1.25.62,5.41,5.41,0,0,1-1.54.21,7.07,7.07,0,0,1-2.31-.4A7.34,7.34,0,0,1,296.42,14l1.08-1.64a6.76,6.76,0,0,0,1.75,1,4.88,4.88,0,0,0,1.71.33,2,2,0,0,0,1.21-.31,1,1,0,0,0,.42-.83v0a.8.8,0,0,0-.18-.52,1.7,1.7,0,0,0-.53-.39,4.87,4.87,0,0,0-.75-.3l-.89-.27c-.39-.12-.78-.25-1.18-.4a4.68,4.68,0,0,1-1.06-.57,2.73,2.73,0,0,1-.76-.86,2.46,2.46,0,0,1-.31-1.27v0A3,3,0,0,1,298,5.52a3.73,3.73,0,0,1,1.2-.64,4.73,4.73,0,0,1,1.48-.22,6.75,6.75,0,0,1,2,.32,7.47,7.47,0,0,1,1.87.88l-1,1.72a8.26,8.26,0,0,0-1.54-.73,4.48,4.48,0,0,0-1.45-.27,1.76,1.76,0,0,0-1.09.3.93.93,0,0,0-.38.76v0a.69.69,0,0,0,.19.49,2.18,2.18,0,0,0,.53.38,7,7,0,0,0,.76.32l.9.29c.38.12.77.26,1.16.42a5.36,5.36,0,0,1,1.05.59,2.94,2.94,0,0,1,.76.85,2.32,2.32,0,0,1,.3,1.22v0A3.31,3.31,0,0,1,304.51,13.74Z"/><path class="cls-3" d="M315.51,13.74a2.79,2.79,0,0,1-.83,1,3.66,3.66,0,0,1-1.25.62,5.41,5.41,0,0,1-1.54.21,7.07,7.07,0,0,1-2.31-.4A7.34,7.34,0,0,1,307.42,14l1.08-1.64a6.76,6.76,0,0,0,1.75,1,4.88,4.88,0,0,0,1.71.33,2,2,0,0,0,1.21-.31,1,1,0,0,0,.42-.83v0a.8.8,0,0,0-.18-.52,1.7,1.7,0,0,0-.53-.39,4.87,4.87,0,0,0-.75-.3l-.89-.27c-.39-.12-.78-.25-1.18-.4a4.68,4.68,0,0,1-1.06-.57,2.73,2.73,0,0,1-.76-.86,2.46,2.46,0,0,1-.31-1.27v0A3,3,0,0,1,309,5.52a3.73,3.73,0,0,1,1.2-.64,4.73,4.73,0,0,1,1.48-.22,6.75,6.75,0,0,1,2,.32,7.47,7.47,0,0,1,1.87.88l-1,1.72a8.26,8.26,0,0,0-1.54-.73,4.48,4.48,0,0,0-1.45-.27,1.76,1.76,0,0,0-1.09.3.93.93,0,0,0-.38.76v0a.69.69,0,0,0,.19.49,2.18,2.18,0,0,0,.53.38,7,7,0,0,0,.76.32l.9.29c.38.12.77.26,1.16.42a5.36,5.36,0,0,1,1.05.59,2.94,2.94,0,0,1,.76.85,2.32,2.32,0,0,1,.3,1.22v0A3.31,3.31,0,0,1,315.51,13.74Z"/></g></g></svg>